SplineFontDB: 3.0
FontName: Ayanna
FullName: Ayanna
FamilyName: Ayanna
OS2FamilyName: "Ayanna"
Weight: Light
Copyright: Copyright (c) 2015 mooniak
UComments: "2015-3-5: Created with FontForge (http://fontforge.org)"
Version: 0
ItalicAngle: 0
UnderlinePosition: 0
UnderlineWidth: 0
Ascent: 819
Descent: 205
InvalidEm: 0
UFOAscent: 819
UFODescent: -205
LayerCount: 2
Layer: 0 0 "Back" 1
Layer: 1 0 "Fore" 0
FSType: 0
OS2Version: 0
OS2_WeightWidthSlopeOnly: 0
OS2_UseTypoMetrics: 0
CreationTime: 1447346406
ModificationTime: 1447346517
PfmFamily: 16
TTFWeight: 400
TTFWidth: 5
LineGap: 0
VLineGap: 0
OS2TypoAscent: 0
OS2TypoAOffset: 1
OS2TypoDescent: 0
OS2TypoDOffset: 1
OS2TypoLinegap: 0
OS2WinAscent: 0
OS2WinAOffset: 1
OS2WinDescent: 0
OS2WinDOffset: 1
HheadAscent: 875
HheadAOffset: 0
HheadDescent: -281
HheadDOffset: 0
OS2CapHeight: 0
OS2XHeight: 0
DEI: 91125
LangName: 1033 "Copyright (c) 2015 mooniak" "" "" "" "" "Version "
Encoding: Custom
UnicodeInterp: none
NameList: AGL For New Fonts
DisplaySize: -128
AntiAlias: 1
FitToEm: 1
WinInfo: 336 8 2
BeginChars: 569 569

StartChar: .notdef
Encoding: 0 -1 0
GlifName: _notdef
Width: 554
VWidth: 0
Flags: W
LayerCount: 2
Back
Fore
SplineSet
110 551 m 257
 110 42 l 257
 444 42 l 257
 444 551 l 257
 110 551 l 257
70 591 m 257
 484 591 l 257
 484 2 l 257
 70 2 l 257
 70 591 l 257
EndSplineSet
EndChar

StartChar: NameMe.124
Encoding: 1 -1 1
GlifName: N_ameM_e.124
Width: 595
VWidth: 0
GlyphClass: 2
Flags: W
LayerCount: 2
Back
Fore
SplineSet
59.334 -104 m 256
 96.334 -104 l 256
 96.334 -187.151 175.834 -244 293.833 -244 c 256
 411.833 -244 491.333 -187.151 491.333 -104 c 256
 491.333 -42.2279 472.955 -7.11575 442.941 16 c 257
 444 38 l 257
 475.688 32 l 257
 508.452 3.27342 528.333 -40.1667 528.333 -104 c 256
 528.333 -213.491 426.453 -281 293.833 -281 c 256
 161.214 -281 59.334 -213.491 59.334 -104 c 256
EndSplineSet
Refer: 147 -1 N 1 0 0 1 0 0 2
EndChar

StartChar: anusvara
Encoding: 3 3458 3
GlifName: anusvara
Width: 272
VWidth: 0
GlyphClass: 2
Flags: W
LayerCount: 2
Back
Fore
SplineSet
62.1006 265.612 m 256
 62.1006 217.121 74.4678 149.976 136.051 149.976 c 256
 197.633 149.976 210 217.121 210 265.612 c 256
 210 314.104 197.633 381.249 136.051 381.249 c 256
 74.4678 381.249 62.1006 314.104 62.1006 265.612 c 256
25.1006 265.612 m 256
 25.1006 357.278 66.2168 418.249 136.051 418.249 c 256
 205.886 418.249 247 357.279 247 265.612 c 256
 247 172.62 215.063 113 136.051 113 c 256
 57.0381 113 25.1006 172.621 25.1006 265.612 c 256
EndSplineSet
EndChar

StartChar: dottedcircle
Encoding: 4 9676 4
GlifName: dottedcircle
Width: 660
VWidth: 0
GlyphClass: 2
Flags: W
LayerCount: 2
Back
Fore
SplineSet
67.7881 165.87 m 256
 67.7881 184.87 83.7881 200.87 102.788 200.87 c 256
 121.788 200.87 137.788 184.87 137.788 165.87 c 256
 137.788 146.87 121.788 130.87 102.788 130.87 c 256
 83.7881 130.87 67.7881 146.87 67.7881 165.87 c 256
164.313 69.9717 m 256
 164.313 88.9717 180.313 104.972 199.313 104.972 c 256
 218.313 104.972 234.313 88.9717 234.313 69.9717 c 256
 234.313 50.9717 218.313 34.9717 199.313 34.9717 c 256
 180.313 34.9717 164.313 50.9717 164.313 69.9717 c 256
522.212 165.87 m 256
 522.212 184.87 538.212 200.87 557.212 200.87 c 256
 576.212 200.87 592.212 184.87 592.212 165.87 c 256
 592.212 146.87 576.212 130.87 557.212 130.87 c 256
 538.212 130.87 522.212 146.87 522.212 165.87 c 256
425.687 69.9717 m 256
 425.687 88.9717 441.687 104.972 460.687 104.972 c 256
 479.687 104.972 495.687 88.9717 495.687 69.9717 c 256
 495.687 50.9717 479.687 34.9717 460.687 34.9717 c 256
 441.687 34.9717 425.687 50.9717 425.687 69.9717 c 256
67.7881 428.13 m 256
 67.7881 447.13 83.7881 463.13 102.788 463.13 c 256
 121.788 463.13 137.788 447.13 137.788 428.13 c 256
 137.788 409.13 121.788 393.13 102.788 393.13 c 256
 83.7881 393.13 67.7881 409.13 67.7881 428.13 c 256
164.313 524.028 m 256
 164.313 543.028 180.313 559.028 199.313 559.028 c 256
 218.313 559.028 234.313 543.028 234.313 524.028 c 256
 234.313 505.028 218.313 489.028 199.313 489.028 c 256
 180.313 489.028 164.313 505.028 164.313 524.028 c 256
522.212 428.13 m 256
 522.212 447.13 538.212 463.13 557.212 463.13 c 256
 576.212 463.13 592.212 447.13 592.212 428.13 c 256
 592.212 409.13 576.212 393.13 557.212 393.13 c 256
 538.212 393.13 522.212 409.13 522.212 428.13 c 256
425.687 524.028 m 256
 425.687 543.028 441.687 559.028 460.687 559.028 c 256
 479.687 559.028 495.687 543.028 495.687 524.028 c 256
 495.687 505.028 479.687 489.028 460.687 489.028 c 256
 441.687 489.028 425.687 505.028 425.687 524.028 c 256
33 297 m 256
 33 316 49 332 68 332 c 256
 87 332 103 316 103 297 c 256
 103 278 87 262 68 262 c 256
 49 262 33 278 33 297 c 256
557 297 m 256
 557 316 573 332 592 332 c 256
 611 332 627 316 627 297 c 256
 627 278 611 262 592 262 c 256
 573 262 557 278 557 297 c 256
295 559 m 256
 295 578 311 594 330 594 c 256
 349 594 365 578 365 559 c 256
 365 540 349 524 330 524 c 256
 311 524 295 540 295 559 c 256
295 35 m 256
 295 54 311 70 330 70 c 256
 349 70 365 54 365 35 c 256
 365 16 349 0 330 0 c 256
 311 0 295 16 295 35 c 256
EndSplineSet
EndChar

StartChar: si_A
Encoding: 5 3461 5
GlifName: si_A_
Width: 547
VWidth: 0
GlyphClass: 2
Flags: W
LayerCount: 2
Back
Fore
SplineSet
329 -205 m 257
 326.645 408 l 257
 329 425 340.934 469.962 351 490 c 257
 375 539 422.001 585.236 490 599 c 257
 500.844 574.562 l 257
 488.433 565.218 484 551.492 484 535 c 256
 484 499.147 514 454.956 514 411 c 256
 514 358.441 484.578 320.268 416.747 320.268 c 256
 400.689 320.268 376 326 362 333 c 257
 362 367 l 257
 380 357 397.824 354.142 411.957 354.142 c 256
 458.078 354.142 478 377.225 478 411 c 256
 478 441.547 452.851 489.447 452.851 528.16 c 256
 452.851 536.641 454.058 544.681 457 552 c 257
 429 542 370.5 487.69 366 422.986 c 257
 366 -205 l 257
 329 -205 l 257
33 212 m 256
 33 312.682 106 411 229.945 411 c 256
 254.226 411 302 411 325.802 411 c 257
 327.802 422 331 438.288 331 454 c 256
 331 524.746 288.918 557 240.556 557 c 256
 200.171 557 157.723 530.043 157.723 474 c 256
 157.723 431.347 179.467 406.53 188.63 398 c 257
 164.723 376 l 257
 152.723 387 124.247 419 124.247 474 c 256
 124.247 553 183.85 591 240.556 591 c 256
 305.112 591 365 548.099 365 454 c 256
 365 424.453 360 399.965 351 374 c 257
 351 374 273 374 229.945 374 c 256
 130.144 374 70 295.036 70 212 c 256
 70 107.483 148.333 40 255 40 c 256
 383 40 442.476 105.71 475 138 c 257
 498 113 l 257
 462.963 76.9199 399 3 255 3 c 256
 127 3 33 85 33 212 c 256
EndSplineSet
EndChar

StartChar: si_B.halant
Encoding: 11 -1 11
GlifName: si_B_.halant
Width: 555
VWidth: 0
GlyphClass: 2
Flags: W
LayerCount: 2
Back
Fore
SplineSet
62.3193 746 m 256
 62.3193 795.266 105.829 864 266.319 864 c 256
 391.881 864 494.229 801.028 494.229 712 c 256
 494.229 659 459.981 621 411.229 602 c 257
 381.229 611 l 257
 403.229 636 l 257
 434.947 649.127 457.229 675.382 457.229 712 c 256
 457.229 779.357 371.496 827 266.319 827 c 256
 134.938 827 99.3193 779.817 99.3193 746 c 256
 99.3193 712.768 126.503 683.519 152.319 668 c 257
 153.319 637 l 257
 125.319 646 l 257
 94.6328 665.896 62.3193 703.395 62.3193 746 c 256
33 220 m 256
 33 419.134 108.666 486 196.061 486 c 256
 287.595 486 331 436.897 331 344 c 256
 331 247 257 228 257 137 c 256
 257 65.1299 303.975 39 357 39 c 256
 458.697 39 485.619 145.855 485.619 293 c 256
 485.619 582 358.159 651 239.319 651 c 256
 169.38 651 127.833 621.477 89.3193 591 c 257
 65.3193 620 l 257
 113.878 663.099 183.16 688 239.319 688 c 256
 376.012 688 522.619 611.869 522.619 293 c 256
 522.619 125 487.952 3 357 3 c 256
 262.843 3 221.114 58.3154 221.114 137 c 256
 221.114 241 295 258 295 344 c 256
 295 413.346 263.175 450 196.061 450 c 256
 128.497 450 70 392.184 70 220 c 256
 70 105.193 95.7783 39 155 39 c 256
 193.885 39 220.538 79 227 115 c 257
 257 108 l 257
 247.556 52 216.124 3 155 3 c 256
 70 3 33 82.3594 33 220 c 256
EndSplineSet
EndChar

StartChar: si_BI
Encoding: 12 -1 12
GlifName: si_B_I_
Width: 555
VWidth: 0
GlyphClass: 2
Flags: W
LayerCount: 2
Back
Fore
SplineSet
61.8867 720.999 m 256
 61.8867 785.999 110.396 863.999 270.887 863.999 c 256
 408.887 863.999 486.887 802.685 486.887 715.999 c 256
 486.887 649.999 447.887 605.999 382.887 593.999 c 257
 352.887 602.999 l 257
 374.887 627.999 l 257
 421.762 636.654 449.887 668.393 449.887 715.999 c 256
 449.887 781.013 385.248 826.999 270.887 826.999 c 256
 139.505 826.999 98.8867 772.999 98.8867 720.999 c 256
 98.8867 679.742 122.721 644.999 175.721 644.999 c 256
 207.309 644.999 245.464 646.999 258.721 646.999 c 257
 274.721 629.999 l 257
 258.721 609.999 l 257
 218.979 609.999 210.651 607.999 175.721 607.999 c 256
 121.721 607.999 61.8867 644.62 61.8867 720.999 c 256
33 220 m 256
 33 419.134 108.666 486 196.061 486 c 256
 287.595 486 331 436.897 331 344 c 256
 331 247 257 228 257 137 c 256
 257 65.1299 303.975 39 357 39 c 256
 458.697 39 485.619 145.855 485.619 293 c 256
 485.619 507.777 434.592 609.999 258.721 609.999 c 257
 258.721 646.999 l 257
 463.271 646.999 522.619 532.846 522.619 293 c 256
 522.619 125 487.952 3 357 3 c 256
 262.843 3 221.114 58.3154 221.114 137 c 256
 221.114 241 295 258 295 344 c 256
 295 413.346 263.175 450 196.061 450 c 256
 128.497 450 70 392.184 70 220 c 256
 70 105.193 95.7783 39 155 39 c 256
 193.885 39 220.538 79 227 115 c 257
 257 108 l 257
 247.556 52 216.124 3 155 3 c 256
 70 3 33 82.3594 33 220 c 256
EndSplineSet
EndChar

StartChar: si_BIi
Encoding: 13 -1 13
GlifName: si_B_I_i
Width: 555
VWidth: 0
GlyphClass: 2
Flags: W
LayerCount: 2
Back
Fore
SplineSet
327.506 700.978 m 256
 327.506 668.417 353.505 641.487 386.405 641.487 c 256
 419.283 641.487 445.305 668.411 445.305 700.978 c 256
 445.305 733.537 419.307 760.469 386.405 760.469 c 256
 353.526 760.469 327.506 733.543 327.506 700.978 c 256
289.047 700.999 m 256
 289.047 754.755 332.213 797.92 385.968 797.92 c 256
 444.887 797.92 482.887 744.999 482.887 700.999 c 256
 482.887 647.244 439.72 604.078 385.968 604.078 c 256
 332.213 604.078 289.047 647.244 289.047 700.999 c 256
61.8867 720.999 m 256
 61.8867 785.999 110.396 863.999 270.887 863.999 c 256
 408.887 863.999 486.887 802.685 486.887 715.999 c 256
 486.887 682.019 475.297 650.03 453.887 630.999 c 256
 435.887 614.999 410.302 604.078 385.968 604.078 c 257
 355.968 613.078 l 257
 377.968 638.078 l 257
 430.887 638.078 449.887 673.845 449.887 715.999 c 256
 449.887 796.999 385.248 826.999 270.887 826.999 c 256
 139.505 826.999 98.8867 772.999 98.8867 720.999 c 256
 98.8867 679.742 122.721 644.999 175.721 644.999 c 256
 207.309 644.999 245.464 646.999 258.721 646.999 c 257
 274.721 629.999 l 257
 258.721 609.999 l 257
 218.979 609.999 210.651 607.999 175.721 607.999 c 256
 121.721 607.999 61.8867 644.62 61.8867 720.999 c 256
33 220 m 256
 33 419.134 108.666 486 196.061 486 c 256
 287.595 486 331 436.897 331 344 c 256
 331 247 257 228 257 137 c 256
 257 65.1299 303.975 39 357 39 c 256
 458.697 39 485.619 145.855 485.619 293 c 256
 485.619 507.777 434.592 609.999 258.721 609.999 c 257
 258.721 646.999 l 257
 463.271 646.999 522.619 532.846 522.619 293 c 256
 522.619 125 487.952 3 357 3 c 256
 262.843 3 221.114 58.3154 221.114 137 c 256
 221.114 241 295 258 295 344 c 256
 295 413.346 263.175 450 196.061 450 c 256
 128.497 450 70 392.184 70 220 c 256
 70 105.193 95.7783 39 155 39 c 256
 193.885 39 220.538 79 227 115 c 257
 257 108 l 257
 247.556 52 216.124 3 155 3 c 256
 70 3 33 82.3594 33 220 c 256
EndSplineSet
EndChar

StartChar: si_BR.halant
Encoding: 14 -1 14
GlifName: si_B_R_.halant
Width: 555
VWidth: 0
GlyphClass: 2
Flags: W
LayerCount: 2
Back
Fore
SplineSet
37.6201 -104 m 256
 74.6201 -104 l 256
 74.6201 -187.151 154.12 -244 272.119 -244 c 256
 390.119 -244 469.619 -187.151 469.619 -104 c 256
 469.619 -39.4941 449.578 -4.05957 417.175 19 c 257
 413.619 42 l 257
 442.64 41 l 257
 482.097 12.6338 506.619 -33.1064 506.619 -104 c 256
 506.619 -213.491 404.739 -281 272.119 -281 c 256
 139.5 -281 37.6201 -213.491 37.6201 -104 c 256
62.3193 746 m 256
 62.3193 795.266 105.829 864 266.319 864 c 256
 391.881 864 494.229 801.028 494.229 712 c 256
 494.229 659 459.981 621 411.229 602 c 257
 381.229 611 l 257
 403.229 636 l 257
 434.947 649.127 457.229 675.382 457.229 712 c 256
 457.229 779.357 371.496 827 266.319 827 c 256
 134.938 827 99.3193 779.817 99.3193 746 c 256
 99.3193 712.768 126.503 683.519 152.319 668 c 257
 153.319 637 l 257
 125.319 646 l 257
 94.6328 665.896 62.3193 703.395 62.3193 746 c 256
33 220 m 256
 33 419.134 108.666 486 196.061 486 c 256
 287.595 486 331 436.897 331 344 c 256
 331 247 257 228 257 137 c 256
 257 65.1299 303.975 39 357 39 c 256
 458.697 39 485.619 145.855 485.619 293 c 256
 485.619 582 358.159 651 239.319 651 c 256
 169.38 651 127.833 621.477 89.3193 591 c 257
 65.3193 620 l 257
 113.878 663.099 183.16 688 239.319 688 c 256
 376.012 688 522.619 611.869 522.619 293 c 256
 522.619 125 487.952 3 357 3 c 256
 262.843 3 221.114 58.3154 221.114 137 c 256
 221.114 241 295 258 295 344 c 256
 295 413.346 263.175 450 196.061 450 c 256
 128.497 450 70 392.184 70 220 c 256
 70 105.193 95.7783 39 155 39 c 256
 193.885 39 220.538 79 227 115 c 257
 257 108 l 257
 247.556 52 216.124 3 155 3 c 256
 70 3 33 82.3594 33 220 c 256
EndSplineSet
EndChar

StartChar: si_BRI
Encoding: 15 -1 15
GlifName: si_B_R_I_
Width: 555
VWidth: 0
GlyphClass: 2
Flags: W
LayerCount: 2
Back
Fore
SplineSet
37.6201 -104 m 256
 74.6201 -104 l 256
 74.6201 -187.151 154.12 -244 272.119 -244 c 256
 390.119 -244 469.619 -187.151 469.619 -104 c 256
 469.619 -39.4941 449.578 -4.05957 417.175 19 c 257
 413.619 42 l 257
 442.64 41 l 257
 482.097 12.6338 506.619 -33.1064 506.619 -104 c 256
 506.619 -213.491 404.739 -281 272.119 -281 c 256
 139.5 -281 37.6201 -213.491 37.6201 -104 c 256
61.8867 720.999 m 256
 61.8867 785.999 110.396 863.999 270.887 863.999 c 256
 408.887 863.999 486.887 802.685 486.887 715.999 c 256
 486.887 649.999 447.887 605.999 382.887 593.999 c 257
 352.887 602.999 l 257
 374.887 627.999 l 257
 421.762 636.654 449.887 668.393 449.887 715.999 c 256
 449.887 781.013 385.248 826.999 270.887 826.999 c 256
 139.505 826.999 98.8867 772.999 98.8867 720.999 c 256
 98.8867 679.742 122.721 644.999 175.721 644.999 c 256
 207.309 644.999 245.464 646.999 258.721 646.999 c 257
 274.721 629.999 l 257
 258.721 609.999 l 257
 218.979 609.999 210.651 607.999 175.721 607.999 c 256
 121.721 607.999 61.8867 644.62 61.8867 720.999 c 256
33 220 m 256
 33 419.134 108.666 486 196.061 486 c 256
 287.595 486 331 436.897 331 344 c 256
 331 247 257 228 257 137 c 256
 257 65.1299 303.975 39 357 39 c 256
 458.697 39 485.619 145.855 485.619 293 c 256
 485.619 507.777 434.592 609.999 258.721 609.999 c 257
 258.721 646.999 l 257
 463.271 646.999 522.619 532.846 522.619 293 c 256
 522.619 125 487.952 3 357 3 c 256
 262.843 3 221.114 58.3154 221.114 137 c 256
 221.114 241 295 258 295 344 c 256
 295 413.346 263.175 450 196.061 450 c 256
 128.497 450 70 392.184 70 220 c 256
 70 105.193 95.7783 39 155 39 c 256
 193.885 39 220.538 79 227 115 c 257
 257 108 l 257
 247.556 52 216.124 3 155 3 c 256
 70 3 33 82.3594 33 220 c 256
EndSplineSet
EndChar

StartChar: si_BRIi
Encoding: 16 -1 16
GlifName: si_B_R_I_i
Width: 555
VWidth: 0
GlyphClass: 2
Flags: W
LayerCount: 2
Back
Fore
SplineSet
37.6201 -104 m 256
 74.6201 -104 l 256
 74.6201 -187.151 154.12 -244 272.119 -244 c 256
 390.119 -244 469.619 -187.151 469.619 -104 c 256
 469.619 -39.4941 449.578 -4.05957 417.175 19 c 257
 413.619 42 l 257
 442.64 41 l 257
 482.097 12.6338 506.619 -33.1064 506.619 -104 c 256
 506.619 -213.491 404.739 -281 272.119 -281 c 256
 139.5 -281 37.6201 -213.491 37.6201 -104 c 256
327.506 700.978 m 256
 327.506 668.417 353.505 641.487 386.405 641.487 c 256
 419.283 641.487 445.305 668.411 445.305 700.978 c 256
 445.305 733.537 419.307 760.469 386.405 760.469 c 256
 353.526 760.469 327.506 733.543 327.506 700.978 c 256
289.047 700.999 m 256
 289.047 754.755 332.213 797.92 385.968 797.92 c 256
 444.887 797.92 482.887 744.999 482.887 700.999 c 256
 482.887 647.244 439.72 604.078 385.968 604.078 c 256
 332.213 604.078 289.047 647.244 289.047 700.999 c 256
61.8867 720.999 m 256
 61.8867 785.999 110.396 863.999 270.887 863.999 c 256
 408.887 863.999 486.887 802.685 486.887 715.999 c 256
 486.887 682.019 475.297 650.03 453.887 630.999 c 256
 435.887 614.999 410.302 604.078 385.968 604.078 c 257
 355.968 613.078 l 257
 377.968 638.078 l 257
 430.887 638.078 449.887 673.845 449.887 715.999 c 256
 449.887 796.999 385.248 826.999 270.887 826.999 c 256
 139.505 826.999 98.8867 772.999 98.8867 720.999 c 256
 98.8867 679.742 122.721 644.999 175.721 644.999 c 256
 207.309 644.999 245.464 646.999 258.721 646.999 c 257
 274.721 629.999 l 257
 258.721 609.999 l 257
 218.979 609.999 210.651 607.999 175.721 607.999 c 256
 121.721 607.999 61.8867 644.62 61.8867 720.999 c 256
33 220 m 256
 33 419.134 108.666 486 196.061 486 c 256
 287.595 486 331 436.897 331 344 c 256
 331 247 257 228 257 137 c 256
 257 65.1299 303.975 39 357 39 c 256
 458.697 39 485.619 145.855 485.619 293 c 256
 485.619 507.777 434.592 609.999 258.721 609.999 c 257
 258.721 646.999 l 257
 463.271 646.999 522.619 532.846 522.619 293 c 256
 522.619 125 487.952 3 357 3 c 256
 262.843 3 221.114 58.3154 221.114 137 c 256
 221.114 241 295 258 295 344 c 256
 295 413.346 263.175 450 196.061 450 c 256
 128.497 450 70 392.184 70 220 c 256
 70 105.193 95.7783 39 155 39 c 256
 193.885 39 220.538 79 227 115 c 257
 257 108 l 257
 247.556 52 216.124 3 155 3 c 256
 70 3 33 82.3594 33 220 c 256
EndSplineSet
EndChar

StartChar: si_BRa
Encoding: 17 -1 17
GlifName: si_B_R_a
Width: 555
VWidth: 0
GlyphClass: 2
Flags: W
LayerCount: 2
Back
Fore
SplineSet
37.6201 -104 m 256
 74.6201 -104 l 256
 74.6201 -187.151 154.12 -244 272.119 -244 c 256
 390.119 -244 469.619 -187.151 469.619 -104 c 256
 469.619 -39.4941 449.578 -4.05957 417.175 19 c 257
 413.619 42 l 257
 442.64 41 l 257
 482.097 12.6338 506.619 -33.1064 506.619 -104 c 256
 506.619 -213.491 404.739 -281 272.119 -281 c 256
 139.5 -281 37.6201 -213.491 37.6201 -104 c 256
33 220 m 256
 33 419.134 108.666 486 196.061 486 c 256
 287.595 486 331 436.897 331 344 c 256
 331 247 257 228 257 137 c 256
 257 65.1299 303.975 39 357 39 c 256
 458.697 39 485.619 145.855 485.619 293 c 256
 485.619 576.887 411.168 712 258.062 712 c 256
 187.19 712 118.714 665.927 95.3896 605 c 257
 61.3896 618 l 257
 89.5889 692.593 172.377 749 258.062 749 c 256
 436.062 749 522.619 601.955 522.619 293 c 256
 522.619 125 487.952 3 357 3 c 256
 262.843 3 221.114 58.3154 221.114 137 c 256
 221.114 241 295 258 295 344 c 256
 295 413.346 263.175 450 196.061 450 c 256
 128.497 450 70 392.184 70 220 c 256
 70 105.193 95.7783 39 155 39 c 256
 193.885 39 220.538 79 227 115 c 257
 257 108 l 257
 247.556 52 216.124 3 155 3 c 256
 70 3 33 82.3594 33 220 c 256
EndSplineSet
EndChar

StartChar: si_BU
Encoding: 18 -1 18
GlifName: si_B_U_
Width: 555
VWidth: 0
GlyphClass: 2
Flags: W
LayerCount: 2
Back
Fore
SplineSet
56.8701 -123.687 m 256
 56.8701 -104.944 59.8105 -84.6562 63.6016 -65 c 257
 99.5879 -69 l 257
 96.3535 -84.7646 93.6602 -101.793 93.6602 -117.069 c 256
 93.6602 -143.697 101.845 -165 129.619 -165 c 258
 452.619 -165 l 257
 452.619 -202 l 257
 129.619 -202 l 258
 72.5469 -202 56.8701 -166.963 56.8701 -123.687 c 256
444.619 20 m 257
 449.619 61 l 257
 481.619 84 l 257
 481.619 -202 l 257
 444.619 -202 l 257
 444.619 20 l 257
33 220 m 256
 33 419.134 108.666 486 196.061 486 c 256
 287.595 486 331 436.897 331 344 c 256
 331 247 257 228 257 137 c 256
 257 65.1299 303.975 39 357 39 c 256
 458.697 39 485.619 145.855 485.619 293 c 256
 485.619 576.887 411.168 712 258.062 712 c 256
 187.19 712 118.714 665.927 95.3896 605 c 257
 61.3896 618 l 257
 89.5889 692.593 172.377 749 258.062 749 c 256
 436.062 749 522.619 601.955 522.619 293 c 256
 522.619 125 487.952 3 357 3 c 256
 262.843 3 221.114 58.3154 221.114 137 c 256
 221.114 241 295 258 295 344 c 256
 295 413.346 263.175 450 196.061 450 c 256
 128.497 450 70 392.184 70 220 c 256
 70 105.193 95.7783 39 155 39 c 256
 193.885 39 220.538 79 227 115 c 257
 257 108 l 257
 247.556 52 216.124 3 155 3 c 256
 70 3 33 82.3594 33 220 c 256
EndSplineSet
EndChar

StartChar: si_BUu
Encoding: 19 -1 19
GlifName: si_B_U_u
Width: 555
VWidth: 0
GlyphClass: 2
Flags: W
LayerCount: 2
Back
Fore
SplineSet
56.8701 -123.687 m 256
 56.8701 -104.944 59.8105 -84.6562 63.6016 -65 c 257
 99.5879 -69 l 257
 96.3535 -84.7646 93.6602 -101.793 93.6602 -117.069 c 256
 93.6602 -143.697 110.329 -165 140.619 -165 c 256
 207.588 -165 273.715 -94 339.842 -94 c 256
 384.387 -94 428.932 -115.25 473.619 -179 c 257
 444.619 -202 l 257
 409.47 -148.75 374.656 -131 339.842 -131 c 256
 274.274 -131 208.708 -202 140.619 -202 c 256
 92.5293 -202 56.8701 -166.963 56.8701 -123.687 c 256
444.619 20 m 257
 449.619 61 l 257
 481.619 84 l 257
 481.619 -202 l 257
 444.619 -202 l 257
 444.619 20 l 257
33 220 m 256
 33 419.134 108.666 486 196.061 486 c 256
 287.595 486 331 436.897 331 344 c 256
 331 247 257 228 257 137 c 256
 257 65.1299 303.975 39 357 39 c 256
 458.697 39 485.619 145.855 485.619 293 c 256
 485.619 576.887 411.168 712 258.062 712 c 256
 187.19 712 118.714 665.927 95.3896 605 c 257
 61.3896 618 l 257
 89.5889 692.593 172.377 749 258.062 749 c 256
 436.062 749 522.619 601.955 522.619 293 c 256
 522.619 125 487.952 3 357 3 c 256
 262.843 3 221.114 58.3154 221.114 137 c 256
 221.114 241 295 258 295 344 c 256
 295 413.346 263.175 450 196.061 450 c 256
 128.497 450 70 392.184 70 220 c 256
 70 105.193 95.7783 39 155 39 c 256
 193.885 39 220.538 79 227 115 c 257
 257 108 l 257
 247.556 52 216.124 3 155 3 c 256
 70 3 33 82.3594 33 220 c 256
EndSplineSet
EndChar

StartChar: si_Ba
Encoding: 20 3510 20
GlifName: si_B_a
Width: 555
VWidth: 0
GlyphClass: 2
Flags: W
LayerCount: 2
Back
Fore
SplineSet
33 220 m 256
 33 419.134 108.666 486 196.061 486 c 256
 287.595 486 331 436.897 331 344 c 256
 331 247 257 228 257 137 c 256
 257 65.1299 303.975 39 357 39 c 256
 458.697 39 485.619 145.855 485.619 293 c 256
 485.619 576.887 411.168 712 258.062 712 c 256
 187.19 712 118.714 665.927 95.3896 605 c 257
 61.3896 618 l 257
 89.5889 692.593 172.377 749 258.062 749 c 256
 436.062 749 522.619 601.955 522.619 293 c 256
 522.619 125 487.952 3 357 3 c 256
 262.843 3 221.114 58.3154 221.114 137 c 256
 221.114 241 295 258 295 344 c 256
 295 413.346 263.175 450 196.061 450 c 256
 128.497 450 70 392.184 70 220 c 256
 70 105.193 95.7783 39 155 39 c 256
 193.885 39 220.538 79 227 115 c 257
 257 108 l 257
 247.556 52 216.124 3 155 3 c 256
 70 3 33 82.3594 33 220 c 256
EndSplineSet
EndChar

StartChar: si_Ba.reph
Encoding: 21 -1 21
GlifName: si_B_a.reph
Width: 555
VWidth: 0
GlyphClass: 2
Flags: W
LayerCount: 2
Back
Fore
SplineSet
121.376 706.571 m 256
 121.376 788.24 175.656 845.829 260.376 845.829 c 256
 349.014 845.829 416.308 786.899 416.308 690 c 256
 416.308 657.434 406.154 611.149 377.001 575 c 257
 348.698 597 l 257
 372.954 626.813 379.342 663.645 379.342 690 c 256
 379.342 760.589 335.512 808.829 260.376 808.829 c 256
 195.77 808.829 154.376 766.541 154.376 706.571 c 256
 154.376 686.869 171.973 638.414 182.376 628 c 257
 213.376 611 l 257
 181.376 599 l 257
 143.376 615 121.376 653.939 121.376 706.571 c 256
162.74 681.764 m 256
 162.74 651.068 187.681 626.128 218.376 626.128 c 256
 249.071 626.128 274.012 651.068 274.012 681.764 c 256
 274.012 712.459 249.071 737.399 218.376 737.399 c 256
 187.681 737.399 162.74 712.459 162.74 681.764 c 256
135.376 682 m 256
 135.376 730.552 172.583 770 218.376 770 c 256
 268.452 770 309.14 730.445 309.14 681.764 c 256
 309.14 631.688 268.452 591 218.376 591 c 256
 172.583 591 135.376 631.793 135.376 682 c 256
61.3896 618 m 257
 75.3828 655.014 102.816 687.55 137.376 710.938 c 257
 150.376 675.356 l 256
 125.506 656.803 105.881 632.404 95.3896 605 c 257
 61.3896 618 l 257
33 220 m 256
 33 419.134 108.666 486 196.061 486 c 256
 287.595 486 331 436.897 331 344 c 256
 331 247 257 228 257 137 c 256
 257 65.1299 303.975 39 357 39 c 256
 458.697 39 485.619 145.855 485.619 293 c 256
 485.619 481.787 452.694 604.782 385.607 666 c 257
 409.711 696 l 257
 485.441 628.42 522.619 495.481 522.619 293 c 256
 522.619 125 487.952 3 357 3 c 256
 262.843 3 221.114 58.3154 221.114 137 c 256
 221.114 241 295 258 295 344 c 256
 295 413.346 263.175 450 196.061 450 c 256
 128.497 450 70 392.184 70 220 c 256
 70 105.193 95.7783 39 155 39 c 256
 193.885 39 220.538 79 227 115 c 257
 257 108 l 257
 247.556 52 216.124 3 155 3 c 256
 70 3 33 82.3594 33 220 c 256
EndSplineSet
EndChar

StartChar: si_Bh.halant
Encoding: 23 -1 23
GlifName: si_B_h.halant
Width: 677
VWidth: 0
GlyphClass: 2
Flags: W
LayerCount: 2
Back
Fore
SplineSet
498 637.844 m 257
 505 671.844 l 257
 512.02 670.582 524.299 667.038 542 667.038 c 256
 577.928 667.038 609 687.844 609 748.844 c 256
 609 828.142 549.5 828.844 524 828.844 c 256
 520.98 828.844 515 828.844 515 828.844 c 257
 497 847.844 l 257
 524 862.844 l 257
 560 862.844 644 861.844 644 748.844 c 256
 644 663.844 596.695 632.038 542 632.038 c 256
 527.592 632.038 512.755 633.953 498 637.844 c 257
489 862.844 m 257
 524 862.844 l 257
 524 854.844 l 257
 520 838.844 l 257
 520 661.844 l 257
 524 641.844 l 257
 524 543.844 l 257
 489 543.844 l 257
 489 862.844 l 257
238 238 m 257
 286.028 264.464 291.285 324.425 291.285 368.48 c 256
 291.285 478.833 322.679 580.844 440 580.844 c 256
 532.438 580.844 615.372 527.844 615.372 291.844 c 256
 615.372 56.8438 533.041 2.84375 447 2.84375 c 256
 391.235 2.84375 354.761 31.5254 336 70.6406 c 257
 359.372 122.844 l 257
 362.372 82.8438 394.372 39.8438 447 39.8438 c 256
 513.878 39.8438 577.872 86.9307 577.872 291.844 c 256
 577.872 497.629 513.701 543.844 440 543.844 c 256
 345.588 543.844 328.48 455.258 328.48 362.739 c 256
 328.48 310.831 320.737 240.182 250 209 c 257
 238 238 l 257
42.8701 200.987 m 256
 42.8701 222.746 45.2217 245.831 50.083 270 c 256
 58.8154 313.411 74.7969 351.78 96.4805 369 c 257
 32.7578 369 l 257
 32.7578 405 l 257
 318 405 l 257
 318 369 l 257
 190.33 369 l 258
 124.705 369 96.7959 316.259 86.2842 264 c 256
 82.1162 243.278 80.1074 223.495 80.1074 204.875 c 256
 80.1074 106.07 136.65 40 227 40 c 256
 315.861 40 349 103.167 349 158 c 256
 349 200.669 333.596 231.955 304.523 231.955 c 256
 295.356 231.955 284.83 228.845 273 222 c 257
 264 249 l 257
 281.493 257.285 297.624 261.202 312.036 261.202 c 256
 357.606 261.202 386 222.041 386 158 c 256
 386 85.9736 342.812 3 227 3 c 256
 112.904 3 42.8701 82.2285 42.8701 200.987 c 256
73.4492 474 m 256
 73.4492 553 133.052 591 189.758 591 c 256
 251.819 591 309.5 555.987 320.521 480 c 256
 321.709 471.812 322.331 463.148 322.331 454 c 256
 322.331 422.535 318.758 399 309.758 372 c 257
 288.331 402 l 257
 288.331 416 288.331 435 288.331 454 c 256
 288.331 523.372 242.467 555 189.758 555 c 256
 150.603 555 109.449 528.692 109.449 474 c 256
 109.449 432 126.795 406 135.925 396 c 257
 113.925 376 l 257
 101.925 387 73.4492 419 73.4492 474 c 256
EndSplineSet
EndChar

StartChar: si_BhI
Encoding: 24 -1 24
GlifName: si_B_hI_
Width: 648
VWidth: 0
GlyphClass: 2
Flags: W
LayerCount: 2
Back
Fore
SplineSet
98.9482 685.844 m 256
 98.9482 795.335 200.828 862.844 333.447 862.844 c 256
 466.067 862.844 567.947 795.335 567.947 685.844 c 256
 567.947 634.824 536.937 577.358 489.281 555.844 c 257
 465.281 560.844 l 257
 465.281 578.844 l 257
 505.062 596.552 530.947 643.851 530.947 685.844 c 256
 530.947 768.995 451.447 825.844 333.447 825.844 c 256
 215.448 825.844 135.948 768.995 135.948 685.844 c 256
 135.948 643.851 161.834 596.552 201.614 578.844 c 257
 201.614 560.844 l 257
 177.614 555.844 l 257
 129.959 577.358 98.9482 634.824 98.9482 685.844 c 256
238.242 238 m 257
 286.271 264.464 291.527 324.425 291.527 368.48 c 256
 291.527 478.833 322.921 580.844 440.242 580.844 c 256
 532.681 580.844 615.614 527.844 615.614 291.844 c 256
 615.614 56.8438 533.283 2.84375 447.242 2.84375 c 256
 391.478 2.84375 355.003 31.5254 336.242 70.6406 c 257
 359.614 122.844 l 257
 362.614 82.8438 394.614 39.8438 447.242 39.8438 c 256
 514.12 39.8438 578.114 86.9307 578.114 291.844 c 256
 578.114 497.629 513.943 543.844 440.242 543.844 c 256
 345.83 543.844 328.723 455.258 328.723 362.739 c 256
 328.723 310.831 320.979 240.182 250.242 209 c 257
 238.242 238 l 257
43.1123 200.987 m 256
 43.1123 222.746 45.4635 245.831 50.3252 270 c 256
 59.0576 313.411 75.0391 351.78 96.7227 369 c 257
 33 369 l 257
 33 405 l 257
 318.242 405 l 257
 318.242 369 l 257
 190.572 369 l 258
 124.947 369 97.0377 316.259 86.5264 264 c 256
 82.3584 243.278 80.3496 223.495 80.3496 204.875 c 256
 80.3496 106.07 136.893 40 227.242 40 c 256
 316.104 40 349.242 103.167 349.242 158 c 256
 349.242 200.669 333.838 231.955 304.766 231.955 c 256
 295.599 231.955 285.072 228.845 273.242 222 c 257
 264.242 249 l 257
 281.735 257.285 297.866 261.202 312.278 261.202 c 256
 357.849 261.202 386.242 222.041 386.242 158 c 256
 386.242 85.9736 343.054 3 227.242 3 c 256
 113.146 3 43.1123 82.2285 43.1123 200.987 c 256
73.6914 474 m 256
 73.6914 553 133.294 591 190 591 c 256
 252.062 591 309.743 555.987 320.764 480 c 256
 321.951 471.812 322.573 463.148 322.573 454 c 256
 322.573 422.535 319 399 310 372 c 257
 288.573 402 l 257
 288.573 416 288.573 435 288.573 454 c 256
 288.573 523.372 242.709 555 190 555 c 256
 150.845 555 109.691 528.692 109.691 474 c 256
 109.691 432 127.037 406 136.167 396 c 257
 114.167 376 l 257
 102.167 387 73.6914 419 73.6914 474 c 256
EndSplineSet
EndChar

StartChar: si_BhIi
Encoding: 25 -1 25
GlifName: si_B_hI_i
Width: 648
VWidth: 0
GlyphClass: 2
Flags: W
LayerCount: 2
Back
Fore
SplineSet
406.814 654.743 m 256
 406.814 622.183 432.813 595.253 465.714 595.253 c 256
 498.592 595.253 524.613 622.177 524.613 654.743 c 256
 524.613 687.303 498.615 714.234 465.714 714.234 c 256
 432.835 714.234 406.814 687.309 406.814 654.743 c 256
368.355 654.765 m 256
 368.355 708.521 411.521 751.686 465.276 751.686 c 256
 506.832 751.686 538.687 719.264 542.613 688.844 c 257
 555.279 678.114 562.195 666.011 562.195 654.765 c 256
 562.195 601.01 519.028 557.844 465.276 557.844 c 256
 411.521 557.844 368.355 601.01 368.355 654.765 c 256
98.9482 685.844 m 256
 98.9482 795.335 200.828 862.844 333.447 862.844 c 256
 466.067 862.844 567.947 795.335 567.947 685.844 c 256
 567.947 636.002 551.613 568.844 478.613 558.844 c 257
 449.948 564.765 l 257
 466.948 586.765 l 257
 502.881 590.817 524.454 608.469 531.613 636.844 c 256
 535.613 652.697 535.613 670.371 535.613 685.844 c 257
 535.613 768.995 454.235 825.844 333.447 825.844 c 256
 215.448 825.844 135.948 768.995 135.948 685.844 c 256
 135.948 643.851 161.834 596.552 201.614 578.844 c 257
 201.614 560.844 l 257
 177.614 555.844 l 257
 129.959 577.358 98.9482 634.824 98.9482 685.844 c 256
238.242 238 m 257
 286.271 264.464 291.527 324.425 291.527 368.48 c 256
 291.527 478.833 322.921 580.844 440.242 580.844 c 256
 532.681 580.844 615.614 527.844 615.614 291.844 c 256
 615.614 56.8438 533.283 2.84375 447.242 2.84375 c 256
 391.478 2.84375 355.003 31.5254 336.242 70.6406 c 257
 359.614 122.844 l 257
 362.614 82.8438 394.614 39.8438 447.242 39.8438 c 256
 514.12 39.8438 578.114 86.9307 578.114 291.844 c 256
 578.114 497.629 513.943 543.844 440.242 543.844 c 256
 345.83 543.844 328.723 455.258 328.723 362.739 c 256
 328.723 310.831 320.979 240.182 250.242 209 c 257
 238.242 238 l 257
43.1123 200.987 m 256
 43.1123 222.746 45.4635 245.831 50.3252 270 c 256
 59.0576 313.411 75.0391 351.78 96.7227 369 c 257
 33 369 l 257
 33 405 l 257
 318.242 405 l 257
 318.242 369 l 257
 190.572 369 l 258
 124.947 369 97.0377 316.259 86.5264 264 c 256
 82.3584 243.278 80.3496 223.495 80.3496 204.875 c 256
 80.3496 106.07 136.893 40 227.242 40 c 256
 316.104 40 349.242 103.167 349.242 158 c 256
 349.242 200.669 333.838 231.955 304.766 231.955 c 256
 295.599 231.955 285.072 228.845 273.242 222 c 257
 264.242 249 l 257
 281.735 257.285 297.866 261.202 312.278 261.202 c 256
 357.849 261.202 386.242 222.041 386.242 158 c 256
 386.242 85.9736 343.054 3 227.242 3 c 256
 113.146 3 43.1123 82.2285 43.1123 200.987 c 256
73.6914 474 m 256
 73.6914 553 133.294 591 190 591 c 256
 252.062 591 309.743 555.987 320.764 480 c 256
 321.951 471.812 322.573 463.148 322.573 454 c 256
 322.573 422.535 319 399 310 372 c 257
 288.573 402 l 257
 288.573 416 288.573 435 288.573 454 c 256
 288.573 523.372 242.709 555 190 555 c 256
 150.845 555 109.691 528.692 109.691 474 c 256
 109.691 432 127.037 406 136.167 396 c 257
 114.167 376 l 257
 102.167 387 73.6914 419 73.6914 474 c 256
EndSplineSet
EndChar

StartChar: si_BhRI
Encoding: 26 -1 26
GlifName: si_B_hR_I_
Width: 648
VWidth: 0
GlyphClass: 2
Flags: W
LayerCount: 2
Back
Fore
SplineSet
102.948 -104.156 m 256
 139.948 -104.156 l 256
 139.948 -187.308 219.448 -244.156 337.447 -244.156 c 256
 455.447 -244.156 534.947 -187.308 534.947 -104.156 c 256
 534.947 -42.3838 516.569 -7.27246 486.556 15.8438 c 257
 487.614 37.8438 l 257
 519.303 31.8438 l 257
 552.066 3.11719 571.947 -40.3232 571.947 -104.156 c 256
 571.947 -213.647 470.067 -281.156 337.447 -281.156 c 256
 204.828 -281.156 102.948 -213.647 102.948 -104.156 c 256
98.9482 685.844 m 256
 98.9482 795.335 200.828 862.844 333.447 862.844 c 256
 466.067 862.844 567.947 795.335 567.947 685.844 c 256
 567.947 634.824 536.937 577.358 489.281 555.844 c 257
 465.281 560.844 l 257
 465.281 578.844 l 257
 505.062 596.552 530.947 643.851 530.947 685.844 c 256
 530.947 768.995 451.447 825.844 333.447 825.844 c 256
 215.448 825.844 135.948 768.995 135.948 685.844 c 256
 135.948 643.851 161.834 596.552 201.614 578.844 c 257
 201.614 560.844 l 257
 177.614 555.844 l 257
 129.959 577.358 98.9482 634.824 98.9482 685.844 c 256
238.242 238 m 257
 286.271 264.464 291.527 324.425 291.527 368.48 c 256
 291.527 478.833 322.921 580.844 440.242 580.844 c 256
 532.681 580.844 615.614 527.844 615.614 291.844 c 256
 615.614 56.8438 533.283 2.84375 447.242 2.84375 c 256
 391.478 2.84375 355.003 31.5254 336.242 70.6406 c 257
 359.614 122.844 l 257
 362.614 82.8438 394.614 39.8438 447.242 39.8438 c 256
 514.12 39.8438 578.114 86.9307 578.114 291.844 c 256
 578.114 497.629 513.943 543.844 440.242 543.844 c 256
 345.83 543.844 328.723 455.258 328.723 362.739 c 256
 328.723 310.831 320.979 240.182 250.242 209 c 257
 238.242 238 l 257
43.1123 200.987 m 256
 43.1123 222.746 45.4635 245.831 50.3252 270 c 256
 59.0576 313.411 75.0391 351.78 96.7227 369 c 257
 33 369 l 257
 33 405 l 257
 318.242 405 l 257
 318.242 369 l 257
 190.572 369 l 258
 124.947 369 97.0377 316.259 86.5264 264 c 256
 82.3584 243.278 80.3496 223.495 80.3496 204.875 c 256
 80.3496 106.07 136.893 40 227.242 40 c 256
 316.104 40 349.242 103.167 349.242 158 c 256
 349.242 200.669 333.838 231.955 304.766 231.955 c 256
 295.599 231.955 285.072 228.845 273.242 222 c 257
 264.242 249 l 257
 281.735 257.285 297.866 261.202 312.278 261.202 c 256
 357.849 261.202 386.242 222.041 386.242 158 c 256
 386.242 85.9736 343.054 3 227.242 3 c 256
 113.146 3 43.1123 82.2285 43.1123 200.987 c 256
73.6914 474 m 256
 73.6914 553 133.294 591 190 591 c 256
 252.062 591 309.743 555.987 320.764 480 c 256
 321.951 471.812 322.573 463.148 322.573 454 c 256
 322.573 422.535 319 399 310 372 c 257
 288.573 402 l 257
 288.573 416 288.573 435 288.573 454 c 256
 288.573 523.372 242.709 555 190 555 c 256
 150.845 555 109.691 528.692 109.691 474 c 256
 109.691 432 127.037 406 136.167 396 c 257
 114.167 376 l 257
 102.167 387 73.6914 419 73.6914 474 c 256
EndSplineSet
EndChar

StartChar: si_BhRIi
Encoding: 27 -1 27
GlifName: si_B_hR_I_i
Width: 648
VWidth: 0
GlyphClass: 2
Flags: W
LayerCount: 2
Back
Fore
SplineSet
102.948 -104.156 m 256
 139.948 -104.156 l 256
 139.948 -187.308 219.448 -244.156 337.447 -244.156 c 256
 455.447 -244.156 534.947 -187.308 534.947 -104.156 c 256
 534.947 -42.3838 516.569 -7.27246 486.556 15.8438 c 257
 487.614 37.8438 l 257
 519.303 31.8438 l 257
 552.066 3.11719 571.947 -40.3232 571.947 -104.156 c 256
 571.947 -213.647 470.067 -281.156 337.447 -281.156 c 256
 204.828 -281.156 102.948 -213.647 102.948 -104.156 c 256
406.814 654.743 m 256
 406.814 622.183 432.813 595.253 465.714 595.253 c 256
 498.592 595.253 524.613 622.177 524.613 654.743 c 256
 524.613 687.303 498.615 714.234 465.714 714.234 c 256
 432.835 714.234 406.814 687.309 406.814 654.743 c 256
368.355 654.765 m 256
 368.355 708.521 411.521 751.686 465.276 751.686 c 256
 506.832 751.686 538.687 719.264 542.613 688.844 c 257
 555.279 678.114 562.195 666.011 562.195 654.765 c 256
 562.195 601.01 519.028 557.844 465.276 557.844 c 256
 411.521 557.844 368.355 601.01 368.355 654.765 c 256
98.9482 685.844 m 256
 98.9482 795.335 200.828 862.844 333.447 862.844 c 256
 466.067 862.844 567.947 795.335 567.947 685.844 c 256
 567.947 636.002 551.613 568.844 478.613 558.844 c 257
 449.948 564.765 l 257
 466.948 586.765 l 257
 502.881 590.817 524.454 608.469 531.613 636.844 c 256
 535.613 652.697 535.613 670.371 535.613 685.844 c 257
 535.613 768.995 454.235 825.844 333.447 825.844 c 256
 215.448 825.844 135.948 768.995 135.948 685.844 c 256
 135.948 643.851 161.834 596.552 201.614 578.844 c 257
 201.614 560.844 l 257
 177.614 555.844 l 257
 129.959 577.358 98.9482 634.824 98.9482 685.844 c 256
238.242 238 m 257
 286.271 264.464 291.527 324.425 291.527 368.48 c 256
 291.527 478.833 322.921 580.844 440.242 580.844 c 256
 532.681 580.844 615.614 527.844 615.614 291.844 c 256
 615.614 56.8438 533.283 2.84375 447.242 2.84375 c 256
 391.478 2.84375 355.003 31.5254 336.242 70.6406 c 257
 359.614 122.844 l 257
 362.614 82.8438 394.614 39.8438 447.242 39.8438 c 256
 514.12 39.8438 578.114 86.9307 578.114 291.844 c 256
 578.114 497.629 513.943 543.844 440.242 543.844 c 256
 345.83 543.844 328.723 455.258 328.723 362.739 c 256
 328.723 310.831 320.979 240.182 250.242 209 c 257
 238.242 238 l 257
43.1123 200.987 m 256
 43.1123 222.746 45.4635 245.831 50.3252 270 c 256
 59.0576 313.411 75.0391 351.78 96.7227 369 c 257
 33 369 l 257
 33 405 l 257
 318.242 405 l 257
 318.242 369 l 257
 190.572 369 l 258
 124.947 369 97.0377 316.259 86.5264 264 c 256
 82.3584 243.278 80.3496 223.495 80.3496 204.875 c 256
 80.3496 106.07 136.893 40 227.242 40 c 256
 316.104 40 349.242 103.167 349.242 158 c 256
 349.242 200.669 333.838 231.955 304.766 231.955 c 256
 295.599 231.955 285.072 228.845 273.242 222 c 257
 264.242 249 l 257
 281.735 257.285 297.866 261.202 312.278 261.202 c 256
 357.849 261.202 386.242 222.041 386.242 158 c 256
 386.242 85.9736 343.054 3 227.242 3 c 256
 113.146 3 43.1123 82.2285 43.1123 200.987 c 256
73.6914 474 m 256
 73.6914 553 133.294 591 190 591 c 256
 252.062 591 309.743 555.987 320.764 480 c 256
 321.951 471.812 322.573 463.148 322.573 454 c 256
 322.573 422.535 319 399 310 372 c 257
 288.573 402 l 257
 288.573 416 288.573 435 288.573 454 c 256
 288.573 523.372 242.709 555 190 555 c 256
 150.845 555 109.691 528.692 109.691 474 c 256
 109.691 432 127.037 406 136.167 396 c 257
 114.167 376 l 257
 102.167 387 73.6914 419 73.6914 474 c 256
EndSplineSet
EndChar

StartChar: si_BhRa
Encoding: 28 -1 28
GlifName: si_B_hR_a
Width: 648
VWidth: 0
GlyphClass: 2
Flags: W
LayerCount: 2
Back
Fore
SplineSet
102.948 -104.156 m 256
 139.948 -104.156 l 256
 139.948 -187.308 219.448 -244.156 337.447 -244.156 c 256
 455.447 -244.156 534.947 -187.308 534.947 -104.156 c 256
 534.947 -42.3838 516.569 -7.27246 486.556 15.8438 c 257
 487.614 37.8438 l 257
 519.303 31.8438 l 257
 552.066 3.11719 571.947 -40.3232 571.947 -104.156 c 256
 571.947 -213.647 470.067 -281.156 337.447 -281.156 c 256
 204.828 -281.156 102.948 -213.647 102.948 -104.156 c 256
238.242 238 m 257
 286.271 264.464 291.527 324.425 291.527 368.48 c 256
 291.527 478.833 322.921 580.844 440.242 580.844 c 256
 532.681 580.844 615.614 527.844 615.614 291.844 c 256
 615.614 56.8438 533.283 2.84375 447.242 2.84375 c 256
 391.478 2.84375 355.003 31.5254 336.242 70.6406 c 257
 359.614 122.844 l 257
 362.614 82.8438 394.614 39.8438 447.242 39.8438 c 256
 514.12 39.8438 578.114 86.9307 578.114 291.844 c 256
 578.114 497.629 513.943 543.844 440.242 543.844 c 256
 345.83 543.844 328.723 455.258 328.723 362.739 c 256
 328.723 310.831 320.979 240.182 250.242 209 c 257
 238.242 238 l 257
43.1123 200.987 m 256
 43.1123 222.746 45.4635 245.831 50.3252 270 c 256
 59.0576 313.411 75.0391 351.78 96.7227 369 c 257
 33 369 l 257
 33 405 l 257
 318.242 405 l 257
 318.242 369 l 257
 190.572 369 l 258
 124.947 369 97.0377 316.259 86.5264 264 c 256
 82.3584 243.278 80.3496 223.495 80.3496 204.875 c 256
 80.3496 106.07 136.893 40 227.242 40 c 256
 316.104 40 349.242 103.167 349.242 158 c 256
 349.242 200.669 333.838 231.955 304.766 231.955 c 256
 295.599 231.955 285.072 228.845 273.242 222 c 257
 264.242 249 l 257
 281.735 257.285 297.866 261.202 312.278 261.202 c 256
 357.849 261.202 386.242 222.041 386.242 158 c 256
 386.242 85.9736 343.054 3 227.242 3 c 256
 113.146 3 43.1123 82.2285 43.1123 200.987 c 256
73.6914 474 m 256
 73.6914 553 133.294 591 190 591 c 256
 252.062 591 309.743 555.987 320.764 480 c 256
 321.951 471.812 322.573 463.148 322.573 454 c 256
 322.573 422.535 319 399 310 372 c 257
 288.573 402 l 257
 288.573 416 288.573 435 288.573 454 c 256
 288.573 523.372 242.709 555 190 555 c 256
 150.845 555 109.691 528.692 109.691 474 c 256
 109.691 432 127.037 406 136.167 396 c 257
 114.167 376 l 257
 102.167 387 73.6914 419 73.6914 474 c 256
EndSplineSet
EndChar

StartChar: si_BhRa.halant
Encoding: 29 -1 29
GlifName: si_B_hR_a.halant
Width: 648
VWidth: 0
GlyphClass: 2
Flags: W
LayerCount: 2
Back
Fore
SplineSet
102.948 -104.156 m 256
 139.948 -104.156 l 256
 139.948 -187.308 219.448 -244.156 337.447 -244.156 c 256
 455.447 -244.156 534.947 -187.308 534.947 -104.156 c 256
 534.947 -42.3838 516.569 -7.27246 486.556 15.8438 c 257
 487.614 37.8438 l 257
 519.303 31.8438 l 257
 552.066 3.11719 571.947 -40.3232 571.947 -104.156 c 256
 571.947 -213.647 470.067 -281.156 337.447 -281.156 c 256
 204.828 -281.156 102.948 -213.647 102.948 -104.156 c 256
552.614 637.844 m 257
 559.614 671.844 l 257
 566.634 670.582 578.913 667.038 596.614 667.038 c 256
 632.542 667.038 663.614 687.844 663.614 748.844 c 256
 663.614 828.142 604.114 828.844 578.614 828.844 c 256
 575.595 828.844 569.614 828.844 569.614 828.844 c 257
 551.614 847.844 l 257
 578.614 862.844 l 257
 614.614 862.844 698.614 861.844 698.614 748.844 c 256
 698.614 663.844 651.31 632.038 596.614 632.038 c 256
 582.206 632.038 567.369 633.953 552.614 637.844 c 257
543.614 862.844 m 257
 578.614 862.844 l 257
 578.614 854.844 l 257
 574.614 838.844 l 257
 574.614 661.844 l 257
 578.614 641.844 l 257
 578.614 495.844 l 257
 543.614 495.844 l 257
 543.614 862.844 l 257
238.242 238 m 257
 286.271 264.464 291.527 324.425 291.527 368.48 c 256
 291.527 478.833 322.921 580.844 440.242 580.844 c 256
 532.681 580.844 615.614 527.844 615.614 291.844 c 256
 615.614 56.8438 533.283 2.84375 447.242 2.84375 c 256
 391.478 2.84375 355.003 31.5254 336.242 70.6406 c 257
 359.614 122.844 l 257
 362.614 82.8438 394.614 39.8438 447.242 39.8438 c 256
 514.12 39.8438 578.114 86.9307 578.114 291.844 c 256
 578.114 497.629 513.943 543.844 440.242 543.844 c 256
 345.83 543.844 328.723 455.258 328.723 362.739 c 256
 328.723 310.831 320.979 240.182 250.242 209 c 257
 238.242 238 l 257
43.1123 200.987 m 256
 43.1123 222.746 45.4635 245.831 50.3252 270 c 256
 59.0576 313.411 75.0391 351.78 96.7227 369 c 257
 33 369 l 257
 33 405 l 257
 318.242 405 l 257
 318.242 369 l 257
 190.572 369 l 258
 124.947 369 97.0377 316.259 86.5264 264 c 256
 82.3584 243.278 80.3496 223.495 80.3496 204.875 c 256
 80.3496 106.07 136.893 40 227.242 40 c 256
 316.104 40 349.242 103.167 349.242 158 c 256
 349.242 200.669 333.838 231.955 304.766 231.955 c 256
 295.599 231.955 285.072 228.845 273.242 222 c 257
 264.242 249 l 257
 281.735 257.285 297.866 261.202 312.278 261.202 c 256
 357.849 261.202 386.242 222.041 386.242 158 c 256
 386.242 85.9736 343.054 3 227.242 3 c 256
 113.146 3 43.1123 82.2285 43.1123 200.987 c 256
73.6914 474 m 256
 73.6914 553 133.294 591 190 591 c 256
 252.062 591 309.743 555.987 320.764 480 c 256
 321.951 471.812 322.573 463.148 322.573 454 c 256
 322.573 422.535 319 399 310 372 c 257
 288.573 402 l 257
 288.573 416 288.573 435 288.573 454 c 256
 288.573 523.372 242.709 555 190 555 c 256
 150.845 555 109.691 528.692 109.691 474 c 256
 109.691 432 127.037 406 136.167 396 c 257
 114.167 376 l 257
 102.167 387 73.6914 419 73.6914 474 c 256
EndSplineSet
EndChar

StartChar: si_BhU
Encoding: 30 -1 30
GlifName: si_B_hU_
Width: 664
VWidth: 0
GlyphClass: 2
Flags: W
LayerCount: 2
Back
Fore
SplineSet
414.14 -84.1562 m 256
 414.14 0.407227 452.375 28.4141 485.614 41.8438 c 257
 520.242 34.8438 l 257
 498.614 7.84375 l 257
 476.909 -0.925781 450.14 -22.4111 450.14 -84.1562 c 256
 450.14 -138.385 478.615 -165.156 524.614 -165.156 c 256
 584.113 -165.156 595.614 -108.017 595.614 -74.7959 c 257
 631.614 -74.7959 l 257
 631.614 -123.733 618.545 -201.156 524.614 -201.156 c 256
 456.379 -201.156 414.14 -162.486 414.14 -84.1562 c 256
238.242 238 m 257
 286.271 264.464 291.527 324.425 291.527 368.48 c 256
 291.527 478.833 322.921 580.844 440.242 580.844 c 256
 532.681 580.844 615.614 527.844 615.614 291.844 c 256
 615.614 103.844 583.155 42 498.614 7.84375 c 257
 485.614 41.8438 l 257
 549.163 67.5195 578.114 114.844 578.114 291.844 c 256
 578.114 497.629 513.943 543.844 440.242 543.844 c 256
 345.83 543.844 328.723 455.258 328.723 362.739 c 256
 328.723 310.831 320.979 240.182 250.242 209 c 257
 238.242 238 l 257
43.1123 200.987 m 256
 43.1123 222.746 45.4639 245.831 50.3252 270 c 256
 59.0576 313.411 75.0391 351.78 96.7227 369 c 257
 33 369 l 257
 33 405 l 257
 318.242 405 l 257
 318.242 369 l 257
 190.572 369 l 258
 124.947 369 97.0381 316.259 86.5264 264 c 256
 82.3584 243.278 80.3496 223.495 80.3496 204.875 c 256
 80.3496 106.07 136.893 40 227.242 40 c 256
 316.104 40 349.242 103.167 349.242 158 c 256
 349.242 200.669 333.838 231.955 304.766 231.955 c 256
 295.599 231.955 285.072 228.845 273.242 222 c 257
 264.242 249 l 257
 281.735 257.285 297.866 261.202 312.278 261.202 c 256
 357.849 261.202 386.242 222.041 386.242 158 c 256
 386.242 85.9736 343.054 3 227.242 3 c 256
 113.146 3 43.1123 82.2285 43.1123 200.987 c 256
73.6914 474 m 256
 73.6914 553 133.294 591 190 591 c 256
 252.062 591 309.737 555.986 320.764 480 c 256
 321.951 471.812 322.573 463.148 322.573 454 c 256
 322.573 422.535 319 399 310 372 c 257
 288.573 402 l 257
 288.573 416 288.573 435 288.573 454 c 256
 288.573 523.372 242.709 555 190 555 c 256
 150.845 555 109.691 528.692 109.691 474 c 256
 109.691 432 127.037 406 136.167 396 c 257
 114.167 376 l 257
 102.167 387 73.6914 419 73.6914 474 c 256
EndSplineSet
EndChar

StartChar: si_BhUu
Encoding: 31 -1 31
GlifName: si_B_hU_u
Width: 670
VWidth: 0
GlyphClass: 2
Flags: W
LayerCount: 2
Back
Fore
SplineSet
465 -89.1562 m 256
 465 -32.1377 494.009 8.30078 531.227 32.5283 c 257
 485.234 32.5283 l 257
 485.234 65.5283 l 257
 574 160.954 l 257
 505.657 160.949 l 257
 505.657 194.949 l 257
 620.475 194.949 l 257
 620.475 160.949 l 257
 534 65.5283 l 257
 620.475 65.5283 l 257
 620.475 32.5283 l 257
 617.657 32.5283 l 258
 567.076 32.5283 501 -17.4658 501 -89.1562 c 256
 501 -140.037 526.869 -165.156 568.657 -165.156 c 256
 623.415 -165.156 634 -108.017 634 -74.7959 c 257
 670 -74.7959 l 257
 670 -123.733 657.622 -201.156 568.657 -201.156 c 256
 504.633 -201.156 465 -164.139 465 -89.1562 c 256
238.657 238 m 257
 286.686 264.464 291.942 324.425 291.942 368.48 c 256
 291.942 478.833 323.336 580.844 440.657 580.844 c 256
 533.096 580.844 616.029 537.38 616.029 343.844 c 256
 616.029 195.123 562.06 160.949 505.657 160.949 c 257
 505.657 194.949 l 257
 542.896 194.949 578.529 222.771 578.529 343.844 c 256
 578.529 507.165 514.358 543.844 440.657 543.844 c 256
 346.245 543.844 329.138 455.258 329.138 362.739 c 256
 329.138 310.831 321.395 240.182 250.657 209 c 257
 238.657 238 l 257
43.5273 200.987 m 256
 43.5273 222.746 45.8789 245.831 50.7402 270 c 256
 59.4727 313.411 75.4541 351.78 97.1377 369 c 257
 33.415 369 l 257
 33.415 405 l 257
 318.657 405 l 257
 318.657 369 l 257
 190.987 369 l 258
 125.362 369 97.4531 316.259 86.9414 264 c 256
 82.7734 243.278 80.7646 223.495 80.7646 204.875 c 256
 80.7646 106.07 137.308 40 227.657 40 c 256
 316.519 40 349.657 103.167 349.657 158 c 256
 349.657 200.669 334.253 231.955 305.181 231.955 c 256
 296.014 231.955 285.487 228.845 273.657 222 c 257
 264.657 249 l 257
 282.15 257.285 298.281 261.202 312.693 261.202 c 256
 358.264 261.202 386.657 222.041 386.657 158 c 256
 386.657 85.9736 343.469 3 227.657 3 c 256
 113.562 3 43.5273 82.2285 43.5273 200.987 c 256
74.1064 474 m 256
 74.1064 553 133.709 591 190.415 591 c 256
 252.477 591 310.152 555.986 321.179 480 c 256
 322.366 471.812 322.988 463.148 322.988 454 c 256
 322.988 422.535 319.415 399 310.415 372 c 257
 288.988 402 l 257
 288.988 416 288.988 435 288.988 454 c 256
 288.988 523.372 243.124 555 190.415 555 c 256
 151.26 555 110.106 528.692 110.106 474 c 256
 110.106 432 127.452 406 136.582 396 c 257
 114.582 376 l 257
 102.582 387 74.1064 419 74.1064 474 c 256
EndSplineSet
EndChar

StartChar: si_Bha
Encoding: 32 3511 32
GlifName: si_B_ha
Width: 648
VWidth: 0
GlyphClass: 2
Flags: W
LayerCount: 2
Back
Fore
SplineSet
238.242 238 m 257
 286.271 264.464 291.527 324.425 291.527 368.48 c 256
 291.527 478.833 322.921 580.844 440.242 580.844 c 256
 532.681 580.844 615.614 527.844 615.614 291.844 c 256
 615.614 56.8438 533.283 2.84375 447.242 2.84375 c 256
 391.478 2.84375 355.003 31.5254 336.242 70.6406 c 257
 359.614 122.844 l 257
 362.614 82.8438 394.614 39.8438 447.242 39.8438 c 256
 514.12 39.8438 578.114 86.9307 578.114 291.844 c 256
 578.114 497.629 513.943 543.844 440.242 543.844 c 256
 345.83 543.844 328.723 455.258 328.723 362.739 c 256
 328.723 310.831 320.979 240.182 250.242 209 c 257
 238.242 238 l 257
43.1123 200.987 m 256
 43.1123 222.746 45.4639 245.831 50.3252 270 c 256
 59.0576 313.411 75.0391 351.78 96.7227 369 c 257
 33 369 l 257
 33 405 l 257
 318.242 405 l 257
 318.242 369 l 257
 190.572 369 l 258
 124.947 369 97.0381 316.259 86.5264 264 c 256
 82.3584 243.278 80.3496 223.495 80.3496 204.875 c 256
 80.3496 106.07 136.893 40 227.242 40 c 256
 316.104 40 349.242 103.167 349.242 158 c 256
 349.242 200.669 333.838 231.955 304.766 231.955 c 256
 295.599 231.955 285.072 228.845 273.242 222 c 257
 264.242 249 l 257
 281.735 257.285 297.866 261.202 312.278 261.202 c 256
 357.849 261.202 386.242 222.041 386.242 158 c 256
 386.242 85.9736 343.054 3 227.242 3 c 256
 113.146 3 43.1123 82.2285 43.1123 200.987 c 256
73.6914 474 m 256
 73.6914 553 133.294 591 190 591 c 256
 252.062 591 309.737 555.986 320.764 480 c 256
 321.951 471.812 322.573 463.148 322.573 454 c 256
 322.573 422.535 319 399 310 372 c 257
 288.573 402 l 257
 288.573 416 288.573 435 288.573 454 c 256
 288.573 523.372 242.709 555 190 555 c 256
 150.845 555 109.691 528.692 109.691 474 c 256
 109.691 432 127.037 406 136.167 396 c 257
 114.167 376 l 257
 102.167 387 73.6914 419 73.6914 474 c 256
EndSplineSet
EndChar

StartChar: si_Bha.reph
Encoding: 33 -1 33
GlifName: si_B_ha.reph
Width: 648
VWidth: 0
GlyphClass: 2
Flags: W
LayerCount: 2
Back
Fore
SplineSet
142 666.571 m 256
 142 748.24 198.232 805.829 286 805.829 c 256
 371.796 805.829 436.932 749.925 436.932 658 c 256
 436.932 601.929 410.325 546.861 362.303 516.872 c 257
 348 547 l 257
 391.208 576.885 399.966 626.544 399.966 658 c 256
 399.966 723.836 357.978 768.829 286 768.829 c 256
 218.346 768.829 175 726.541 175 666.571 c 256
 175 646.869 192.597 598.414 203 588 c 257
 234 571 l 257
 202 559 l 257
 164 575 142 613.939 142 666.571 c 256
183.364 641.764 m 256
 183.364 611.068 208.305 586.128 239 586.128 c 256
 269.695 586.128 294.636 611.068 294.636 641.764 c 256
 294.636 672.459 269.695 697.399 239 697.399 c 256
 208.305 697.399 183.364 672.459 183.364 641.764 c 256
156 642 m 256
 156 690.552 193.207 730 239 730 c 256
 289.076 730 329.764 690.445 329.764 641.764 c 256
 329.764 591.688 289.076 551 239 551 c 256
 193.207 551 156 591.793 156 642 c 256
238.242 238 m 257
 286.271 264.464 291.527 324.425 291.527 368.48 c 256
 291.527 478.833 322.921 580.844 440.242 580.844 c 256
 532.681 580.844 615.614 527.844 615.614 291.844 c 256
 615.614 56.8438 533.283 2.84375 447.242 2.84375 c 256
 391.478 2.84375 355.003 31.5254 336.242 70.6406 c 257
 359.614 122.844 l 257
 362.614 82.8438 394.614 39.8438 447.242 39.8438 c 256
 514.12 39.8438 578.114 86.9307 578.114 291.844 c 256
 578.114 497.629 513.943 543.844 440.242 543.844 c 256
 345.83 543.844 328.723 455.258 328.723 362.739 c 256
 328.723 310.831 320.979 240.182 250.242 209 c 257
 238.242 238 l 257
43.1123 200.987 m 256
 43.1123 222.746 45.4635 245.831 50.3252 270 c 256
 59.0576 313.411 75.0391 351.78 96.7227 369 c 257
 33 369 l 257
 33 405 l 257
 318.242 405 l 257
 318.242 369 l 257
 190.572 369 l 258
 124.947 369 97.0377 316.259 86.5264 264 c 256
 82.3584 243.278 80.3496 223.495 80.3496 204.875 c 256
 80.3496 106.07 136.893 40 227.242 40 c 256
 316.104 40 349.242 103.167 349.242 158 c 256
 349.242 200.669 333.838 231.955 304.766 231.955 c 256
 295.599 231.955 285.072 228.845 273.242 222 c 257
 264.242 249 l 257
 281.735 257.285 297.866 261.202 312.278 261.202 c 256
 357.849 261.202 386.242 222.041 386.242 158 c 256
 386.242 85.9736 343.054 3 227.242 3 c 256
 113.146 3 43.1123 82.2285 43.1123 200.987 c 256
73.6914 474 m 256
 73.6914 553 133.294 591 190 591 c 256
 252.062 591 309.743 555.987 320.764 480 c 256
 321.951 471.812 322.573 463.148 322.573 454 c 256
 322.573 422.535 319 399 310 372 c 257
 288.573 402 l 257
 288.573 416 288.573 435 288.573 454 c 256
 288.573 523.372 242.709 555 190 555 c 256
 150.845 555 109.691 528.692 109.691 474 c 256
 109.691 432 127.037 406 136.167 396 c 257
 114.167 376 l 257
 102.167 387 73.6914 419 73.6914 474 c 256
EndSplineSet
EndChar

StartChar: si_C.halant
Encoding: 35 -1 35
GlifName: si_C_.halant
Width: 524
VWidth: 0
GlyphClass: 2
Flags: W
LayerCount: 2
Back
Fore
SplineSet
60.4092 746 m 256
 60.4092 795.266 103.919 864 264.409 864 c 256
 383.409 864 480.409 802.686 480.409 716 c 256
 480.409 663 446.162 625 397.409 606 c 257
 367.409 615 l 257
 389.409 640 l 257
 421.128 653.127 443.409 679.382 443.409 716 c 256
 443.409 781.014 363.025 827 264.409 827 c 256
 133.027 827 97.4092 779.817 97.4092 746 c 256
 97.4092 712.768 124.593 683.519 150.409 668 c 257
 151.409 637 l 257
 123.409 646 l 257
 92.7227 665.896 60.4092 703.395 60.4092 746 c 256
47.2432 207 m 256
 47.2432 309.342 97.2432 349 106.243 354 c 257
 33 354 l 257
 33 389 l 257
 305.52 389 l 257
 313.243 354 l 257
 183.243 354 l 258
 132.243 354 83.2432 296.709 83.2432 208 c 256
 83.2432 142.715 115.394 40 252.243 40 c 256
 380.108 40 453.243 150.519 453.243 354 c 256
 453.243 586.303 356.249 651 237.409 651 c 256
 167.47 651 125.923 621.477 87.4092 591 c 257
 63.4092 620 l 257
 111.968 663.099 181.25 688 237.409 688 c 256
 377.172 688 491.243 615.243 491.243 354 c 256
 491.243 126.541 404.282 3 252.243 3 c 256
 86.2432 3 47.2432 127.726 47.2432 207 c 256
81.2432 420 m 256
 81.2432 488 132.587 524 191.243 524 c 256
 255.8 524 315.688 481.099 315.688 387 c 256
 315.688 375.04 314.802 364.262 313.243 354 c 257
 281.863 379 l 257
 281.771 381.638 281.688 384.229 281.688 387 c 256
 281.688 457.746 239.605 490 191.243 490 c 256
 149.286 490 114.719 467 114.719 420 c 256
 114.719 406.329 117.708 394.165 122.624 384 c 256
 93.7539 370 l 256
 86.4004 384.32 81.2432 401.846 81.2432 420 c 256
EndSplineSet
EndChar

StartChar: si_CI
Encoding: 36 -1 36
GlifName: si_C_I_
Width: 524
VWidth: 0
GlyphClass: 2
Flags: W
LayerCount: 2
Back
Fore
SplineSet
55.166 721 m 256
 55.166 786 103.676 864 264.166 864 c 256
 402.166 864 480.166 802.686 480.166 716 c 256
 480.166 650 441.166 606 376.166 594 c 257
 346.166 603 l 257
 368.166 628 l 257
 415.041 636.655 443.166 668.394 443.166 716 c 256
 443.166 781.014 378.527 827 264.166 827 c 256
 132.784 827 92.166 773 92.166 721 c 256
 92.166 679.743 116 645 169 645 c 256
 200.588 645 238.743 647 252 647 c 257
 268 630 l 257
 252 610 l 257
 212.258 610 203.931 608 169 608 c 256
 115 608 55.166 644.621 55.166 721 c 256
47 207 m 256
 47 309.342 97 349 106 354 c 257
 32.7568 354 l 257
 32.7568 389 l 257
 305.276 389 l 257
 313 354 l 257
 183 354 l 258
 132 354 83 296.709 83 208 c 256
 83 142.715 115.15 40 252 40 c 256
 379.865 40 453 150.519 453 354 c 256
 453 586.303 370.84 610 252 610 c 257
 252 647 l 257
 391.763 647 491 615.243 491 354 c 256
 491 126.541 404.039 3 252 3 c 256
 86 3 47 127.726 47 207 c 256
81 420 m 256
 81 488 132.344 524 191 524 c 256
 255.557 524 315.444 481.099 315.444 387 c 256
 315.444 375.04 314.559 364.262 313 354 c 257
 281.62 379 l 257
 281.527 381.638 281.444 384.229 281.444 387 c 256
 281.444 457.746 239.362 490 191 490 c 256
 149.043 490 114.476 467 114.476 420 c 256
 114.476 406.329 117.465 394.165 122.381 384 c 256
 93.5107 370 l 256
 86.1572 384.32 81 401.846 81 420 c 256
EndSplineSet
EndChar

StartChar: si_CIi
Encoding: 37 -1 37
GlifName: si_C_I_i
Width: 524
VWidth: 0
GlyphClass: 2
Flags: W
LayerCount: 2
Back
Fore
SplineSet
321.028 700.979 m 256
 321.028 668.418 347.027 641.488 379.928 641.488 c 256
 412.806 641.488 438.827 668.412 438.827 700.979 c 256
 438.827 733.538 412.829 760.47 379.928 760.47 c 256
 347.049 760.47 321.028 733.544 321.028 700.979 c 256
282.569 701 m 256
 282.569 754.756 325.735 797.921 379.49 797.921 c 256
 438.409 797.921 476.409 745 476.409 701 c 256
 476.409 647.245 433.242 604.079 379.49 604.079 c 256
 325.735 604.079 282.569 647.245 282.569 701 c 256
55.4092 721 m 256
 55.4092 786 103.919 864 264.409 864 c 256
 402.409 864 480.409 802.686 480.409 716 c 256
 480.409 682.02 468.819 650.031 447.409 631 c 256
 429.409 615 403.824 604.079 379.49 604.079 c 257
 349.49 613.079 l 257
 371.49 638.079 l 257
 424.409 638.079 443.409 673.846 443.409 716 c 256
 443.409 797 378.771 827 264.409 827 c 256
 133.027 827 92.4092 773 92.4092 721 c 256
 92.4092 679.743 116.243 645 169.243 645 c 256
 200.831 645 238.986 647 252.243 647 c 257
 268.243 630 l 257
 252.243 610 l 257
 212.501 610 204.174 608 169.243 608 c 256
 115.243 608 55.4092 644.621 55.4092 721 c 256
47.2432 207 m 256
 47.2432 309.342 97.2432 349 106.243 354 c 257
 33 354 l 257
 33 389 l 257
 305.52 389 l 257
 313.243 354 l 257
 183.243 354 l 258
 132.243 354 83.2432 296.709 83.2432 208 c 256
 83.2432 142.715 115.394 40 252.243 40 c 256
 380.108 40 453.243 150.519 453.243 354 c 256
 453.243 586.303 371.083 610 252.243 610 c 257
 252.243 647 l 257
 392.006 647 491.243 615.243 491.243 354 c 256
 491.243 126.541 404.282 3 252.243 3 c 256
 86.2432 3 47.2432 127.726 47.2432 207 c 256
81.2432 420 m 256
 81.2432 488 132.587 524 191.243 524 c 256
 255.8 524 315.688 481.099 315.688 387 c 256
 315.688 375.04 314.802 364.262 313.243 354 c 257
 281.863 379 l 257
 281.771 381.638 281.688 387 281.688 387 c 258
 281.688 457.746 239.605 490 191.243 490 c 256
 149.286 490 114.719 467 114.719 420 c 256
 114.719 406.329 117.708 394.165 122.624 384 c 256
 93.7539 370 l 256
 86.4004 384.32 81.2432 401.846 81.2432 420 c 256
EndSplineSet
EndChar

StartChar: si_CR.halant
Encoding: 38 -1 38
GlifName: si_C_R_.halant
Width: 524
VWidth: 0
GlyphClass: 2
Flags: W
LayerCount: 2
Back
Fore
SplineSet
44 -104 m 256
 81 -104 l 256
 81 -187.151 157.481 -244 271 -244 c 256
 376.154 -244 447 -187.151 447 -104 c 256
 447 -23.7059 418 20 366 36 c 257
 352 63 l 257
 382 67 l 257
 446 45 484 -13.6604 484 -104 c 256
 484 -213.491 391.461 -281 271 -281 c 256
 142.622 -281 44 -213.491 44 -104 c 256
EndSplineSet
Refer: 35 -1 N 1 0 0 1 0 0 2
EndChar

StartChar: si_CRI
Encoding: 39 -1 39
GlifName: si_C_R_I_
Width: 524
VWidth: 0
GlyphClass: 2
Flags: W
LayerCount: 2
Back
Fore
SplineSet
44 -104 m 256
 81 -104 l 256
 81 -187.151 157.481 -244 271 -244 c 256
 376.154 -244 447 -187.151 447 -104 c 256
 447 -23.7059 418 20 366 36 c 257
 352 63 l 257
 382 67 l 257
 446 45 484 -13.6604 484 -104 c 256
 484 -213.491 391.461 -281 271 -281 c 256
 142.622 -281 44 -213.491 44 -104 c 256
EndSplineSet
Refer: 36 -1 N 1 0 0 1 0 0 2
EndChar

StartChar: si_CRIi
Encoding: 40 -1 40
GlifName: si_C_R_I_i
Width: 524
VWidth: 0
GlyphClass: 2
Flags: W
LayerCount: 2
Back
Fore
SplineSet
44 -104 m 256
 81 -104 l 256
 81 -187.151 157.481 -244 271 -244 c 256
 376.154 -244 447 -187.151 447 -104 c 256
 447 -23.7059 418 20 366 36 c 257
 352 63 l 257
 382 67 l 257
 446 45 484 -13.6604 484 -104 c 256
 484 -213.491 391.461 -281 271 -281 c 256
 142.622 -281 44 -213.491 44 -104 c 256
EndSplineSet
Refer: 37 -1 N 1 0 0 1 0 0 2
EndChar

StartChar: si_CRa
Encoding: 41 -1 41
GlifName: si_C_R_a
Width: 524
VWidth: 0
GlyphClass: 2
Flags: W
LayerCount: 2
Back
Fore
SplineSet
44 -104 m 256
 81 -104 l 256
 81 -187.151 157.481 -244 271 -244 c 256
 376.154 -244 447 -187.151 447 -104 c 256
 447 -23.7059 418 20 366 36 c 257
 352 63 l 257
 382 67 l 257
 446 45 484 -13.6604 484 -104 c 256
 484 -213.491 391.461 -281 271 -281 c 256
 142.622 -281 44 -213.491 44 -104 c 256
47.2432 207 m 256
 47.2432 309.342 97.2432 349 106.243 354 c 257
 33 354 l 257
 33 389 l 257
 305.52 389 l 257
 313.243 354 l 257
 183.243 354 l 258
 132.243 354 83.2432 296.709 83.2432 208 c 256
 83.2432 142.715 115.394 40 252.243 40 c 256
 380.108 40 453.243 150.519 453.243 354 c 256
 453.243 634.015 362.466 712 251.243 712 c 256
 180.371 712 122.567 665.927 99.2432 605 c 257
 65.2432 618 l 257
 103.243 716 191.211 749 251.243 749 c 256
 383.389 749 491.243 662.955 491.243 354 c 256
 491.243 126.541 404.282 3 252.243 3 c 256
 86.2432 3 47.2432 127.726 47.2432 207 c 256
81.2432 420 m 256
 81.2432 488 132.587 524 191.243 524 c 256
 255.8 524 315.688 481.099 315.688 387 c 256
 315.688 375.04 314.802 364.262 313.243 354 c 257
 281.863 379 l 257
 281.771 381.638 281.688 384.229 281.688 387 c 256
 281.688 457.746 239.605 490 191.243 490 c 256
 149.286 490 114.719 467 114.719 420 c 256
 114.719 406.329 117.708 394.165 122.624 384 c 256
 93.7539 370 l 256
 86.4004 384.32 81.2432 401.846 81.2432 420 c 256
EndSplineSet
EndChar

StartChar: si_CU
Encoding: 42 -1 42
GlifName: si_C_U_
Width: 524
VWidth: 0
GlyphClass: 2
Flags: W
LayerCount: 2
Back
Fore
SplineSet
52.4941 -123.687 m 256
 52.4941 -104.944 55.4346 -84.6562 59.2256 -65 c 257
 95.2119 -69 l 257
 91.9775 -84.7646 89.2842 -101.793 89.2842 -117.069 c 256
 89.2842 -143.697 97.4687 -165 125.243 -165 c 258
 448.243 -165 l 257
 448.243 -202 l 257
 125.243 -202 l 258
 68.1709 -202 52.4941 -166.963 52.4941 -123.687 c 256
440.243 161 m 257
 445.243 202 l 257
 477.243 225 l 257
 477.243 -202 l 257
 440.243 -202 l 257
 440.243 161 l 257
47.2432 207 m 256
 47.2432 309.342 97.2432 349 106.243 354 c 257
 33 354 l 257
 33 389 l 257
 305.52 389 l 257
 313.243 354 l 257
 183.243 354 l 258
 132.243 354 83.2432 296.709 83.2432 208 c 256
 83.2432 142.715 115.394 40 252.243 40 c 256
 380.108 40 453.243 150.519 453.243 354 c 256
 453.243 634.015 362.466 712 251.243 712 c 256
 180.371 712 122.567 665.927 99.2432 605 c 257
 65.2432 618 l 257
 103.243 716 191.211 749 251.243 749 c 256
 383.389 749 491.243 662.955 491.243 354 c 256
 491.243 126.541 404.282 3 252.243 3 c 256
 86.2432 3 47.2432 127.726 47.2432 207 c 256
81.2432 420 m 256
 81.2432 488 132.587 524 191.243 524 c 256
 255.8 524 315.688 481.099 315.688 387 c 256
 315.688 375.04 314.802 364.262 313.243 354 c 257
 281.863 379 l 257
 281.771 381.638 281.688 384.229 281.688 387 c 256
 281.688 457.746 239.605 490 191.243 490 c 256
 149.286 490 114.719 467 114.719 420 c 256
 114.719 406.329 117.708 394.165 122.624 384 c 256
 93.7539 370 l 256
 86.4004 384.32 81.2432 401.846 81.2432 420 c 256
EndSplineSet
EndChar

StartChar: si_CUu
Encoding: 43 -1 43
GlifName: si_C_U_u
Width: 524
VWidth: 0
GlyphClass: 2
Flags: W
LayerCount: 2
Back
Fore
SplineSet
52.4941 -123.687 m 256
 52.4941 -104.944 55.4346 -84.6562 59.2256 -65 c 257
 95.2119 -69 l 257
 91.9775 -84.7646 89.2842 -101.793 89.2842 -117.069 c 256
 89.2842 -143.697 105.953 -165 136.243 -165 c 256
 203.212 -165 269.339 -94 335.466 -94 c 256
 380.011 -94 424.556 -115.25 469.243 -179 c 257
 440.243 -202 l 257
 405.094 -148.75 370.28 -131 335.466 -131 c 256
 269.898 -131 204.332 -202 136.243 -202 c 256
 88.1533 -202 52.4941 -166.963 52.4941 -123.687 c 256
440.243 161 m 257
 445.243 202 l 257
 477.243 225 l 257
 477.243 -202 l 257
 440.243 -202 l 257
 440.243 161 l 257
47.2432 207 m 256
 47.2432 309.342 97.2432 349 106.243 354 c 257
 33 354 l 257
 33 389 l 257
 305.52 389 l 257
 313.243 354 l 257
 183.243 354 l 258
 132.243 354 83.2432 296.709 83.2432 208 c 256
 83.2432 142.715 115.394 40 252.243 40 c 256
 380.108 40 453.243 150.519 453.243 354 c 256
 453.243 634.015 362.466 712 251.243 712 c 256
 180.371 712 122.567 665.927 99.2432 605 c 257
 65.2432 618 l 257
 103.243 716 191.211 749 251.243 749 c 256
 383.389 749 491.243 662.955 491.243 354 c 256
 491.243 126.541 404.282 3 252.243 3 c 256
 86.2432 3 47.2432 127.726 47.2432 207 c 256
81.2432 420 m 256
 81.2432 488 132.587 524 191.243 524 c 256
 255.8 524 315.688 481.099 315.688 387 c 256
 315.688 375.04 314.802 364.262 313.243 354 c 257
 281.863 379 l 257
 281.771 381.638 281.688 384.229 281.688 387 c 256
 281.688 457.746 239.605 490 191.243 490 c 256
 149.286 490 114.719 467 114.719 420 c 256
 114.719 406.329 117.708 394.165 122.624 384 c 256
 93.7539 370 l 256
 86.4004 384.32 81.2432 401.846 81.2432 420 c 256
EndSplineSet
EndChar

StartChar: si_Ca
Encoding: 44 3488 44
GlifName: si_C_a
Width: 524
VWidth: 0
GlyphClass: 2
Flags: W
LayerCount: 2
Back
Fore
SplineSet
47.2432 207 m 256
 47.2432 309.342 97.2432 349 106.243 354 c 257
 33 354 l 257
 33 389 l 257
 305.52 389 l 257
 313.243 354 l 257
 183.243 354 l 258
 132.243 354 83.2432 296.709 83.2432 208 c 256
 83.2432 142.715 115.394 40 252.243 40 c 256
 380.108 40 453.243 150.519 453.243 354 c 256
 453.243 634.015 362.466 712 251.243 712 c 256
 180.371 712 122.567 665.927 99.2432 605 c 257
 65.2432 618 l 257
 103.243 716 191.211 749 251.243 749 c 256
 383.389 749 491.243 662.955 491.243 354 c 256
 491.243 126.541 404.282 3 252.243 3 c 256
 86.2432 3 47.2432 127.726 47.2432 207 c 256
81.2432 420 m 256
 81.2432 488 132.587 524 191.243 524 c 256
 255.8 524 315.688 481.099 315.688 387 c 256
 315.688 375.04 314.802 364.262 313.243 354 c 257
 281.863 379 l 257
 281.771 381.638 281.688 384.229 281.688 387 c 256
 281.688 457.746 239.605 490 191.243 490 c 256
 149.286 490 114.719 467 114.719 420 c 256
 114.719 406.329 117.708 394.165 122.624 384 c 256
 93.7539 370 l 256
 86.4004 384.32 81.2432 401.846 81.2432 420 c 256
EndSplineSet
EndChar

StartChar: si_Ca.reph
Encoding: 45 -1 45
GlifName: si_C_a.reph
Width: 524
VWidth: 0
GlyphClass: 2
Flags: W
LayerCount: 2
Back
Fore
SplineSet
125.229 706.571 m 256
 125.229 788.241 179.509 845.829 264.229 845.829 c 256
 352.867 845.829 420.161 786.9 420.161 690 c 256
 420.161 651.203 405.732 596.065 364.303 553 c 257
 338 577 l 257
 373.774 613.225 383.195 657.977 383.195 690 c 256
 383.195 760.589 339.365 808.829 264.229 808.829 c 256
 199.623 808.829 158.229 766.541 158.229 706.571 c 256
 158.229 686.869 175.826 638.414 186.229 628 c 257
 217.229 611 l 257
 185.229 599 l 257
 147.229 615 125.229 653.94 125.229 706.571 c 256
166.594 681.764 m 256
 166.594 651.068 191.534 626.128 222.229 626.128 c 256
 252.925 626.128 277.865 651.068 277.865 681.764 c 256
 277.865 712.459 252.925 737.399 222.229 737.399 c 256
 191.534 737.399 166.594 712.459 166.594 681.764 c 256
139.229 682 m 256
 139.229 730.551 176.437 770 222.229 770 c 256
 272.306 770 312.993 730.445 312.993 681.764 c 256
 312.993 631.688 272.306 591 222.229 591 c 256
 176.437 591 139.229 631.793 139.229 682 c 256
65.2432 618 m 257
 79.236 655.014 106.67 687.55 141.229 710.938 c 257
 154.229 675.356 l 256
 129.36 656.803 109.734 632.404 99.2432 605 c 257
 65.2432 618 l 257
47.2432 207 m 256
 47.2432 309.342 97.2432 349 106.243 354 c 257
 33 354 l 257
 33 389 l 257
 305.52 389 l 257
 313.243 354 l 257
 183.243 354 l 258
 132.243 354 83.2432 296.709 83.2432 208 c 256
 83.2432 142.715 115.394 40 252.243 40 c 256
 380.108 40 453.243 150.519 453.243 354 c 256
 453.243 495.729 429.987 585.701 392.595 640 c 257
 406.604 685 l 257
 458.336 627.301 491.243 524.656 491.243 354 c 256
 491.243 126.541 404.282 3 252.243 3 c 256
 86.2432 3 47.2432 127.726 47.2432 207 c 256
81.2432 420 m 256
 81.2432 488 132.587 524 191.243 524 c 256
 255.8 524 315.688 481.099 315.688 387 c 256
 315.688 375.04 314.802 364.262 313.243 354 c 257
 281.863 379 l 257
 281.771 381.638 281.688 384.229 281.688 387 c 256
 281.688 457.746 239.605 490 191.243 490 c 256
 149.286 490 114.719 467 114.719 420 c 256
 114.719 406.329 117.708 394.165 122.624 384 c 256
 93.7539 370 l 256
 86.4004 384.32 81.2432 401.846 81.2432 420 c 256
EndSplineSet
EndChar

StartChar: si_Ch.halant
Encoding: 47 -1 47
GlifName: si_C_h.halant
Width: 574
VWidth: 0
GlyphClass: 2
Flags: W
LayerCount: 2
Back
Fore
SplineSet
247 638 m 257
 254 672 l 257
 261.02 670.738 273.299 667.194 291 667.194 c 256
 326.928 667.194 358 688 358 749 c 256
 358 828.298 298.5 829 273 829 c 256
 269.98 829 264 829 264 829 c 257
 246 848 l 257
 273 863 l 257
 309 863 393 862 393 749 c 256
 393 664 345.695 632.194 291 632.194 c 256
 276.592 632.194 261.755 634.109 247 638 c 257
238 863 m 257
 273 863 l 257
 273 855 l 257
 269 839 l 257
 269 662 l 257
 273 642 l 257
 273 545 l 257
 238 545 l 257
 238 863 l 257
412.864 575 m 256
 484.497 647.766 533 705.781 533 776 c 257
 569 776 l 257
 569 698.187 518.717 632.518 441.609 553 c 256
 412.864 575 l 256
271.834 454 m 256
 271.834 466.186 272.838 477.514 274.727 488 c 256
 287.42 558.491 340.082 591 396.278 591 c 256
 491 591 526 505 526 426 c 256
 526 296.292 465.155 196 368 196 c 256
 300.656 196 267.956 247.021 267.956 298.338 c 256
 267.956 338.461 287.947 378.765 327 395 c 257
 347 366 l 257
 320.153 355.846 305.698 326.094 305.698 296.997 c 256
 305.698 263.053 325.372 230 368 230 c 256
 438 230 492.524 322 492.524 426 c 256
 492.524 482.043 463 557 396.278 557 c 256
 347.916 557 305.834 524.746 305.834 454 c 256
 305.834 435 305.834 416 305.834 402 c 257
 288.834 369 l 257
 279.118 397.663 271.834 421.384 271.834 454 c 256
70 224.437 m 256
 70 107.242 156.024 30 288.834 30 c 256
 421.644 30 507.668 106.806 507.668 224 c 256
 507.668 299.407 469.191 365 385 365 c 258
 192.668 365 l 258
 108.477 365 70 299.844 70 224.437 c 256
33 224.437 m 256
 33 319.693 85.9033 402 192.668 402 c 258
 385 402 l 258
 491.765 402 544.668 319.257 544.668 224 c 256
 544.668 84.5049 444.34 -7 288.834 -7 c 256
 133.328 -7 33 84.9414 33 224.437 c 256
65.0801 474 m 256
 65.0801 553 124.683 591 181.389 591 c 256
 237.585 591 290.244 558.491 302.94 488 c 256
 304.829 477.514 305.833 466.186 305.833 454 c 256
 305.833 421.384 298.549 397.663 288.833 369 c 257
 271.833 402 l 257
 271.833 416 271.834 435 271.834 454 c 256
 271.834 524.746 229.751 557 181.389 557 c 256
 141.004 557 98.5557 530.043 98.5557 474 c 256
 98.5557 437.959 115.944 402 142.944 382 c 257
 116.944 361 l 257
 85.3975 385.565 65.0801 429.732 65.0801 474 c 256
EndSplineSet
EndChar

StartChar: si_ChI
Encoding: 48 -1 48
GlifName: si_C_hI_
Width: 574
VWidth: 0
GlyphClass: 2
Flags: W
LayerCount: 2
Back
Fore
SplineSet
98.334 686 m 256
 98.334 795.491 180.736 863 288 863 c 256
 393.191 863 474 795.491 474 686 c 256
 474 657.699 466.979 626.216 457.157 603 c 257
 451.724 590.158 445.434 579.846 439 574 c 257
 414 588 l 257
 430.236 606.871 437 635 437 686 c 256
 437 763 377.023 826 288 826 c 256
 196.787 826 135.334 769.151 135.334 686 c 256
 135.334 644.007 161.22 596.708 201 579 c 257
 201 561 l 257
 173 559 l 257
 127.768 580.018 98.334 636.158 98.334 686 c 256
412.864 575 m 256
 484.497 647.766 533 705.781 533 776 c 257
 569 776 l 257
 569 698.187 518.717 632.518 441.609 553 c 256
 412.864 575 l 256
271.834 454 m 256
 271.834 466.186 272.838 477.514 274.727 488 c 256
 287.42 558.491 340.082 591 396.278 591 c 256
 491 591 526 505 526 426 c 256
 526 296.292 465.155 196 368 196 c 256
 300.656 196 267.956 247.021 267.956 298.338 c 256
 267.956 338.461 287.947 378.765 327 395 c 257
 347 366 l 257
 320.153 355.846 305.698 326.094 305.698 296.997 c 256
 305.698 263.053 325.372 230 368 230 c 256
 438 230 492.524 322 492.524 426 c 256
 492.524 482.043 463 557 396.278 557 c 256
 347.916 557 305.834 524.746 305.834 454 c 256
 305.834 435 305.834 416 305.834 402 c 257
 288.834 369 l 257
 279.118 397.663 271.834 421.384 271.834 454 c 256
70 224.437 m 256
 70 107.242 156.024 30 288.834 30 c 256
 421.644 30 507.668 106.806 507.668 224 c 256
 507.668 299.407 469.191 365 385 365 c 258
 192.668 365 l 258
 108.477 365 70 299.844 70 224.437 c 256
33 224.437 m 256
 33 319.693 85.9033 402 192.668 402 c 258
 385 402 l 258
 491.765 402 544.668 319.257 544.668 224 c 256
 544.668 84.5049 444.34 -7 288.834 -7 c 256
 133.328 -7 33 84.9414 33 224.437 c 256
65.0801 474 m 256
 65.0801 553 124.683 591 181.389 591 c 256
 237.585 591 290.247 558.491 302.94 488 c 256
 304.829 477.514 305.833 466.186 305.833 454 c 256
 305.833 421.384 298.549 397.663 288.833 369 c 257
 271.833 402 l 257
 271.833 416 271.834 435 271.834 454 c 256
 271.834 524.746 229.751 557 181.389 557 c 256
 141.004 557 98.5557 530.043 98.5557 474 c 256
 98.5557 437.959 115.944 402 142.944 382 c 257
 116.944 361 l 257
 85.3975 385.565 65.0801 429.732 65.0801 474 c 256
EndSplineSet
EndChar

StartChar: si_ChIi
Encoding: 49 -1 49
GlifName: si_C_hI_i
Width: 574
VWidth: 0
GlyphClass: 2
Flags: W
LayerCount: 2
Back
Fore
SplineSet
337.538 654.899 m 256
 337.538 622.339 363.537 595.409 396.438 595.409 c 256
 429.315 595.409 455.337 622.333 455.337 654.899 c 256
 455.337 687.459 429.339 714.391 396.438 714.391 c 256
 363.559 714.391 337.538 687.465 337.538 654.899 c 256
299.079 654.921 m 256
 299.079 708.677 342.245 751.842 396 751.842 c 256
 437.556 751.842 469.411 719.42 473.337 689 c 257
 486.002 678.271 492.919 666.167 492.919 654.921 c 256
 492.919 601.166 449.752 558 396 558 c 256
 342.245 558 299.079 601.166 299.079 654.921 c 256
84.334 686 m 256
 84.334 795.491 171.515 863 285 863 c 256
 405.84 863 498.671 795.491 498.671 686 c 256
 498.671 636.158 482.337 569 409.337 559 c 257
 380.672 564.921 l 257
 397.672 586.921 l 257
 433.604 590.973 455.177 608.625 462.337 637 c 256
 466.337 652.853 466.337 670.527 466.337 686 c 257
 466.337 769.151 393.343 826 285 826 c 256
 187.215 826 121.334 769.151 121.334 686 c 256
 121.334 644.007 147.22 596.708 187 579 c 257
 187 561 l 257
 163 556 l 257
 115.345 577.515 84.334 634.98 84.334 686 c 256
412.864 575 m 256
 484.497 647.766 533 705.781 533 776 c 257
 569 776 l 257
 569 698.187 518.717 632.518 441.609 553 c 256
 412.864 575 l 256
271.834 454 m 256
 271.834 466.186 272.838 477.514 274.727 488 c 256
 287.42 558.491 340.082 591 396.278 591 c 256
 491 591 526 505 526 426 c 256
 526 296.292 465.155 196 368 196 c 256
 300.656 196 267.956 247.021 267.956 298.338 c 256
 267.956 338.461 287.947 378.765 327 395 c 257
 347 366 l 257
 320.153 355.846 305.698 326.094 305.698 296.997 c 256
 305.698 263.053 325.372 230 368 230 c 256
 438 230 492.524 322 492.524 426 c 256
 492.524 482.043 463 557 396.278 557 c 256
 347.916 557 305.834 524.746 305.834 454 c 256
 305.834 435 305.834 416 305.834 402 c 257
 288.834 369 l 257
 279.118 397.663 271.834 421.384 271.834 454 c 256
70 224.437 m 256
 70 107.242 156.024 30 288.834 30 c 256
 421.644 30 507.668 106.806 507.668 224 c 256
 507.668 299.407 469.191 365 385 365 c 258
 192.668 365 l 258
 108.477 365 70 299.844 70 224.437 c 256
33 224.437 m 256
 33 319.693 85.9033 402 192.668 402 c 258
 385 402 l 258
 491.765 402 544.668 319.257 544.668 224 c 256
 544.668 84.5049 444.34 -7 288.834 -7 c 256
 133.328 -7 33 84.9414 33 224.437 c 256
65.0801 474 m 256
 65.0801 553 124.683 591 181.389 591 c 256
 237.585 591 290.247 558.491 302.94 488 c 256
 304.829 477.514 305.833 466.186 305.833 454 c 256
 305.833 421.384 298.549 397.663 288.833 369 c 257
 271.833 402 l 257
 271.833 416 271.834 435 271.834 454 c 256
 271.834 524.746 229.751 557 181.389 557 c 256
 141.004 557 98.5557 530.043 98.5557 474 c 256
 98.5557 437.959 115.944 402 142.944 382 c 257
 116.944 361 l 257
 85.3975 385.565 65.0801 429.732 65.0801 474 c 256
EndSplineSet
EndChar

StartChar: si_ChU
Encoding: 50 -1 50
GlifName: si_C_hU_
Width: 574
VWidth: 0
GlyphClass: 2
Flags: W
LayerCount: 2
Back
Fore
SplineSet
77.0625 -123.687 m 256
 77.0625 -104.944 80.0029 -84.6562 83.7939 -65 c 257
 119.78 -69 l 257
 116.546 -84.7646 113.853 -101.793 113.853 -117.069 c 256
 113.853 -143.697 122.037 -165 149.812 -165 c 258
 472.812 -165 l 257
 472.812 -202 l 257
 149.812 -202 l 258
 92.7393 -202 77.0625 -166.963 77.0625 -123.687 c 256
471 57 m 257
 476 98 l 257
 508 121 l 257
 508 -202 l 257
 471 -202 l 257
 471 57 l 257
412.864 575 m 256
 484.497 647.766 533 705.781 533 776 c 257
 569 776 l 257
 569 698.187 518.717 632.518 441.609 553 c 256
 412.864 575 l 256
271.834 454 m 256
 271.834 466.186 272.838 477.514 274.727 488 c 256
 287.42 558.491 340.082 591 396.278 591 c 256
 491 591 526 505 526 426 c 256
 526 296.292 465.155 196 368 196 c 256
 300.656 196 267.956 247.021 267.956 298.338 c 256
 267.956 338.461 287.947 378.765 327 395 c 257
 347 366 l 257
 320.153 355.846 305.698 326.094 305.698 296.997 c 256
 305.698 263.053 325.372 230 368 230 c 256
 438 230 492.524 322 492.524 426 c 256
 492.524 482.043 463 557 396.278 557 c 256
 347.916 557 305.834 524.746 305.834 454 c 256
 305.834 435 305.834 416 305.834 402 c 257
 288.834 369 l 257
 279.118 397.663 271.834 421.384 271.834 454 c 256
70 224.437 m 256
 70 107.242 156.024 30 288.834 30 c 256
 421.644 30 507.668 106.806 507.668 224 c 256
 507.668 299.407 469.191 365 385 365 c 258
 192.668 365 l 258
 108.477 365 70 299.844 70 224.437 c 256
33 224.437 m 256
 33 319.693 85.9033 402 192.668 402 c 258
 385 402 l 258
 491.765 402 544.668 319.257 544.668 224 c 256
 544.668 84.5049 444.34 -7 288.834 -7 c 256
 133.328 -7 33 84.9414 33 224.437 c 256
65.0801 474 m 256
 65.0801 553 124.683 591 181.389 591 c 256
 237.585 591 290.244 558.491 302.94 488 c 256
 304.829 477.514 305.833 466.186 305.833 454 c 256
 305.833 421.384 298.549 397.663 288.833 369 c 257
 271.833 402 l 257
 271.833 416 271.834 435 271.834 454 c 256
 271.834 524.746 229.751 557 181.389 557 c 256
 141.004 557 98.5557 530.043 98.5557 474 c 256
 98.5557 437.959 115.944 402 142.944 382 c 257
 116.944 361 l 257
 85.3975 385.565 65.0801 429.732 65.0801 474 c 256
EndSplineSet
EndChar

StartChar: si_ChUu
Encoding: 51 -1 51
GlifName: si_C_hU_u
Width: 574
VWidth: 0
GlyphClass: 2
Flags: W
LayerCount: 2
Back
Fore
SplineSet
83.251 -123.687 m 256
 83.251 -104.944 86.1914 -84.6562 89.9824 -65 c 257
 125.969 -69 l 257
 122.734 -84.7646 120.041 -101.793 120.041 -117.069 c 256
 120.041 -143.697 136.71 -165 167 -165 c 256
 233.969 -165 300.096 -94 366.223 -94 c 256
 410.768 -94 455.312 -115.25 500 -179 c 257
 471 -202 l 257
 435.851 -148.75 401.037 -131 366.223 -131 c 256
 300.655 -131 235.089 -202 167 -202 c 256
 118.91 -202 83.251 -166.963 83.251 -123.687 c 256
471 57 m 257
 476 98 l 257
 508 121 l 257
 508 -202 l 257
 471 -202 l 257
 471 57 l 257
412.864 575 m 256
 484.497 647.766 533 705.781 533 776 c 257
 569 776 l 257
 569 698.187 518.717 632.518 441.609 553 c 256
 412.864 575 l 256
271.834 454 m 256
 271.834 466.186 272.838 477.514 274.727 488 c 256
 287.42 558.491 340.082 591 396.278 591 c 256
 491 591 526 505 526 426 c 256
 526 296.292 465.155 196 368 196 c 256
 300.656 196 267.956 247.021 267.956 298.338 c 256
 267.956 338.461 287.947 378.765 327 395 c 257
 347 366 l 257
 320.153 355.846 305.698 326.094 305.698 296.997 c 256
 305.698 263.053 325.372 230 368 230 c 256
 438 230 492.524 322 492.524 426 c 256
 492.524 482.043 463 557 396.278 557 c 256
 347.916 557 305.834 524.746 305.834 454 c 256
 305.834 435 305.834 416 305.834 402 c 257
 288.834 369 l 257
 279.118 397.663 271.834 421.384 271.834 454 c 256
70 224.437 m 256
 70 107.242 156.024 30 288.834 30 c 256
 421.644 30 507.668 106.806 507.668 224 c 256
 507.668 299.407 469.191 365 385 365 c 258
 192.668 365 l 258
 108.477 365 70 299.844 70 224.437 c 256
33 224.437 m 256
 33 319.693 85.9033 402 192.668 402 c 258
 385 402 l 258
 491.765 402 544.668 319.257 544.668 224 c 256
 544.668 84.5049 444.34 -7 288.834 -7 c 256
 133.328 -7 33 84.9414 33 224.437 c 256
65.0801 474 m 256
 65.0801 553 124.683 591 181.389 591 c 256
 237.585 591 290.244 558.491 302.94 488 c 256
 304.829 477.514 305.833 466.186 305.833 454 c 256
 305.833 421.384 298.549 397.663 288.833 369 c 257
 271.833 402 l 257
 271.833 416 271.834 435 271.834 454 c 256
 271.834 524.746 229.751 557 181.389 557 c 256
 141.004 557 98.5557 530.043 98.5557 474 c 256
 98.5557 437.959 115.944 402 142.944 382 c 257
 116.944 361 l 257
 85.3975 385.565 65.0801 429.732 65.0801 474 c 256
EndSplineSet
EndChar

StartChar: si_Cha
Encoding: 52 3489 52
GlifName: si_C_ha
Width: 602
VWidth: 0
GlyphClass: 2
Flags: W
LayerCount: 2
Back
Fore
SplineSet
412.864 575 m 256
 484.497 647.766 533 705.781 533 776 c 257
 569 776 l 257
 569 698.187 518.717 632.518 441.609 553 c 256
 412.864 575 l 256
271.834 454 m 256
 271.834 466.186 272.838 477.514 274.727 488 c 256
 287.42 558.491 340.082 591 396.278 591 c 256
 491 591 526 505 526 426 c 256
 526 296.292 465.155 196 368 196 c 256
 300.656 196 267.956 247.021 267.956 298.338 c 256
 267.956 338.461 287.947 378.765 327 395 c 257
 347 366 l 257
 320.153 355.846 305.698 326.094 305.698 296.997 c 256
 305.698 263.053 325.372 230 368 230 c 256
 438 230 492.524 322 492.524 426 c 256
 492.524 482.043 463 557 396.278 557 c 256
 347.916 557 305.834 524.746 305.834 454 c 256
 305.834 435 305.834 416 305.834 402 c 257
 288.834 369 l 257
 279.118 397.663 271.834 421.384 271.834 454 c 256
70 224.437 m 256
 70 107.242 156.024 30 288.834 30 c 256
 421.644 30 507.668 106.806 507.668 224 c 256
 507.668 299.407 469.191 365 385 365 c 258
 192.668 365 l 258
 108.477 365 70 299.844 70 224.437 c 256
33 224.437 m 256
 33 319.693 85.9033 402 192.668 402 c 258
 385 402 l 258
 491.765 402 544.668 319.257 544.668 224 c 256
 544.668 84.5049 444.34 -7 288.834 -7 c 256
 133.328 -7 33 84.9414 33 224.437 c 256
65.0801 474 m 256
 65.0801 553 124.683 591 181.389 591 c 256
 237.585 591 290.247 558.491 302.94 488 c 256
 304.829 477.514 305.833 466.186 305.833 454 c 256
 305.833 421.384 298.549 397.663 288.833 369 c 257
 271.833 402 l 257
 271.833 416 271.834 435 271.834 454 c 256
 271.834 524.746 229.751 557 181.389 557 c 256
 141.004 557 98.5557 530.043 98.5557 474 c 256
 98.5557 437.959 115.944 402 142.944 382 c 257
 116.944 361 l 257
 85.3975 385.565 65.0801 429.732 65.0801 474 c 256
EndSplineSet
EndChar

StartChar: si_D.halant
Encoding: 54 -1 54
GlifName: si_D_.halant
Width: 432
VWidth: 0
GlyphClass: 2
Flags: W
LayerCount: 2
Back
Fore
SplineSet
306 638 m 257
 313 672 l 257
 320.02 670.738 332.299 667.194 350 667.194 c 256
 385.928 667.194 417 688 417 749 c 256
 417 828.298 357.5 829 332 829 c 256
 328.98 829 323 829 323 829 c 257
 305 848 l 257
 332 863 l 257
 368 863 452 862 452 749 c 256
 452 664 404.695 632.194 350 632.194 c 256
 335.592 632.194 320.755 634.109 306 638 c 257
297 863 m 257
 332 863 l 257
 332 855 l 257
 328 839 l 257
 328 662 l 257
 328 642 l 257
 328 548 l 257
 297 548 l 257
 297 863 l 257
33 212 m 256
 33 312.682 106 411 229.945 411 c 256
 254.226 411 302 411 325.802 411 c 257
 327.802 422 331 438.288 331 454 c 256
 331 524.746 288.918 557 240.556 557 c 256
 200.171 557 157.723 530.043 157.723 474 c 256
 157.723 431.347 179.467 406.53 188.63 398 c 257
 164.723 376 l 257
 152.723 387 124.247 419 124.247 474 c 256
 124.247 553 183.85 591 240.556 591 c 256
 305.112 591 365 548.099 365 454 c 256
 365 424.453 360 399.965 351 374 c 257
 351 374 273 374 229.945 374 c 256
 130.144 374 70 295.036 70 212 c 256
 70 101.981 151.336 41.8418 233.843 41.8418 c 256
 285.123 41.8418 336.856 65.0742 369.795 114 c 257
 399.072 91.6963 l 257
 358.854 31.5459 295.688 2.99805 233.072 2.99805 c 256
 132.322 2.99805 33 76.9082 33 212 c 256
173.124 -57 m 256
 173.124 -24.1729 180.868 1.5957 205.795 34 c 257
 234.795 36 l 257
 236.795 17 l 257
 214.646 -8.83984 210.124 -30.4658 210.124 -57 c 256
 210.124 -111.588 250.591 -156.696 305.795 -156.696 c 256
 359.233 -156.696 393.213 -132.977 421.165 -83 c 257
 450.442 -105.304 l 257
 415.396 -164.568 372.795 -192.696 305.795 -192.696 c 256
 226.38 -192.696 173.124 -129.529 173.124 -57 c 256
EndSplineSet
EndChar

StartChar: si_DAa
Encoding: 55 -1 55
GlifName: si_D_A_a
Width: 662
VWidth: 0
GlyphClass: 2
Flags: W
LayerCount: 2
Back
Fore
SplineSet
429.659 543 m 257
 448.237 549.033 466.466 552 483.903 552 c 256
 565.201 552 629 457.694 629 284 c 256
 629 110.306 565.201 16 483.903 16 c 256
 466.466 16 448.237 18.9668 429.659 25 c 257
 435.659 61 l 257
 446.092 57.6396 464.87 53 483.903 53 c 256
 544.47 53 592 134.286 592 284 c 256
 592 433.714 544.47 515 483.903 515 c 256
 464.87 515 446.092 510.36 435.659 507 c 257
 429.659 543 l 257
173.124 -57 m 256
 173.124 -24.1729 180.868 1.5957 205.795 34 c 257
 234.795 36 l 257
 236.795 17 l 257
 214.646 -8.83984 210.124 -30.4658 210.124 -57 c 256
 210.124 -111.588 250.591 -156.696 305.795 -156.696 c 256
 359.233 -156.696 393.213 -132.977 421.165 -83 c 257
 450.442 -105.304 l 257
 415.396 -164.568 372.795 -192.696 305.795 -192.696 c 256
 226.38 -192.696 173.124 -129.529 173.124 -57 c 256
33 212 m 256
 33 312.682 106 411 229.945 411 c 256
 254.226 411 302 411 325.802 411 c 257
 327.802 422 331 438.288 331 454 c 256
 331 524.746 288.918 557 240.556 557 c 256
 200.171 557 157.723 530.043 157.723 474 c 256
 157.723 431.347 179.467 406.53 188.63 398 c 257
 164.723 376 l 257
 152.723 387 124.247 419 124.247 474 c 256
 124.247 553 183.85 591 240.556 591 c 256
 305.112 591 365 548.099 365 454 c 256
 365 424.453 360 399.965 351 374 c 257
 351 374 273 374 229.945 374 c 256
 130.144 374 70 295.036 70 212 c 256
 70 101.981 151.336 41.8418 233.843 41.8418 c 256
 285.123 41.8418 336.856 65.0742 369.795 114 c 257
 399.072 91.6963 l 257
 358.854 31.5459 295.688 2.99805 233.072 2.99805 c 256
 132.322 2.99805 33 76.9082 33 212 c 256
EndSplineSet
EndChar

StartChar: si_DAa.halant
Encoding: 56 -1 56
GlifName: si_D_A_a.halant
Width: 662
VWidth: 0
GlyphClass: 2
Flags: W
LayerCount: 2
Back
Fore
SplineSet
477.182 638 m 257
 484.182 672 l 257
 491.201 670.738 503.48 667.194 521.182 667.194 c 256
 557.109 667.194 588.182 688 588.182 749 c 256
 588.182 828.298 528.682 829 503.182 829 c 256
 500.162 829 494.182 829 494.182 829 c 257
 476.182 848 l 257
 503.182 863 l 257
 539.182 863 623.182 862 623.182 749 c 256
 623.182 664 575.877 632.194 521.182 632.194 c 256
 506.773 632.194 491.937 634.109 477.182 638 c 257
468.182 863 m 257
 503.182 863 l 257
 503.182 855 l 257
 499.182 839 l 257
 499.182 662 l 257
 503.182 642 l 257
 503.182 543 l 257
 468.182 543 l 257
 468.182 863 l 257
429.659 543 m 257
 448.237 549.033 466.466 552 483.903 552 c 256
 565.201 552 629 457.694 629 284 c 256
 629 110.306 565.201 16 483.903 16 c 256
 466.466 16 448.237 18.9668 429.659 25 c 257
 435.659 61 l 257
 446.092 57.6396 464.87 53 483.903 53 c 256
 544.47 53 592 134.286 592 284 c 256
 592 433.714 544.47 515 483.903 515 c 256
 464.87 515 446.092 510.36 435.659 507 c 257
 429.659 543 l 257
33 212 m 256
 33 312.682 106 411 229.945 411 c 256
 254.226 411 302 411 325.802 411 c 257
 327.802 422 331 438.288 331 454 c 256
 331 524.746 288.918 557 240.556 557 c 256
 200.171 557 157.723 530.043 157.723 474 c 256
 157.723 431.347 179.467 406.53 188.63 398 c 257
 164.723 376 l 257
 152.723 387 124.247 419 124.247 474 c 256
 124.247 553 183.85 591 240.556 591 c 256
 305.112 591 365 548.099 365 454 c 256
 365 424.453 360 399.965 351 374 c 257
 351 374 273 374 229.945 374 c 256
 130.144 374 70 295.036 70 212 c 256
 70 101.981 151.336 41.8418 233.843 41.8418 c 256
 285.123 41.8418 336.856 65.0742 369.795 114 c 257
 399.072 91.6963 l 257
 358.854 31.5459 295.688 2.99805 233.072 2.99805 c 256
 132.322 2.99805 33 76.9082 33 212 c 256
173.124 -57 m 256
 173.124 -24.1729 180.868 1.5957 205.795 34 c 257
 234.795 36 l 257
 236.795 17 l 257
 214.646 -8.83984 210.124 -30.4658 210.124 -57 c 256
 210.124 -111.588 250.591 -156.696 305.795 -156.696 c 256
 359.233 -156.696 393.213 -132.977 421.165 -83 c 257
 450.442 -105.304 l 257
 415.396 -164.568 372.795 -192.696 305.795 -192.696 c 256
 226.38 -192.696 173.124 -129.529 173.124 -57 c 256
EndSplineSet
EndChar

StartChar: si_DAae
Encoding: 57 -1 57
GlifName: si_D_A_ae
Width: 723
VWidth: 0
GlyphClass: 2
Flags: W
LayerCount: 2
Back
Fore
SplineSet
426 158 m 256
 426 273 541.644 371 627.5 371 c 257
 627.5 334 l 257
 557.409 334 463 241 463 158 c 256
 463 79 498.941 40 557 40 c 256
 637.449 40 653 126 653 176 c 257
 690 176 l 257
 690 109 673.756 3 557 3 c 256
 476.089 3 426 54.2285 426 158 c 256
443.5 334 m 257
 443.5 371 l 257
 627.5 371 l 257
 627.5 334 l 257
 443.5 334 l 257
443.5 543 m 257
 627.5 543 l 257
 627.5 506 l 257
 498 371 l 257
 443.5 371 l 257
 573 506 l 257
 443.5 506 l 257
 443.5 543 l 257
33 212 m 256
 33 312.682 106 411 229.945 411 c 256
 254.226 411 302 411 325.802 411 c 257
 327.802 422 331 438.288 331 454 c 256
 331 524.746 288.918 557 240.556 557 c 256
 200.171 557 157.723 530.043 157.723 474 c 256
 157.723 431.347 179.467 406.53 188.63 398 c 257
 164.723 376 l 257
 152.723 387 124.247 419 124.247 474 c 256
 124.247 553 183.85 591 240.556 591 c 256
 305.112 591 365 548.099 365 454 c 256
 365 424.453 360 399.965 351 374 c 257
 351 374 273 374 229.945 374 c 256
 130.144 374 70 295.036 70 212 c 256
 70 101.981 151.336 41.8418 233.843 41.8418 c 256
 285.123 41.8418 336.856 65.0742 369.795 114 c 257
 399.072 91.6963 l 257
 358.854 31.5459 295.688 2.99805 233.072 2.99805 c 256
 132.322 2.99805 33 76.9082 33 212 c 256
173.124 -57 m 256
 173.124 -24.1729 180.868 1.5957 205.795 34 c 257
 234.795 36 l 257
 236.795 17 l 257
 214.646 -8.83984 210.124 -30.4658 210.124 -57 c 256
 210.124 -111.588 250.591 -156.696 305.795 -156.696 c 256
 359.233 -156.696 393.213 -132.977 421.165 -83 c 257
 450.442 -105.304 l 257
 415.396 -164.568 372.795 -192.696 305.795 -192.696 c 256
 226.38 -192.696 173.124 -129.529 173.124 -57 c 256
EndSplineSet
EndChar

StartChar: si_DAe
Encoding: 58 -1 58
GlifName: si_D_A_e
Width: 740
VWidth: 0
GlyphClass: 2
Flags: W
LayerCount: 2
Back
Fore
SplineSet
435 148 m 256
 435 250 499.432 324 620 496 c 257
 482.5 496 l 257
 482.5 533 l 257
 666.5 533 l 257
 666.5 496 l 257
 539.763 315 472 240 472 148 c 256
 472 69 511 30 574 30 c 256
 654.449 30 670 116 670 166 c 257
 707 166 l 257
 707 99 690.756 -7 574 -7 c 256
 488.147 -7 435 44.2285 435 148 c 256
33 212 m 256
 33 312.682 106 411 229.945 411 c 256
 254.226 411 302 411 325.802 411 c 257
 327.802 422 331 438.288 331 454 c 256
 331 524.746 288.918 557 240.556 557 c 256
 200.171 557 157.723 530.043 157.723 474 c 256
 157.723 431.347 179.467 406.53 188.63 398 c 257
 164.723 376 l 257
 152.723 387 124.247 419 124.247 474 c 256
 124.247 553 183.85 591 240.556 591 c 256
 305.112 591 365 548.099 365 454 c 256
 365 424.453 360 399.965 351 374 c 257
 351 374 273 374 229.945 374 c 256
 130.144 374 70 295.036 70 212 c 256
 70 101.981 151.336 41.8418 233.843 41.8418 c 256
 285.123 41.8418 336.856 65.0742 369.795 114 c 257
 399.072 91.6963 l 257
 358.854 31.5459 295.688 2.99805 233.072 2.99805 c 256
 132.322 2.99805 33 76.9082 33 212 c 256
173.124 -57 m 256
 173.124 -24.1729 180.868 1.5957 205.795 34 c 257
 234.795 36 l 257
 236.795 17 l 257
 214.646 -8.83984 210.124 -30.4658 210.124 -57 c 256
 210.124 -111.588 250.591 -156.696 305.795 -156.696 c 256
 359.233 -156.696 393.213 -132.977 421.165 -83 c 257
 450.442 -105.304 l 257
 415.396 -164.568 372.795 -192.696 305.795 -192.696 c 256
 226.38 -192.696 173.124 -129.529 173.124 -57 c 256
EndSplineSet
EndChar

StartChar: si_DDdh.halant
Encoding: 59 -1 59
GlifName: si_D_D_dh.halant
Width: 681
VWidth: 0
GlyphClass: 2
Flags: W
LayerCount: 2
Back
Fore
SplineSet
188.257 746 m 256
 188.257 795.266 231.767 864 392.257 864 c 256
 517.818 864 620.166 801.028 620.166 712 c 256
 620.166 659 585.919 621 537.166 602 c 257
 507.166 611 l 257
 529.166 636 l 257
 560.885 649.127 583.166 675.382 583.166 712 c 256
 583.166 779.357 497.434 827 392.257 827 c 256
 260.875 827 225.257 779.817 225.257 746 c 256
 225.257 712.768 252.44 683.519 278.257 668 c 257
 279.257 637 l 257
 251.257 646 l 257
 220.57 665.896 188.257 703.395 188.257 746 c 256
149.166 214 m 256
 149.166 266.264 160.137 312.662 178.273 350 c 256
 207.394 409.948 254.986 446.538 305.304 446.538 c 256
 324.208 446.538 342.552 441.8 362.304 432 c 257
 346.304 400 l 257
 332.096 407.104 318.901 410.538 305.304 410.538 c 256
 266.533 410.538 231.411 379.613 209.509 331 c 256
 194.895 298.563 186.166 258.253 186.166 214 c 256
 186.166 130.796 208.559 40 276 40 c 256
 367.166 40 373.758 148.886 377 224.5 c 257
 411 224.5 l 257
 414.242 148.886 420.834 40 512 40 c 256
 604.733 40 611.557 164 611.557 293 c 256
 611.557 582 484.097 651 365.257 651 c 256
 295.317 651 253.771 621.477 215.257 591 c 257
 191.257 620 l 257
 239.815 663.099 309.098 688 365.257 688 c 256
 501.949 688 648.557 611.869 648.557 293 c 256
 648.557 145.135 639.197 3 512 3 c 256
 416.834 3 397.834 85 394 115 c 257
 390.166 85 371.166 3 276 3 c 256
 178.005 3 149.166 115.606 149.166 214 c 256
33 283.999 m 256
 33 459.335 89.1377 506 142 506 c 256
 211.688 506 245 454.571 245 386 c 257
 211.524 386 l 257
 209.879 444.171 180.142 469 142 469 c 256
 97.9297 469 70 400.941 70 283.999 c 256
 70 114.294 111 49.0127 145 42.999 c 257
 145 5.99902 l 257
 83.6807 14.377 33 88.2393 33 283.999 c 256
EndSplineSet
EndChar

StartChar: si_DDhI
Encoding: 60 -1 60
GlifName: si_D_D_hI_
Width: 681
VWidth: 0
GlyphClass: 2
Flags: W
LayerCount: 2
Back
Fore
SplineSet
187.824 720.999 m 256
 187.824 785.999 236.334 863.999 396.824 863.999 c 256
 534.824 863.999 612.824 802.685 612.824 715.999 c 256
 612.824 649.999 573.824 605.999 508.824 593.999 c 257
 478.824 602.999 l 257
 500.824 627.999 l 257
 547.699 636.654 575.824 668.393 575.824 715.999 c 256
 575.824 781.013 511.186 826.999 396.824 826.999 c 256
 265.442 826.999 224.824 772.999 224.824 720.999 c 256
 224.824 679.742 248.658 644.999 301.658 644.999 c 256
 333.246 644.999 371.401 646.999 384.658 646.999 c 257
 400.658 629.999 l 257
 384.658 609.999 l 257
 344.916 609.999 336.589 607.999 301.658 607.999 c 256
 247.658 607.999 187.824 644.62 187.824 720.999 c 256
149.166 214 m 256
 149.166 266.264 160.137 312.662 178.273 350 c 256
 207.394 409.948 254.986 446.538 305.304 446.538 c 256
 324.208 446.538 342.552 441.8 362.304 432 c 257
 346.304 400 l 257
 332.096 407.104 318.901 410.538 305.304 410.538 c 256
 266.533 410.538 231.411 379.613 209.509 331 c 256
 194.895 298.563 186.166 258.253 186.166 214 c 256
 186.166 130.796 208.559 40 276 40 c 256
 367.166 40 373.758 148.886 377 224.5 c 257
 411 224.5 l 257
 414.242 148.886 420.834 40 512 40 c 256
 604.733 40 611.557 164 611.557 293 c 256
 611.557 507.777 560.529 609.999 384.658 609.999 c 257
 384.658 646.999 l 257
 589.208 646.999 648.557 532.846 648.557 293 c 256
 648.557 145.135 639.197 3 512 3 c 256
 416.834 3 397.834 85 394 115 c 257
 390.166 85 371.166 3 276 3 c 256
 178.005 3 149.166 115.606 149.166 214 c 256
33 283.999 m 256
 33 459.335 89.1377 506 142 506 c 256
 211.688 506 245 454.571 245 386 c 257
 211.524 386 l 257
 209.879 444.171 180.142 469 142 469 c 256
 97.9297 469 70 400.941 70 283.999 c 256
 70 114.294 111 49.0127 145 42.999 c 257
 145 5.99902 l 257
 83.6807 14.377 33 88.2393 33 283.999 c 256
EndSplineSet
EndChar

StartChar: si_DDhIi
Encoding: 61 -1 61
GlifName: si_D_D_hI_i
Width: 681
VWidth: 0
GlyphClass: 2
Flags: W
LayerCount: 2
Back
Fore
SplineSet
453.443 700.978 m 256
 453.443 668.417 479.442 641.487 512.343 641.487 c 256
 545.221 641.487 571.242 668.411 571.242 700.978 c 256
 571.242 733.537 545.244 760.469 512.343 760.469 c 256
 479.464 760.469 453.443 733.543 453.443 700.978 c 256
414.984 700.999 m 256
 414.984 754.755 458.15 797.92 511.905 797.92 c 256
 570.824 797.92 608.824 744.999 608.824 700.999 c 256
 608.824 647.244 565.657 604.078 511.905 604.078 c 256
 458.15 604.078 414.984 647.244 414.984 700.999 c 256
187.824 720.999 m 256
 187.824 785.999 236.334 863.999 396.824 863.999 c 256
 534.824 863.999 612.824 802.685 612.824 715.999 c 256
 612.824 682.019 601.234 650.03 579.824 630.999 c 256
 561.824 614.999 536.239 604.078 511.905 604.078 c 257
 481.905 613.078 l 257
 503.905 638.078 l 257
 556.824 638.078 575.824 673.845 575.824 715.999 c 256
 575.824 796.999 511.186 826.999 396.824 826.999 c 256
 265.442 826.999 224.824 772.999 224.824 720.999 c 256
 224.824 679.742 248.658 644.999 301.658 644.999 c 256
 333.246 644.999 371.401 646.999 384.658 646.999 c 257
 400.658 629.999 l 257
 384.658 609.999 l 257
 344.916 609.999 336.589 607.999 301.658 607.999 c 256
 247.658 607.999 187.824 644.62 187.824 720.999 c 256
149.166 214 m 256
 149.166 266.264 160.137 312.662 178.273 350 c 256
 207.394 409.948 254.986 446.538 305.304 446.538 c 256
 324.208 446.538 342.552 441.8 362.304 432 c 257
 346.304 400 l 257
 332.096 407.104 318.901 410.538 305.304 410.538 c 256
 266.533 410.538 231.411 379.613 209.509 331 c 256
 194.895 298.563 186.166 258.253 186.166 214 c 256
 186.166 130.796 208.559 40 276 40 c 256
 367.166 40 373.758 148.886 377 224.5 c 257
 411 224.5 l 257
 414.242 148.886 420.834 40 512 40 c 256
 604.733 40 611.557 164 611.557 293 c 256
 611.557 507.777 560.529 609.999 384.658 609.999 c 257
 384.658 646.999 l 257
 589.208 646.999 648.557 532.846 648.557 293 c 256
 648.557 145.135 639.197 3 512 3 c 256
 416.834 3 397.834 85 394 115 c 257
 390.166 85 371.166 3 276 3 c 256
 178.005 3 149.166 115.606 149.166 214 c 256
33 283.999 m 256
 33 459.335 89.1377 506 142 506 c 256
 211.688 506 245 454.571 245 386 c 257
 211.524 386 l 257
 209.879 444.171 180.142 469 142 469 c 256
 97.9297 469 70 400.941 70 283.999 c 256
 70 114.294 111 49.0127 145 42.999 c 257
 145 5.99902 l 257
 83.6807 14.377 33 88.2393 33 283.999 c 256
EndSplineSet
EndChar

StartChar: si_DDhU
Encoding: 62 -1 62
GlifName: si_D_D_hU_
Width: 681
VWidth: 0
GlyphClass: 2
Flags: W
LayerCount: 2
Back
Fore
SplineSet
182.808 -123.687 m 256
 182.808 -104.944 185.748 -84.6562 189.539 -65 c 257
 225.525 -69 l 257
 222.291 -84.7646 219.598 -101.793 219.598 -117.069 c 256
 219.598 -143.697 227.782 -165 255.557 -165 c 258
 578.557 -165 l 257
 578.557 -202 l 257
 255.557 -202 l 258
 198.484 -202 182.808 -166.963 182.808 -123.687 c 256
570.557 20 m 257
 575.557 61 l 257
 607.557 84 l 257
 607.557 -202 l 257
 570.557 -202 l 257
 570.557 20 l 257
149.166 214 m 256
 149.166 266.264 160.137 312.662 178.273 350 c 256
 207.394 409.948 254.986 446.538 305.304 446.538 c 256
 324.208 446.538 342.552 441.8 362.304 432 c 257
 346.304 400 l 257
 332.096 407.104 318.901 410.538 305.304 410.538 c 256
 266.533 410.538 231.411 379.613 209.509 331 c 256
 194.895 298.563 186.166 258.253 186.166 214 c 256
 186.166 130.796 208.559 40 276 40 c 256
 367.166 40 373.758 148.886 377 224.5 c 257
 411 224.5 l 257
 414.242 148.886 420.834 40 512 40 c 256
 604.733 40 611.557 164 611.557 293 c 256
 611.557 576.887 537.105 712 384 712 c 256
 313.128 712 244.651 665.927 221.327 605 c 257
 187.327 618 l 257
 215.526 692.593 298.314 749 384 749 c 256
 562 749 648.557 601.955 648.557 293 c 256
 648.557 145.135 639.197 3 512 3 c 256
 416.834 3 397.834 85 394 115 c 257
 390.166 85 371.166 3 276 3 c 256
 178.005 3 149.166 115.606 149.166 214 c 256
33 283.999 m 256
 33 459.335 89.1377 506 142 506 c 256
 211.688 506 245 454.571 245 386 c 257
 211.524 386 l 257
 209.879 444.171 180.142 469 142 469 c 256
 97.9297 469 70 400.941 70 283.999 c 256
 70 114.294 111 49.0127 145 42.999 c 257
 145 5.99902 l 257
 83.6807 14.377 33 88.2393 33 283.999 c 256
EndSplineSet
EndChar

StartChar: si_DDhUu
Encoding: 63 -1 63
GlifName: si_D_D_hU_u
Width: 681
VWidth: 0
GlyphClass: 2
Flags: W
LayerCount: 2
Back
Fore
SplineSet
182.808 -123.687 m 256
 182.808 -104.944 185.748 -84.6562 189.539 -65 c 257
 225.525 -69 l 257
 222.291 -84.7646 219.598 -101.793 219.598 -117.069 c 256
 219.598 -143.697 236.267 -165 266.557 -165 c 256
 333.525 -165 399.652 -94 465.779 -94 c 256
 510.324 -94 554.869 -115.25 599.557 -179 c 257
 570.557 -202 l 257
 535.407 -148.75 500.594 -131 465.779 -131 c 256
 400.212 -131 334.646 -202 266.557 -202 c 256
 218.467 -202 182.808 -166.963 182.808 -123.687 c 256
570.557 20 m 257
 575.557 61 l 257
 607.557 84 l 257
 607.557 -202 l 257
 570.557 -202 l 257
 570.557 20 l 257
149.166 214 m 256
 149.166 266.264 160.137 312.662 178.273 350 c 256
 207.394 409.948 254.986 446.538 305.304 446.538 c 256
 324.208 446.538 342.552 441.8 362.304 432 c 257
 346.304 400 l 257
 332.096 407.104 318.901 410.538 305.304 410.538 c 256
 266.533 410.538 231.411 379.613 209.509 331 c 256
 194.895 298.563 186.166 258.253 186.166 214 c 256
 186.166 130.796 208.559 40 276 40 c 256
 367.166 40 373.758 148.886 377 224.5 c 257
 411 224.5 l 257
 414.242 148.886 420.834 40 512 40 c 256
 604.733 40 611.557 164 611.557 293 c 256
 611.557 576.887 537.105 712 384 712 c 256
 313.128 712 244.651 665.927 221.327 605 c 257
 187.327 618 l 257
 215.526 692.593 298.314 749 384 749 c 256
 562 749 648.557 601.955 648.557 293 c 256
 648.557 145.135 639.197 3 512 3 c 256
 416.834 3 397.834 85 394 115 c 257
 390.166 85 371.166 3 276 3 c 256
 178.005 3 149.166 115.606 149.166 214 c 256
33 283.999 m 256
 33 459.335 89.1377 506 142 506 c 256
 211.688 506 245 454.571 245 386 c 257
 211.524 386 l 257
 209.879 444.171 180.142 469 142 469 c 256
 97.9297 469 70 400.941 70 283.999 c 256
 70 114.294 111 49.0127 145 42.999 c 257
 145 5.99902 l 257
 83.6807 14.377 33 88.2393 33 283.999 c 256
EndSplineSet
EndChar

StartChar: si_DDha
Encoding: 64 -1 64
GlifName: si_D_D_ha
Width: 681
VWidth: 0
GlyphClass: 2
Flags: W
LayerCount: 2
Back
Fore
SplineSet
149.166 214 m 256
 149.166 266.264 160.137 312.662 178.273 350 c 256
 207.394 409.948 254.986 446.538 305.304 446.538 c 256
 324.208 446.538 342.552 441.8 362.304 432 c 257
 346.304 400 l 257
 332.096 407.104 318.901 410.538 305.304 410.538 c 256
 266.533 410.538 231.411 379.613 209.509 331 c 256
 194.895 298.563 186.166 258.253 186.166 214 c 256
 186.166 130.796 208.559 40 276 40 c 256
 367.166 40 373.758 148.886 377 224.5 c 257
 411 224.5 l 257
 414.242 148.886 420.834 40 512 40 c 256
 604.733 40 611.557 164 611.557 293 c 256
 611.557 576.887 537.105 712 384 712 c 256
 313.128 712 244.651 665.927 221.327 605 c 257
 187.327 618 l 257
 215.526 692.593 298.314 749 384 749 c 256
 562 749 648.557 601.955 648.557 293 c 256
 648.557 145.135 639.197 3 512 3 c 256
 416.834 3 397.834 85 394 115 c 257
 390.166 85 371.166 3 276 3 c 256
 178.005 3 149.166 115.606 149.166 214 c 256
33 283.999 m 256
 33 459.335 89.1377 506 142 506 c 256
 211.688 506 245 454.571 245 386 c 257
 211.524 386 l 257
 209.879 444.171 180.142 469 142 469 c 256
 97.9297 469 70 400.941 70 283.999 c 256
 70 114.294 111 49.0127 145 42.999 c 257
 145 5.99902 l 257
 83.6807 14.377 33 88.2393 33 283.999 c 256
EndSplineSet
EndChar

StartChar: si_DI
Encoding: 65 -1 65
GlifName: si_D_I_
Width: 473
VWidth: 0
GlyphClass: 2
Flags: W
LayerCount: 2
Back
Fore
SplineSet
38 684 m 256
 38 789.37 130.322 863 250.5 863 c 256
 370.678 863 463 789.37 463 684 c 256
 463 588.917 404.899 538.658 338.5 521 c 257
 322.5 529 l 257
 328.5 552 l 257
 380.5 566.3 426 607 426 684 c 256
 426 763.245 355.355 826 250.5 826 c 256
 145.645 826 75 763.245 75 684 c 256
 75 626.574 110.5 571.356 159.5 557 c 257
 165.5 534 l 257
 146.5 530 l 257
 83.583 547.409 38 614.365 38 684 c 256
173.441 -56.999 m 256
 173.441 -24.1719 181.186 1.59668 206.112 34.001 c 257
 235.112 36.001 l 257
 237.112 17.001 l 257
 214.964 -8.83887 210.441 -30.4648 210.441 -56.999 c 256
 210.441 -111.587 250.908 -156.695 306.112 -156.695 c 256
 359.551 -156.695 393.53 -132.976 421.482 -82.999 c 257
 450.76 -105.303 l 257
 415.714 -164.567 373.112 -192.695 306.112 -192.695 c 256
 226.697 -192.695 173.441 -129.528 173.441 -56.999 c 256
33.3174 212.001 m 256
 33.3174 312.683 106.317 411.001 230.263 411.001 c 256
 254.543 411.001 302.317 411.001 326.119 411.001 c 257
 328.119 422.001 331.317 438.289 331.317 454.001 c 256
 331.317 524.747 289.235 557.001 240.873 557.001 c 256
 200.488 557.001 158.04 530.044 158.04 474.001 c 256
 158.04 431.348 179.784 406.531 188.947 398.001 c 257
 165.04 376.001 l 257
 153.04 387.001 124.564 419.001 124.564 474.001 c 256
 124.564 553.001 184.167 591.001 240.873 591.001 c 256
 305.43 591.001 365.317 548.1 365.317 454.001 c 256
 365.317 424.454 360.317 399.966 351.317 374.001 c 257
 351.317 374.001 273.317 374.001 230.263 374.001 c 256
 130.461 374.001 70.3174 295.037 70.3174 212.001 c 256
 70.3174 101.982 151.653 41.8428 234.16 41.8428 c 256
 285.44 41.8428 337.174 65.0752 370.112 114.001 c 257
 399.39 91.6973 l 257
 359.171 31.5469 296.005 2.99902 233.39 2.99902 c 256
 132.64 2.99902 33.3174 76.9092 33.3174 212.001 c 256
EndSplineSet
EndChar

StartChar: si_DIi
Encoding: 66 -1 66
GlifName: si_D_I_i
Width: 473
VWidth: 0
GlyphClass: 2
Flags: W
LayerCount: 2
Back
Fore
SplineSet
295.038 621.899 m 256
 295.038 589.339 321.037 562.409 353.938 562.409 c 256
 386.815 562.409 412.837 589.333 412.837 621.899 c 256
 412.837 654.459 386.839 681.391 353.938 681.391 c 256
 321.059 681.391 295.038 654.465 295.038 621.899 c 256
256.579 621.921 m 256
 256.579 675.677 299.745 718.842 353.5 718.842 c 256
 395.056 718.842 426.911 686.42 430.837 656 c 257
 443.502 645.271 450.419 633.168 450.419 621.921 c 256
 450.419 568.166 407.252 525 353.5 525 c 256
 299.745 525 256.579 568.166 256.579 621.921 c 256
38 684 m 256
 38 789.37 130.322 863 250.5 863 c 256
 370.678 863 463 790.151 463 672 c 256
 463 614.701 445.417 537.496 366.837 526 c 257
 338.172 531.921 l 257
 355.172 553.921 l 257
 394.899 559.51 416.909 584.331 426.666 623 c 256
 430.666 638.853 430.666 656.527 430.666 672 c 257
 430.666 763.467 358.144 826 250.5 826 c 256
 145.645 826 75 763.245 75 684 c 256
 75 626.574 110.5 571.356 159.5 557 c 257
 165.5 534 l 257
 146.5 530 l 257
 83.583 547.409 38 614.365 38 684 c 256
173.441 -56.999 m 256
 173.441 -24.1719 181.186 1.59668 206.112 34.001 c 257
 235.112 36.001 l 257
 237.112 17.001 l 257
 214.964 -8.83887 210.441 -30.4648 210.441 -56.999 c 256
 210.441 -111.587 250.908 -156.695 306.112 -156.695 c 256
 359.551 -156.695 393.53 -132.976 421.482 -82.999 c 257
 450.76 -105.303 l 257
 415.714 -164.567 373.112 -192.695 306.112 -192.695 c 256
 226.697 -192.695 173.441 -129.528 173.441 -56.999 c 256
33.3174 212.001 m 256
 33.3174 312.683 106.317 411.001 230.263 411.001 c 256
 254.543 411.001 302.317 411.001 326.119 411.001 c 257
 328.119 422.001 331.317 438.289 331.317 454.001 c 256
 331.317 524.747 289.235 557.001 240.873 557.001 c 256
 200.488 557.001 158.04 530.044 158.04 474.001 c 256
 158.04 431.348 179.784 406.531 188.947 398.001 c 257
 165.04 376.001 l 257
 153.04 387.001 124.564 419.001 124.564 474.001 c 256
 124.564 553.001 184.167 591.001 240.873 591.001 c 256
 305.43 591.001 365.317 548.1 365.317 454.001 c 256
 365.317 424.454 360.317 399.966 351.317 374.001 c 257
 351.317 374.001 273.317 374.001 230.263 374.001 c 256
 130.461 374.001 70.3174 295.037 70.3174 212.001 c 256
 70.3174 101.982 151.653 41.8428 234.16 41.8428 c 256
 285.44 41.8428 337.174 65.0752 370.112 114.001 c 257
 399.39 91.6973 l 257
 359.171 31.5469 296.005 2.99902 233.39 2.99902 c 256
 132.64 2.99902 33.3174 76.9092 33.3174 212.001 c 256
EndSplineSet
EndChar

StartChar: si_DR.halant
Encoding: 67 -1 67
GlifName: si_D_R_.halant
Width: 472
VWidth: 0
GlyphClass: 2
Flags: W
LayerCount: 2
Back
Fore
SplineSet
306 638 m 257
 313 672 l 257
 320.02 670.738 332.299 667.194 350 667.194 c 256
 385.928 667.194 417 688 417 749 c 256
 417 828.298 357.5 829 332 829 c 256
 328.98 829 323 829 323 829 c 257
 305 848 l 257
 332 863 l 257
 368 863 452 862 452 749 c 256
 452 664 404.695 632.194 350 632.194 c 256
 335.592 632.194 320.755 634.109 306 638 c 257
297 863 m 257
 332 863 l 257
 332 855 l 257
 328 839 l 257
 328 662 l 257
 328 642 l 257
 328 548 l 257
 297 548 l 257
 297 863 l 257
50.3447 -96 m 256
 87.3447 -96 l 256
 87.3447 -179.151 143.634 -236 227.183 -236 c 256
 331.196 -236 369.795 -167.333 369.795 -30 c 258
 369.795 114.001 l 257
 406.795 114.001 l 257
 406.795 -30 l 258
 406.795 -192 358.183 -273 227.183 -273 c 256
 127.173 -273 50.3447 -205.491 50.3447 -96 c 256
33 212.001 m 256
 33 312.683 106 411.001 229.945 411.001 c 256
 254.226 411.001 302 411.001 325.802 411.001 c 257
 327.802 422.001 331 438.289 331 454.001 c 256
 331 524.747 288.918 557.001 240.556 557.001 c 256
 200.171 557.001 157.723 530.044 157.723 474.001 c 256
 157.723 431.348 179.467 406.531 188.63 398.001 c 257
 164.723 376.001 l 257
 152.723 387.001 124.247 419.001 124.247 474.001 c 256
 124.247 553.001 183.85 591.001 240.556 591.001 c 256
 305.112 591.001 365 548.1 365 454.001 c 256
 365 424.454 360 399.966 351 374.001 c 257
 351 374.001 273 374.001 229.945 374.001 c 256
 130.144 374.001 70 295.037 70 212.001 c 256
 70 101.982 151.336 41.8428 233.843 41.8428 c 256
 285.123 41.8428 336.856 65.0752 369.795 114.001 c 257
 399.072 91.6973 l 257
 358.854 31.5469 295.688 2.99902 233.072 2.99902 c 256
 132.322 2.99902 33 76.9092 33 212.001 c 256
EndSplineSet
EndChar

StartChar: si_DRI
Encoding: 68 -1 68
GlifName: si_D_R_I_
Width: 473
VWidth: 0
GlyphClass: 2
Flags: W
LayerCount: 2
Back
Fore
SplineSet
38 672 m 256
 38 781.491 130.322 858 250.5 858 c 256
 370.678 858 463 781.491 463 672 c 256
 463 583.917 404.9 537.358 338.5 521 c 257
 322.5 529 l 257
 328.5 552 l 257
 380.5 565 426 602 426 672 c 256
 426 755.151 355.355 821 250.5 821 c 256
 145.645 821 75 755.151 75 672 c 256
 75 620 110.5 570 159.5 557 c 257
 165.5 534 l 257
 146.5 530 l 257
 83.583 546.052 38 607.791 38 672 c 256
50.6621 -96 m 256
 87.6621 -96 l 256
 87.6621 -179.151 143.951 -236 227.5 -236 c 256
 331.514 -236 370.112 -167.333 370.112 -30 c 258
 370.112 114.001 l 257
 407.112 114.001 l 257
 407.112 -30 l 258
 407.112 -192 358.5 -273 227.5 -273 c 256
 127.49 -273 50.6621 -205.491 50.6621 -96 c 256
33.3174 212.001 m 256
 33.3174 312.683 106.317 411.001 230.263 411.001 c 256
 254.543 411.001 302.317 411.001 326.119 411.001 c 257
 328.119 422.001 331.317 438.289 331.317 454.001 c 256
 331.317 524.747 289.235 557.001 240.873 557.001 c 256
 200.488 557.001 158.04 530.044 158.04 474.001 c 256
 158.04 431.348 179.784 406.531 188.947 398.001 c 257
 165.04 376.001 l 257
 153.04 387.001 124.564 419.001 124.564 474.001 c 256
 124.564 553.001 184.167 591.001 240.873 591.001 c 256
 305.43 591.001 365.317 548.1 365.317 454.001 c 256
 365.317 424.454 360.317 399.966 351.317 374.001 c 257
 351.317 374.001 273.317 374.001 230.263 374.001 c 256
 130.461 374.001 70.3174 295.037 70.3174 212.001 c 256
 70.3174 101.982 151.653 41.8428 234.16 41.8428 c 256
 285.44 41.8428 337.174 65.0752 370.112 114.001 c 257
 399.39 91.6973 l 257
 359.171 31.5469 296.005 2.99902 233.39 2.99902 c 256
 132.64 2.99902 33.3174 76.9092 33.3174 212.001 c 256
EndSplineSet
EndChar

StartChar: si_DRIi
Encoding: 69 -1 69
GlifName: si_D_R_I_i
Width: 473
VWidth: 0
GlyphClass: 2
Flags: W
LayerCount: 2
Back
Fore
SplineSet
295.038 621.899 m 256
 295.038 589.339 321.037 562.409 353.938 562.409 c 256
 386.815 562.409 412.837 589.333 412.837 621.899 c 256
 412.837 654.459 386.839 681.391 353.938 681.391 c 256
 321.059 681.391 295.038 654.465 295.038 621.899 c 256
256.579 621.921 m 256
 256.579 675.677 299.745 718.842 353.5 718.842 c 256
 395.056 718.842 426.911 686.42 430.837 656 c 257
 443.502 645.271 450.419 633.168 450.419 621.921 c 256
 450.419 568.166 407.252 525 353.5 525 c 256
 299.745 525 256.579 568.166 256.579 621.921 c 256
38 672 m 256
 38 781.491 130.322 858 250.5 858 c 256
 370.678 858 463 787.059 463 672 c 256
 463 614.701 445.417 537.496 366.837 526 c 257
 338.172 531.921 l 257
 355.172 553.921 l 257
 394.899 559.51 416.909 584.331 426.666 623 c 256
 430.666 638.853 430.666 656.527 430.666 672 c 257
 430.666 760.497 358.144 821 250.5 821 c 256
 145.645 821 75 755.151 75 672 c 256
 75 620 110.5 570 159.5 557 c 257
 165.5 534 l 257
 146.5 530 l 257
 83.583 546.052 38 607.791 38 672 c 256
50.6621 -96 m 256
 87.6621 -96 l 256
 87.6621 -179.151 143.951 -236 227.5 -236 c 256
 331.514 -236 370.112 -167.333 370.112 -30 c 258
 370.112 114.001 l 257
 407.112 114.001 l 257
 407.112 -30 l 258
 407.112 -192 358.5 -273 227.5 -273 c 256
 127.49 -273 50.6621 -205.491 50.6621 -96 c 256
33.3174 212.001 m 256
 33.3174 312.683 106.317 411.001 230.263 411.001 c 256
 254.543 411.001 302.317 411.001 326.119 411.001 c 257
 328.119 422.001 331.317 438.289 331.317 454.001 c 256
 331.317 524.747 289.235 557.001 240.873 557.001 c 256
 200.488 557.001 158.04 530.044 158.04 474.001 c 256
 158.04 431.348 179.784 406.531 188.947 398.001 c 257
 165.04 376.001 l 257
 153.04 387.001 124.564 419.001 124.564 474.001 c 256
 124.564 553.001 184.167 591.001 240.873 591.001 c 256
 305.43 591.001 365.317 548.1 365.317 454.001 c 256
 365.317 424.454 360.317 399.966 351.317 374.001 c 257
 351.317 374.001 273.317 374.001 230.263 374.001 c 256
 130.461 374.001 70.3174 295.037 70.3174 212.001 c 256
 70.3174 101.982 151.653 41.8428 234.16 41.8428 c 256
 285.44 41.8428 337.174 65.0752 370.112 114.001 c 257
 399.39 91.6973 l 257
 359.171 31.5469 296.005 2.99902 233.39 2.99902 c 256
 132.64 2.99902 33.3174 76.9092 33.3174 212.001 c 256
EndSplineSet
EndChar

StartChar: si_DRa
Encoding: 70 -1 70
GlifName: si_D_R_a
Width: 440
VWidth: 0
GlyphClass: 2
Flags: W
LayerCount: 2
Back
Fore
SplineSet
50.5498 -96 m 256
 87.5498 -96 l 256
 87.5498 -179.151 143.839 -236 227.388 -236 c 256
 331.401 -236 370 -167.333 370 -30 c 258
 370 114.001 l 257
 407 114.001 l 257
 407 -30 l 258
 407 -192 358.388 -273 227.388 -273 c 256
 127.378 -273 50.5498 -205.491 50.5498 -96 c 256
33.2051 212.001 m 256
 33.2051 312.683 106.205 411.001 230.15 411.001 c 256
 254.431 411.001 302.205 411.001 326.007 411.001 c 257
 328.007 422.001 331.205 438.289 331.205 454.001 c 256
 331.205 524.747 289.123 557.001 240.761 557.001 c 256
 200.376 557.001 157.928 530.044 157.928 474.001 c 256
 157.928 431.348 179.672 406.531 188.835 398.001 c 257
 164.928 376.001 l 257
 152.928 387.001 124.452 419.001 124.452 474.001 c 256
 124.452 553.001 184.055 591.001 240.761 591.001 c 256
 305.317 591.001 365.205 548.1 365.205 454.001 c 256
 365.205 424.454 360.205 399.966 351.205 374.001 c 257
 351.205 374.001 273.205 374.001 230.15 374.001 c 256
 130.349 374.001 70.2051 295.037 70.2051 212.001 c 256
 70.2051 101.982 151.541 41.8428 234.048 41.8428 c 256
 285.328 41.8428 337.062 65.0752 370 114.001 c 257
 399.277 91.6973 l 257
 359.059 31.5469 295.893 2.99902 233.277 2.99902 c 256
 132.527 2.99902 33.2051 76.9092 33.2051 212.001 c 256
EndSplineSet
EndChar

StartChar: si_DU
Encoding: 71 -1 71
GlifName: si_D_U_
Width: 445
VWidth: 0
GlyphClass: 2
Flags: W
LayerCount: 2
Back
Fore
SplineSet
32.6387 -123.688 m 256
 32.6387 -104.945 35.5791 -84.6572 39.3701 -65.001 c 257
 75.3564 -69.001 l 257
 72.1221 -84.7656 69.4287 -101.794 69.4287 -117.07 c 256
 69.4287 -143.698 77.6162 -165.001 105.388 -165.001 c 258
 390.388 -165.001 l 257
 390.388 -202.001 l 257
 105.388 -202.001 l 258
 48.3213 -202.001 32.6387 -166.964 32.6387 -123.688 c 256
375 78 m 257
 375 114 l 257
 412 114 l 257
 412 -202 l 257
 375 -202 l 257
 375 78 l 257
38.2051 212 m 256
 38.2051 312.682 111.205 411 235.15 411 c 256
 259.431 411 307.205 411 331.007 411 c 257
 333.007 422 336.205 438.288 336.205 454 c 256
 336.205 524.746 294.123 557 245.761 557 c 256
 205.376 557 162.928 530.043 162.928 474 c 256
 162.928 431.347 184.672 406.53 193.835 398 c 257
 169.928 376 l 257
 157.928 387 129.452 419 129.452 474 c 256
 129.452 553 189.055 591 245.761 591 c 256
 310.317 591 370.205 548.099 370.205 454 c 256
 370.205 424.453 365.205 399.965 356.205 374 c 257
 356.205 374 278.205 374 235.15 374 c 256
 135.349 374 75.2051 295.036 75.2051 212 c 256
 75.2051 101.981 156.541 41.8418 239.048 41.8418 c 256
 290.328 41.8418 342.062 65.0742 375 114 c 257
 404.277 91.6963 l 257
 364.059 31.5459 300.893 2.99805 238.277 2.99805 c 256
 137.527 2.99805 38.2051 76.9082 38.2051 212 c 256
EndSplineSet
EndChar

StartChar: si_DUu
Encoding: 72 -1 72
GlifName: si_D_U_u
Width: 445
VWidth: 0
GlyphClass: 2
Flags: W
LayerCount: 2
Back
Fore
SplineSet
32.6387 -123.688 m 256
 32.6387 -104.945 35.5791 -84.6572 39.3711 -65.001 c 257
 75.3564 -69.001 l 257
 72.1221 -84.7656 69.4287 -101.794 69.4287 -117.07 c 256
 69.4287 -143.698 82.1934 -165.001 105.388 -165.001 c 256
 160.797 -165.001 210.388 -94 270.223 -94 c 256
 321.388 -94 359.312 -115.25 404 -179 c 257
 375 -202 l 257
 339.851 -148.75 305.037 -131 270.223 -131 c 256
 226.388 -131 174.388 -202.001 105.388 -202.001 c 256
 63.6143 -202.001 32.6387 -166.964 32.6387 -123.688 c 256
375 78 m 257
 375 114 l 257
 412 114 l 257
 412 -202 l 257
 375 -202 l 257
 375 78 l 257
38.2051 212 m 256
 38.2051 312.682 111.205 411 235.15 411 c 256
 259.431 411 307.205 411 331.007 411 c 257
 333.007 422 336.205 438.288 336.205 454 c 256
 336.205 524.746 294.123 557 245.761 557 c 256
 205.376 557 162.928 530.043 162.928 474 c 256
 162.928 431.347 184.672 406.53 193.835 398 c 257
 169.928 376 l 257
 157.928 387 129.452 419 129.452 474 c 256
 129.452 553 189.055 591 245.761 591 c 256
 310.317 591 370.205 548.099 370.205 454 c 256
 370.205 424.453 365.205 399.965 356.205 374 c 257
 356.205 374 278.205 374 235.15 374 c 256
 135.349 374 75.2051 295.036 75.2051 212 c 256
 75.2051 101.981 156.541 41.8418 239.048 41.8418 c 256
 290.328 41.8418 342.062 65.0742 375 114 c 257
 404.277 91.6963 l 257
 364.059 31.5459 300.893 2.99805 238.277 2.99805 c 256
 137.527 2.99805 38.2051 76.9082 38.2051 212 c 256
EndSplineSet
EndChar

StartChar: si_DV.halant
Encoding: 73 -1 73
GlifName: si_D_V_.halant
Width: 639
VWidth: 0
GlyphClass: 2
Flags: W
LayerCount: 2
Back
Fore
SplineSet
175.166 746 m 256
 175.166 795.266 218.676 864 379.166 864 c 256
 498.166 864 595.166 802.686 595.166 716 c 256
 595.166 663 560.919 625 512.166 606 c 257
 482.166 615 l 257
 504.166 640 l 257
 535.885 653.127 558.166 679.382 558.166 716 c 256
 558.166 781.014 477.782 827 379.166 827 c 256
 247.784 827 212.166 779.817 212.166 746 c 256
 212.166 712.768 239.35 683.519 265.166 668 c 257
 266.166 637 l 257
 238.166 646 l 257
 207.479 665.896 175.166 703.395 175.166 746 c 256
606 354 m 256
 606 126.541 519.039 3 367 3 c 256
 184.99 3 149 141.051 149 219 c 256
 149 284.815 170.052 335.013 206.403 363 c 256
 227.493 379.237 253.733 388 284 388 c 256
 333 388 401 388 401 388 c 257
 420 354 l 257
 284 354 l 258
 221.041 354 185 298.873 185 219 c 256
 185 154.403 215.047 40 367 40 c 256
 494.865 40 568 150.519 568 354 c 256
 568 586.303 471.006 651 352.166 651 c 256
 282.227 651 240.68 621.477 202.166 591 c 257
 178.166 620 l 257
 226.725 663.099 296.007 688 352.166 688 c 256
 491.929 688 606 615.243 606 354 c 256
188 420 m 256
 188 488 239.344 524 298 524 c 256
 362.556 524 422.444 481.099 422.444 387 c 256
 422.444 375.04 421.559 364.262 420 354 c 257
 388.62 379 l 257
 388.527 381.638 388.444 384.229 388.444 387 c 256
 388.444 457.746 346.362 490 298 490 c 256
 256.043 490 221.476 467 221.476 420 c 256
 221.476 395.6 231 376 244 364 c 256
 219.818 344 l 256
 204 358 188 388.023 188 420 c 256
33 283.999 m 256
 33 459.335 89.1377 506 142 506 c 256
 195.772 506 221.476 469.143 221.476 420 c 257
 188 420 l 257
 186.911 454.342 167.236 469 142 469 c 256
 97.9297 469 70 400.941 70 283.999 c 256
 70 114.294 111 49.0127 145 42.999 c 257
 145 5.99902 l 257
 83.6807 14.377 33 88.2393 33 283.999 c 256
EndSplineSet
EndChar

StartChar: si_DVI
Encoding: 74 -1 74
GlifName: si_D_V_I_
Width: 639
VWidth: 0
GlyphClass: 2
Flags: W
LayerCount: 2
Back
Fore
SplineSet
170.166 721 m 256
 170.166 786 218.676 864 379.166 864 c 256
 517.166 864 595.166 802.686 595.166 716 c 256
 595.166 650 556.166 606 491.166 594 c 257
 461.166 603 l 257
 483.166 628 l 257
 530.041 636.655 558.166 668.394 558.166 716 c 256
 558.166 781.014 493.527 827 379.166 827 c 256
 247.784 827 207.166 773 207.166 721 c 256
 207.166 679.743 231 645 284 645 c 256
 315.588 645 353.743 647 367 647 c 257
 383 630 l 257
 367 610 l 257
 327.258 610 318.931 608 284 608 c 256
 230 608 170.166 644.621 170.166 721 c 256
149 219 m 256
 149 284.815 170.052 335.013 206.403 363 c 256
 227.493 379.237 253.733 388 284 388 c 256
 333 388 401 388 401 388 c 257
 420 354 l 257
 284 354 l 258
 221.041 354 185 298.873 185 219 c 256
 185 154.403 215.047 40 367 40 c 256
 494.865 40 568 150.519 568 354 c 256
 568 586.303 485.84 610 367 610 c 257
 367 647 l 257
 506.763 647 606 615.243 606 354 c 256
 606 126.541 519.039 3 367 3 c 256
 184.99 3 149 141.051 149 219 c 256
188 420 m 256
 188 488 239.344 524 298 524 c 256
 362.556 524 422.444 481.099 422.444 387 c 256
 422.444 375.04 421.559 364.262 420 354 c 257
 388.62 379 l 257
 388.527 381.638 388.444 384.229 388.444 387 c 256
 388.444 457.746 346.362 490 298 490 c 256
 256.043 490 221.476 467 221.476 420 c 256
 221.476 395.6 231 376 244 364 c 256
 219.818 344 l 256
 204 358 188 388.023 188 420 c 256
33 283.999 m 256
 33 459.335 89.1377 506 142 506 c 256
 195.772 506 221.476 469.143 221.476 420 c 257
 188 420 l 257
 186.911 454.342 167.236 469 142 469 c 256
 97.9297 469 70 400.941 70 283.999 c 256
 70 114.294 111 49.0127 145 42.999 c 257
 145 5.99902 l 257
 83.6807 14.377 33 88.2393 33 283.999 c 256
EndSplineSet
EndChar

StartChar: si_DVIi
Encoding: 75 -1 75
GlifName: si_D_V_I_i
Width: 639
VWidth: 0
GlyphClass: 2
Flags: W
LayerCount: 2
Back
Fore
SplineSet
435.785 700.979 m 256
 435.785 668.418 461.784 641.488 494.685 641.488 c 256
 527.562 641.488 553.584 668.412 553.584 700.979 c 256
 553.584 733.538 527.586 760.47 494.685 760.47 c 256
 461.806 760.47 435.785 733.544 435.785 700.979 c 256
397.326 701 m 256
 397.326 754.756 440.492 797.921 494.247 797.921 c 256
 553.166 797.921 591.166 745 591.166 701 c 256
 591.166 647.245 547.999 604.079 494.247 604.079 c 256
 440.492 604.079 397.326 647.245 397.326 701 c 256
170.166 721 m 256
 170.166 786 218.676 864 379.166 864 c 256
 517.166 864 595.166 802.686 595.166 716 c 256
 595.166 682.02 583.576 650.031 562.166 631 c 256
 544.166 615 518.581 604.079 494.247 604.079 c 257
 464.247 613.079 l 257
 486.247 638.079 l 257
 539.166 638.079 558.166 673.846 558.166 716 c 256
 558.166 797 493.527 827 379.166 827 c 256
 247.784 827 207.166 773 207.166 721 c 256
 207.166 679.743 231 645 284 645 c 256
 315.588 645 353.743 647 367 647 c 257
 383 630 l 257
 367 610 l 257
 327.258 610 318.931 608 284 608 c 256
 230 608 170.166 644.621 170.166 721 c 256
149 219 m 256
 149 284.815 170.052 335.013 206.403 363 c 256
 227.493 379.237 253.733 388 284 388 c 256
 333 388 401 388 401 388 c 257
 420 354 l 257
 284 354 l 258
 221.041 354 185 298.873 185 219 c 256
 185 154.403 215.047 40 367 40 c 256
 494.865 40 568 150.519 568 354 c 256
 568 586.303 485.84 610 367 610 c 257
 367 647 l 257
 506.763 647 606 615.243 606 354 c 256
 606 126.541 519.039 3 367 3 c 256
 184.99 3 149 141.051 149 219 c 256
188 420 m 256
 188 488 239.344 524 298 524 c 256
 362.556 524 422.444 481.099 422.444 387 c 256
 422.444 375.04 421.559 364.262 420 354 c 257
 388.62 379 l 257
 388.527 381.638 388.444 384.229 388.444 387 c 256
 388.444 457.746 346.362 490 298 490 c 256
 256.043 490 221.476 467 221.476 420 c 256
 221.476 395.6 231 376 244 364 c 256
 219.818 344 l 256
 204 358 188 388.023 188 420 c 256
33 283.999 m 256
 33 459.335 89.1377 506 142 506 c 256
 195.772 506 221.476 469.143 221.476 420 c 257
 188 420 l 257
 186.911 454.342 167.236 469 142 469 c 256
 97.9297 469 70 400.941 70 283.999 c 256
 70 114.294 111 49.0127 145 42.999 c 257
 145 5.99902 l 257
 83.6807 14.377 33 88.2393 33 283.999 c 256
EndSplineSet
EndChar

StartChar: si_DVU
Encoding: 76 -1 76
GlifName: si_D_V_U_
Width: 639
VWidth: 0
GlyphClass: 2
Flags: W
LayerCount: 2
Back
Fore
SplineSet
167.251 -123.687 m 256
 167.251 -104.944 170.191 -84.6562 173.982 -65 c 257
 209.969 -69 l 257
 206.734 -84.7646 204.041 -101.793 204.041 -117.069 c 256
 204.041 -143.697 212.226 -165 240 -165 c 258
 563 -165 l 257
 563 -202 l 257
 240 -202 l 258
 182.928 -202 167.251 -166.963 167.251 -123.687 c 256
555 161 m 257
 560 202 l 257
 592 225 l 257
 592 -202 l 257
 555 -202 l 257
 555 161 l 257
149 219 m 256
 149 284.815 170.052 335.013 206.403 363 c 256
 227.493 379.237 253.733 388 284 388 c 256
 333 388 401 388 401 388 c 257
 420 354 l 257
 284 354 l 258
 221.041 354 185 298.873 185 219 c 256
 185 154.403 215.047 40 367 40 c 256
 494.865 40 568 150.519 568 354 c 256
 568 634.015 477.223 712 366 712 c 256
 295.128 712 237.324 665.927 214 605 c 257
 180 618 l 257
 218 716 305.968 749 366 749 c 256
 498.146 749 606 662.955 606 354 c 256
 606 126.541 519.039 3 367 3 c 256
 184.99 3 149 141.051 149 219 c 256
188 420 m 256
 188 488 239.344 524 298 524 c 256
 362.556 524 422.444 481.099 422.444 387 c 256
 422.444 375.04 421.559 364.262 420 354 c 257
 388.62 379 l 257
 388.527 381.638 388.444 384.229 388.444 387 c 256
 388.444 457.746 346.362 490 298 490 c 256
 256.043 490 221.476 467 221.476 420 c 256
 221.476 395.6 231 376 244 364 c 256
 219.818 344 l 256
 204 358 188 388.023 188 420 c 256
33 283.999 m 256
 33 459.335 89.1377 506 142 506 c 256
 195.772 506 221.476 469.143 221.476 420 c 257
 188 420 l 257
 186.911 454.342 167.236 469 142 469 c 256
 97.9297 469 70 400.941 70 283.999 c 256
 70 114.294 111 49.0127 145 42.999 c 257
 145 5.99902 l 257
 83.6807 14.377 33 88.2393 33 283.999 c 256
EndSplineSet
EndChar

StartChar: si_DVUu
Encoding: 77 -1 77
GlifName: si_D_V_U_u
Width: 639
VWidth: 0
GlyphClass: 2
Flags: W
LayerCount: 2
Back
Fore
SplineSet
167.251 -123.687 m 256
 167.251 -104.944 170.191 -84.6562 173.982 -65 c 257
 209.969 -69 l 257
 206.734 -84.7646 204.041 -101.793 204.041 -117.069 c 256
 204.041 -143.697 220.71 -165 251 -165 c 256
 317.969 -165 384.096 -94 450.223 -94 c 256
 494.768 -94 539.312 -115.25 584 -179 c 257
 555 -202 l 257
 519.851 -148.75 485.037 -131 450.223 -131 c 256
 384.655 -131 319.089 -202 251 -202 c 256
 202.91 -202 167.251 -166.963 167.251 -123.687 c 256
555 161 m 257
 560 202 l 257
 592 225 l 257
 592 -202 l 257
 555 -202 l 257
 555 161 l 257
149 219 m 256
 149 284.815 170.052 335.013 206.403 363 c 256
 227.493 379.237 253.733 388 284 388 c 256
 333 388 401 388 401 388 c 257
 420 354 l 257
 284 354 l 258
 221.041 354 185 298.873 185 219 c 256
 185 154.403 215.047 40 367 40 c 256
 494.865 40 568 150.519 568 354 c 256
 568 634.015 477.223 712 366 712 c 256
 295.128 712 237.324 665.927 214 605 c 257
 180 618 l 257
 218 716 305.968 749 366 749 c 256
 498.146 749 606 662.955 606 354 c 256
 606 126.541 519.039 3 367 3 c 256
 184.99 3 149 141.051 149 219 c 256
188 420 m 256
 188 488 239.344 524 298 524 c 256
 362.556 524 422.444 481.099 422.444 387 c 256
 422.444 375.04 421.559 364.262 420 354 c 257
 388.62 379 l 257
 388.527 381.638 388.444 384.229 388.444 387 c 256
 388.444 457.746 346.362 490 298 490 c 256
 256.043 490 221.476 467 221.476 420 c 256
 221.476 395.6 231 376 244 364 c 256
 219.818 344 l 256
 204 358 188 388.023 188 420 c 256
33 283.999 m 256
 33 459.335 89.1377 506 142 506 c 256
 195.772 506 221.476 469.143 221.476 420 c 257
 188 420 l 257
 186.911 454.342 167.236 469 142 469 c 256
 97.9297 469 70 400.941 70 283.999 c 256
 70 114.294 111 49.0127 145 42.999 c 257
 145 5.99902 l 257
 83.6807 14.377 33 88.2393 33 283.999 c 256
EndSplineSet
EndChar

StartChar: si_DVa
Encoding: 78 -1 78
GlifName: si_D_V_a
Width: 639
VWidth: 0
GlyphClass: 2
Flags: W
LayerCount: 2
Back
Fore
SplineSet
149 219 m 256
 149 284.815 170.052 335.013 206.403 363 c 256
 227.493 379.237 253.733 388 284 388 c 256
 333 388 401 388 401 388 c 257
 420 354 l 257
 284 354 l 258
 221.041 354 185 298.873 185 219 c 256
 185 154.403 215.047 40 367 40 c 256
 494.865 40 568 150.519 568 354 c 256
 568 634.015 477.223 712 366 712 c 256
 295.128 712 237.324 665.927 214 605 c 257
 180 618 l 257
 218 716 305.968 749 366 749 c 256
 498.146 749 606 662.955 606 354 c 256
 606 126.541 519.039 3 367 3 c 256
 184.99 3 149 141.051 149 219 c 256
188 420 m 256
 188 488 239.344 524 298 524 c 256
 362.556 524 422.444 481.099 422.444 387 c 256
 422.444 375.04 421.559 364.262 420 354 c 257
 388.62 379 l 257
 388.527 381.638 388.444 384.229 388.444 387 c 256
 388.444 457.746 346.362 490 298 490 c 256
 256.043 490 221.476 467 221.476 420 c 256
 221.476 395.6 231 376 244 364 c 256
 219.818 344 l 256
 204 358 188 388.023 188 420 c 256
33 283.999 m 256
 33 459.335 89.1377 506 142 506 c 256
 195.772 506 221.476 469.143 221.476 420 c 257
 188 420 l 257
 186.911 454.342 167.236 469 142 469 c 256
 97.9297 469 70 400.941 70 283.999 c 256
 70 114.294 111 49.0127 145 42.999 c 257
 145 5.99902 l 257
 83.6807 14.377 33 88.2393 33 283.999 c 256
EndSplineSet
EndChar

StartChar: si_DYAa.post
Encoding: 79 -1 79
GlifName: si_D_Y_A_a.post
Width: 1126
VWidth: 0
GlyphClass: 2
Flags: W
LayerCount: 2
Back
Fore
SplineSet
893.659 539 m 257
 912.237 545.033 930.466 548 947.903 548 c 256
 1029.2 548 1093 453.694 1093 280 c 256
 1093 106.306 1029.2 12 947.903 12 c 256
 930.466 12 912.237 14.9668 893.659 21 c 257
 899.659 57 l 257
 910.092 53.6396 928.87 49 947.903 49 c 256
 1008.47 49 1056 130.286 1056 280 c 256
 1056 429.714 1008.47 511 947.903 511 c 256
 928.87 511 910.092 506.36 899.659 503 c 257
 893.659 539 l 257
461.903 26 m 257
 468.215 32.6396 474.551 38.3057 480.903 43.1133 c 257
 504.376 60.876 528.067 66.9043 551.528 66.9043 c 256
 603.897 66.9043 655.182 40 700.903 40 c 256
 796.446 40 862.903 114.837 862.903 208 c 256
 862.903 339.461 784.447 364.353 733.903 364.353 c 258
 633.903 364.353 l 257
 633.903 402.217 634.06 449.001 637.842 470 c 256
 650.538 540.491 703.196 573 759.393 573 c 256
 816.099 573 875.701 535 875.701 456 c 256
 875.701 411.732 855.384 367.565 823.837 343 c 257
 797.837 364 l 257
 824.837 384 842.226 419.959 842.226 456 c 256
 842.226 512.043 799.777 539 759.393 539 c 256
 711.03 539 668.948 506.746 668.948 436 c 256
 668.948 417 668.948 411.001 668.948 397.001 c 257
 685.903 397.001 715.068 398.001 733.903 398.001 c 256
 798.944 398.001 899.903 367.752 899.903 208 c 256
 899.903 94.3184 833.57 3 700.903 3 c 256
 638.724 3 594.128 27.7207 550.536 27.7207 c 256
 528.824 27.7207 507.375 20.8799 483.903 0 c 257
 461.903 26 l 257
446.903 422 m 257
 446.903 546.743 502.895 573.322 554.566 573.322 c 256
 600.729 573.322 633.543 554.553 651.852 516 c 257
 663.129 492.252 668.903 460.998 668.903 422 c 256
 668.903 305.725 483.903 161.383 483.903 0 c 257
 446.903 0 l 257
 446.903 177.349 631.903 314.681 631.903 422 c 256
 631.903 498.624 608.383 536.322 554.566 536.322 c 256
 517.215 536.322 483.903 516.488 483.903 422 c 257
 446.903 422 l 257
32.9033 212 m 256
 32.9033 312.682 105.903 411 229.849 411 c 256
 254.129 411 301.903 411 325.705 411 c 257
 327.705 422 330.903 438.288 330.903 454 c 256
 330.903 524.746 288.821 557 240.459 557 c 256
 200.074 557 157.626 530.043 157.626 474 c 256
 157.626 431.347 179.37 406.53 188.533 398 c 257
 164.626 376 l 257
 152.626 387 124.15 419 124.15 474 c 256
 124.15 553 183.753 591 240.459 591 c 256
 305.016 591 364.903 548.099 364.903 454 c 256
 364.903 424.453 359.903 399.965 350.903 374 c 257
 350.903 374 272.903 374 229.849 374 c 256
 130.047 374 69.9033 295.036 69.9033 212 c 256
 69.9033 101.981 151.239 41.8418 233.746 41.8418 c 256
 285.026 41.8418 336.76 65.0742 369.698 114 c 257
 398.976 91.6963 l 257
 358.757 31.5459 295.591 2.99805 232.976 2.99805 c 256
 132.226 2.99805 32.9033 76.9082 32.9033 212 c 256
173.027 -57 m 256
 173.027 -24.1729 180.771 1.5957 205.698 34 c 257
 234.698 36 l 257
 236.698 17 l 257
 214.55 -8.83984 210.027 -30.4658 210.027 -57 c 256
 210.027 -111.588 250.494 -156.696 305.698 -156.696 c 256
 359.137 -156.696 393.116 -132.977 421.068 -83 c 257
 450.346 -105.304 l 257
 415.3 -164.568 372.698 -192.696 305.698 -192.696 c 256
 226.283 -192.696 173.027 -129.529 173.027 -57 c 256
EndSplineSet
EndChar

StartChar: si_DYOo.post
Encoding: 80 -1 80
GlifName: si_D_Y_O_o.post
Width: 1126
VWidth: 0
GlyphClass: 2
Flags: W
LayerCount: 2
Back
Fore
SplineSet
941.182 650 m 257
 948.182 684 l 257
 955.201 682.738 967.48 679.194 985.182 679.194 c 256
 1021.11 679.194 1052.18 700 1052.18 761 c 256
 1052.18 840.298 992.682 841 967.182 841 c 256
 964.162 841 958.182 841 958.182 841 c 257
 940.182 860 l 257
 967.182 875 l 257
 1003.18 875 1087.18 874 1087.18 761 c 256
 1087.18 676 1039.88 644.194 985.182 644.194 c 256
 970.773 644.194 955.937 646.109 941.182 650 c 257
932.182 875 m 257
 967.182 875 l 257
 967.182 867 l 257
 963.182 851 l 257
 963.182 674 l 257
 967.182 654 l 257
 967.182 520 l 257
 932.182 520 l 257
 932.182 875 l 257
893.659 539 m 257
 912.237 545.033 930.466 548 947.903 548 c 256
 1029.2 548 1093 453.694 1093 280 c 256
 1093 106.306 1029.2 12 947.903 12 c 256
 930.466 12 912.237 14.9668 893.659 21 c 257
 899.659 57 l 257
 910.092 53.6396 928.87 49 947.903 49 c 256
 1008.47 49 1056 130.286 1056 280 c 256
 1056 429.714 1008.47 511 947.903 511 c 256
 928.87 511 910.092 506.36 899.659 503 c 257
 893.659 539 l 257
461.903 26 m 257
 468.215 32.6396 474.551 38.3057 480.903 43.1133 c 257
 504.376 60.876 528.067 66.9043 551.528 66.9043 c 256
 603.897 66.9043 655.182 40 700.903 40 c 256
 796.446 40 862.903 114.837 862.903 208 c 256
 862.903 339.461 784.447 364.353 733.903 364.353 c 258
 633.903 364.353 l 257
 633.903 402.217 634.06 449.001 637.842 470 c 256
 650.538 540.491 703.196 573 759.393 573 c 256
 816.099 573 875.701 535 875.701 456 c 256
 875.701 411.732 855.384 367.565 823.837 343 c 257
 797.837 364 l 257
 824.837 384 842.226 419.959 842.226 456 c 256
 842.226 512.043 799.777 539 759.393 539 c 256
 711.03 539 668.948 506.746 668.948 436 c 256
 668.948 417 668.948 411.001 668.948 397.001 c 257
 685.903 397.001 715.068 398.001 733.903 398.001 c 256
 798.944 398.001 899.903 367.752 899.903 208 c 256
 899.903 94.3184 833.57 3 700.903 3 c 256
 638.724 3 594.128 27.7207 550.536 27.7207 c 256
 528.824 27.7207 507.375 20.8799 483.903 0 c 257
 461.903 26 l 257
446.903 422 m 257
 446.903 546.743 502.895 573.322 554.566 573.322 c 256
 600.729 573.322 633.543 554.553 651.852 516 c 257
 663.129 492.252 668.903 460.998 668.903 422 c 256
 668.903 305.725 483.903 161.383 483.903 0 c 257
 446.903 0 l 257
 446.903 177.349 631.903 314.681 631.903 422 c 256
 631.903 498.624 608.383 536.322 554.566 536.322 c 256
 517.215 536.322 483.903 516.488 483.903 422 c 257
 446.903 422 l 257
32.9033 212 m 256
 32.9033 312.682 105.903 411 229.849 411 c 256
 254.129 411 301.903 411 325.705 411 c 257
 327.705 422 330.903 438.288 330.903 454 c 256
 330.903 524.746 288.821 557 240.459 557 c 256
 200.074 557 157.626 530.043 157.626 474 c 256
 157.626 431.347 179.37 406.53 188.533 398 c 257
 164.626 376 l 257
 152.626 387 124.15 419 124.15 474 c 256
 124.15 553 183.753 591 240.459 591 c 256
 305.016 591 364.903 548.099 364.903 454 c 256
 364.903 424.453 359.903 399.965 350.903 374 c 257
 350.903 374 272.903 374 229.849 374 c 256
 130.047 374 69.9033 295.036 69.9033 212 c 256
 69.9033 101.981 151.239 41.8418 233.746 41.8418 c 256
 285.026 41.8418 336.76 65.0742 369.698 114 c 257
 398.976 91.6963 l 257
 358.757 31.5459 295.591 2.99805 232.976 2.99805 c 256
 132.226 2.99805 32.9033 76.9082 32.9033 212 c 256
173.027 -57 m 256
 173.027 -24.1729 180.771 1.5957 205.698 34 c 257
 234.698 36 l 257
 236.698 17 l 257
 214.55 -8.83984 210.027 -30.4658 210.027 -57 c 256
 210.027 -111.588 250.494 -156.696 305.698 -156.696 c 256
 359.137 -156.696 393.116 -132.977 421.068 -83 c 257
 450.346 -105.304 l 257
 415.3 -164.568 372.698 -192.696 305.698 -192.696 c 256
 226.283 -192.696 173.027 -129.529 173.027 -57 c 256
EndSplineSet
EndChar

StartChar: si_DYUu.post
Encoding: 81 -1 81
GlifName: si_D_Y_U_u.post
Width: 933
VWidth: 0
GlyphClass: 2
Flags: W
LayerCount: 2
Back
Fore
SplineSet
471.251 -123.687 m 256
 471.251 -104.944 474.191 -84.6562 477.982 -65 c 257
 513.969 -69 l 257
 510.734 -84.7646 508.041 -101.793 508.041 -117.069 c 256
 508.041 -143.697 524.71 -165 555 -165 c 256
 601.574 -165 648 -94 726 -94 c 256
 764.768 -94 811.242 -115.25 854 -179 c 257
 825 -202 l 257
 789.851 -148.75 755.037 -131 720.223 -131 c 256
 665.845 -131 611.469 -202 555 -202 c 256
 506.91 -202 471.251 -166.963 471.251 -123.687 c 256
825 56 m 257
 834 90 l 257
 862 120 l 257
 862 -202 l 257
 825 -202 l 257
 825 56 l 257
462 26 m 257
 468.311 32.6393 474.648 38.306 481 43.1133 c 257
 504.472 60.8762 528.164 66.9043 551.625 66.9043 c 256
 603.994 66.9043 655.278 40 701 40 c 256
 796.543 40 863 114.837 863 208 c 256
 863 339.461 784.544 364.353 734 364.353 c 258
 634 364.353 l 257
 634 402.217 634.156 449.001 637.938 470 c 256
 650.635 540.491 703.293 573 759.489 573 c 256
 816.195 573 875.798 535 875.798 456 c 256
 875.798 411.732 855.48 367.565 823.934 343 c 257
 797.934 364 l 257
 824.934 384 842.322 419.959 842.322 456 c 256
 842.322 512.043 799.874 539 759.489 539 c 256
 711.127 539 669.045 506.746 669.045 436 c 256
 669.045 417 669.045 411.001 669.045 397.001 c 257
 686 397.001 715.165 398.001 734 398.001 c 256
 799.041 398.001 900 367.752 900 208 c 256
 900 94.3186 833.667 3 701 3 c 256
 638.82 3 594.225 27.7207 550.633 27.7207 c 256
 528.921 27.7207 507.472 20.8796 484 0 c 257
 462 26 l 257
447 422 m 257
 447 546.743 502.991 573.322 554.663 573.322 c 256
 600.826 573.322 633.64 554.553 651.948 516 c 257
 663.226 492.252 669 460.998 669 422 c 256
 669 305.724 484 161.382 484 0 c 257
 447 0 l 257
 447 177.349 632 314.681 632 422 c 256
 632 498.624 608.479 536.322 554.663 536.322 c 256
 517.312 536.322 484 516.489 484 422 c 257
 447 422 l 257
33 212 m 256
 33 312.682 106 411 229.945 411 c 256
 254.226 411 302 411 325.802 411 c 257
 327.802 422 331 438.288 331 454 c 256
 331 524.746 288.918 557 240.556 557 c 256
 200.171 557 157.723 530.043 157.723 474 c 256
 157.723 431.347 179.467 406.53 188.63 398 c 257
 164.723 376 l 257
 152.723 387 124.247 419 124.247 474 c 256
 124.247 553 183.85 591 240.556 591 c 256
 305.112 591 365 548.099 365 454 c 256
 365 424.453 360 399.965 351 374 c 257
 351 374 273 374 229.945 374 c 256
 130.144 374 70 295.036 70 212 c 256
 70 101.981 151.336 41.8418 233.843 41.8418 c 256
 285.123 41.8418 336.856 65.0742 369.795 114 c 257
 399.072 91.6963 l 257
 358.854 31.5459 295.688 2.99805 233.072 2.99805 c 256
 132.322 2.99805 33 76.9082 33 212 c 256
173.124 -57 m 256
 173.124 -24.1729 180.868 1.5957 205.795 34 c 257
 234.795 36 l 257
 236.795 17 l 257
 214.646 -8.83984 210.124 -30.4658 210.124 -57 c 256
 210.124 -111.588 250.591 -156.696 305.795 -156.696 c 256
 349.378 -156.696 380.017 -140.919 405 -107.988 c 257
 430 -135.154 l 257
 398.709 -174.057 360.336 -192.696 305.795 -192.696 c 256
 226.38 -192.696 173.124 -129.529 173.124 -57 c 256
EndSplineSet
EndChar

StartChar: si_DYa.post
Encoding: 82 -1 82
GlifName: si_D_Y_a.post
Width: 933
VWidth: 0
GlyphClass: 2
Flags: W
LayerCount: 2
Back
Fore
SplineSet
462 26 m 257
 468.311 32.6393 474.648 38.306 481 43.1133 c 257
 504.472 60.8762 528.164 66.9043 551.625 66.9043 c 256
 603.994 66.9043 655.278 40 701 40 c 256
 796.543 40 863 114.837 863 208 c 256
 863 339.461 784.544 364.353 734 364.353 c 258
 634 364.353 l 257
 634 402.217 634.156 449.001 637.938 470 c 256
 650.635 540.491 703.293 573 759.489 573 c 256
 816.195 573 875.798 535 875.798 456 c 256
 875.798 411.732 855.48 367.565 823.934 343 c 257
 797.934 364 l 257
 824.934 384 842.322 419.959 842.322 456 c 256
 842.322 512.043 799.874 539 759.489 539 c 256
 711.127 539 669.045 506.746 669.045 436 c 256
 669.045 417 669.045 411.001 669.045 397.001 c 257
 686 397.001 715.165 398.001 734 398.001 c 256
 799.041 398.001 900 367.752 900 208 c 256
 900 94.3186 833.667 3 701 3 c 256
 638.82 3 594.225 27.7207 550.633 27.7207 c 256
 528.921 27.7207 507.472 20.8796 484 0 c 257
 462 26 l 257
447 422 m 257
 447 546.743 502.991 573.322 554.663 573.322 c 256
 600.826 573.322 633.64 554.553 651.948 516 c 257
 663.226 492.252 669 460.998 669 422 c 256
 669 305.724 484 161.382 484 0 c 257
 447 0 l 257
 447 177.349 632 314.681 632 422 c 256
 632 498.624 608.479 536.322 554.663 536.322 c 256
 517.312 536.322 484 516.489 484 422 c 257
 447 422 l 257
33 212 m 256
 33 312.682 106 411 229.945 411 c 256
 254.226 411 302 411 325.802 411 c 257
 327.802 422 331 438.288 331 454 c 256
 331 524.746 288.918 557 240.556 557 c 256
 200.171 557 157.723 530.043 157.723 474 c 256
 157.723 431.347 179.467 406.53 188.63 398 c 257
 164.723 376 l 257
 152.723 387 124.247 419 124.247 474 c 256
 124.247 553 183.85 591 240.556 591 c 256
 305.112 591 365 548.099 365 454 c 256
 365 424.453 360 399.965 351 374 c 257
 351 374 273 374 229.945 374 c 256
 130.144 374 70 295.036 70 212 c 256
 70 101.981 151.336 41.8418 233.843 41.8418 c 256
 285.123 41.8418 336.856 65.0742 369.795 114 c 257
 399.072 91.6963 l 257
 358.854 31.5459 295.688 2.99805 233.072 2.99805 c 256
 132.322 2.99805 33 76.9082 33 212 c 256
173.124 -57 m 256
 173.124 -24.1729 180.868 1.5957 205.795 34 c 257
 234.795 36 l 257
 236.795 17 l 257
 214.646 -8.83984 210.124 -30.4658 210.124 -57 c 256
 210.124 -111.588 250.591 -156.696 305.795 -156.696 c 256
 359.233 -156.696 393.213 -132.977 421.165 -83 c 257
 450.442 -105.304 l 257
 415.396 -164.568 372.795 -192.696 305.795 -192.696 c 256
 226.38 -192.696 173.124 -129.529 173.124 -57 c 256
EndSplineSet
EndChar

StartChar: si_DYu.post
Encoding: 83 -1 83
GlifName: si_D_Y_u.post
Width: 933
VWidth: 0
GlyphClass: 2
Flags: W
LayerCount: 2
Back
Fore
SplineSet
471.251 -123.687 m 256
 471.251 -104.944 474.191 -84.6562 477.982 -65 c 257
 513.969 -69 l 257
 510.734 -84.7646 508.041 -101.793 508.041 -117.069 c 256
 508.041 -143.697 516.226 -165 544 -165 c 258
 833 -165 l 257
 833 -202 l 257
 544 -202 l 258
 486.928 -202 471.251 -166.963 471.251 -123.687 c 256
825 56 m 257
 834 90 l 257
 862 120 l 257
 862 -202 l 257
 825 -202 l 257
 825 56 l 257
462 26 m 257
 468.311 32.6393 474.648 38.306 481 43.1133 c 257
 504.472 60.8762 528.164 66.9043 551.625 66.9043 c 256
 603.994 66.9043 655.278 40 701 40 c 256
 796.543 40 863 114.837 863 208 c 256
 863 339.461 784.544 364.353 734 364.353 c 258
 634 364.353 l 257
 634 402.217 634.156 449.001 637.938 470 c 256
 650.635 540.491 703.293 573 759.489 573 c 256
 816.195 573 875.798 535 875.798 456 c 256
 875.798 411.732 855.48 367.565 823.934 343 c 257
 797.934 364 l 257
 824.934 384 842.322 419.959 842.322 456 c 256
 842.322 512.043 799.874 539 759.489 539 c 256
 711.127 539 669.045 506.746 669.045 436 c 256
 669.045 417 669.045 411.001 669.045 397.001 c 257
 686 397.001 715.165 398.001 734 398.001 c 256
 799.041 398.001 900 367.752 900 208 c 256
 900 94.3186 833.667 3 701 3 c 256
 638.82 3 594.225 27.7207 550.633 27.7207 c 256
 528.921 27.7207 507.472 20.8796 484 0 c 257
 462 26 l 257
447 422 m 257
 447 546.743 502.991 573.322 554.663 573.322 c 256
 600.826 573.322 633.64 554.553 651.948 516 c 257
 663.226 492.252 669 460.998 669 422 c 256
 669 305.724 484 161.382 484 0 c 257
 447 0 l 257
 447 177.349 632 314.681 632 422 c 256
 632 498.624 608.479 536.322 554.663 536.322 c 256
 517.312 536.322 484 516.489 484 422 c 257
 447 422 l 257
33 212 m 256
 33 312.682 106 411 229.945 411 c 256
 254.226 411 302 411 325.802 411 c 257
 327.802 422 331 438.288 331 454 c 256
 331 524.746 288.918 557 240.556 557 c 256
 200.171 557 157.723 530.043 157.723 474 c 256
 157.723 431.347 179.467 406.53 188.63 398 c 257
 164.723 376 l 257
 152.723 387 124.247 419 124.247 474 c 256
 124.247 553 183.85 591 240.556 591 c 256
 305.112 591 365 548.099 365 454 c 256
 365 424.453 360 399.965 351 374 c 257
 351 374 273 374 229.945 374 c 256
 130.144 374 70 295.036 70 212 c 256
 70 101.981 151.336 41.8418 233.843 41.8418 c 256
 285.123 41.8418 336.856 65.0742 369.795 114 c 257
 399.072 91.6963 l 257
 358.854 31.5459 295.688 2.99805 233.072 2.99805 c 256
 132.322 2.99805 33 76.9082 33 212 c 256
173.124 -57 m 256
 173.124 -24.1729 180.868 1.5957 205.795 34 c 257
 234.795 36 l 257
 236.795 17 l 257
 214.646 -8.83984 210.124 -30.4658 210.124 -57 c 256
 210.124 -111.588 250.591 -156.696 305.795 -156.696 c 256
 349.378 -156.696 380.017 -140.919 405 -107.988 c 257
 430 -135.154 l 257
 398.709 -174.057 360.336 -192.696 305.795 -192.696 c 256
 226.38 -192.696 173.124 -129.529 173.124 -57 c 256
EndSplineSet
EndChar

StartChar: si_Da
Encoding: 84 3503 84
GlifName: si_D_a
Width: 420
VWidth: 0
GlyphClass: 2
Flags: W
LayerCount: 2
Back
Fore
SplineSet
33 212 m 256
 33 312.682 106 411 229.945 411 c 256
 254.226 411 302 411 325.802 411 c 257
 327.802 422 331 438.288 331 454 c 256
 331 524.746 288.918 557 240.556 557 c 256
 200.171 557 157.723 530.043 157.723 474 c 256
 157.723 431.347 179.467 406.53 188.63 398 c 257
 164.723 376 l 257
 152.723 387 124.247 419 124.247 474 c 256
 124.247 553 183.85 591 240.556 591 c 256
 305.112 591 365 548.099 365 454 c 256
 365 424.453 360 399.965 351 374 c 257
 351 374 273 374 229.945 374 c 256
 130.144 374 70 295.036 70 212 c 256
 70 101.981 151.336 41.8418 233.843 41.8418 c 256
 285.123 41.8418 336.856 65.0742 369.795 114 c 257
 399.072 91.6963 l 257
 358.854 31.5459 295.688 2.99805 233.072 2.99805 c 256
 132.322 2.99805 33 76.9082 33 212 c 256
173.124 -57 m 256
 173.124 -24.1729 180.868 1.5957 205.795 34 c 257
 234.795 36 l 257
 236.795 17 l 257
 214.646 -8.83984 210.124 -30.4658 210.124 -57 c 256
 210.124 -111.588 250.591 -156.696 305.795 -156.696 c 256
 359.233 -156.696 393.213 -132.977 421.165 -83 c 257
 450.442 -105.304 l 257
 415.396 -164.568 372.795 -192.696 305.795 -192.696 c 256
 226.38 -192.696 173.124 -129.529 173.124 -57 c 256
EndSplineSet
EndChar

StartChar: si_Da.reph
Encoding: 85 -1 85
GlifName: si_D_a.reph
Width: 430
VWidth: 0
GlyphClass: 2
Flags: W
LayerCount: 2
Back
Fore
SplineSet
124.558 672.571 m 256
 124.558 754.24 180.79 811.829 268.558 811.829 c 256
 354.354 811.829 419.489 759.377 419.489 673.128 c 256
 419.489 616.39 388.024 558.346 328.86 528 c 257
 313.558 560 l 257
 370.901 590.458 382.523 641.069 382.523 673.128 c 256
 382.523 733.542 340.535 774.829 268.558 774.829 c 256
 200.903 774.829 157.558 732.541 157.558 672.571 c 256
 157.558 652.869 175.154 604.414 185.558 594 c 257
 216.558 577 l 257
 184.558 565 l 257
 146.558 581 124.558 619.939 124.558 672.571 c 256
165.922 647.764 m 256
 165.922 617.068 190.862 592.128 221.558 592.128 c 256
 252.253 592.128 277.193 617.068 277.193 647.764 c 256
 277.193 678.459 252.253 703.399 221.558 703.399 c 256
 190.862 703.399 165.922 678.459 165.922 647.764 c 256
138.558 648 m 256
 138.558 696.552 175.765 736 221.558 736 c 256
 271.634 736 312.321 696.445 312.321 647.764 c 256
 312.321 597.688 271.634 557 221.558 557 c 256
 175.765 557 138.558 597.793 138.558 648 c 256
32.5576 212 m 256
 32.5576 312.682 105.558 411 229.503 411 c 256
 253.783 411 301.558 411 325.359 411 c 257
 327.359 422 330.558 438.288 330.558 454 c 256
 330.558 524.746 288.476 557 240.113 557 c 256
 199.729 557 157.28 530.043 157.28 474 c 256
 157.28 431.347 179.024 406.53 188.188 398 c 257
 164.28 376 l 257
 152.28 387 123.805 419 123.805 474 c 256
 123.805 553 183.407 591 240.113 591 c 256
 304.67 591 364.558 548.099 364.558 454 c 256
 364.558 424.453 359.558 399.965 350.558 374 c 257
 350.558 374 272.558 374 229.503 374 c 256
 129.701 374 69.5576 295.036 69.5576 212 c 256
 69.5576 101.981 150.894 41.8418 233.4 41.8418 c 256
 284.681 41.8418 336.414 65.0742 369.353 114 c 257
 398.63 91.6963 l 257
 358.411 31.5459 295.245 2.99805 232.63 2.99805 c 256
 131.88 2.99805 32.5576 76.9082 32.5576 212 c 256
172.682 -57 m 256
 172.682 -24.1729 180.426 1.5957 205.353 34 c 257
 234.353 36 l 257
 236.353 17 l 257
 214.204 -8.83984 209.682 -30.4658 209.682 -57 c 256
 209.682 -111.588 250.148 -156.696 305.353 -156.696 c 256
 358.791 -156.696 392.771 -132.977 420.723 -83 c 257
 450 -105.304 l 257
 414.954 -164.568 372.353 -192.696 305.353 -192.696 c 256
 225.938 -192.696 172.682 -129.529 172.682 -57 c 256
EndSplineSet
EndChar

StartChar: si_Dd.halant
Encoding: 87 -1 87
GlifName: si_D_d.halant
Width: 562
VWidth: 0
GlyphClass: 2
Flags: W
LayerCount: 2
Back
Fore
SplineSet
68.9434 746 m 256
 68.9434 795.266 112.453 864 272.943 864 c 256
 398.505 864 500.853 801.028 500.853 712 c 256
 500.853 659 466.605 621 417.853 602 c 257
 387.853 611 l 257
 409.853 636 l 257
 441.571 649.127 463.853 675.382 463.853 712 c 256
 463.853 779.357 378.12 827 272.943 827 c 256
 141.562 827 105.943 779.817 105.943 746 c 256
 105.943 712.768 133.127 683.519 158.943 668 c 257
 159.943 637 l 257
 131.943 646 l 257
 101.257 665.896 68.9434 703.395 68.9434 746 c 256
33.2432 179.103 m 256
 33.2432 248 53.2217 327 87.2217 354 c 257
 33 354 l 257
 33 389 l 257
 310.283 389 l 257
 318.007 354 l 257
 181.071 354 l 258
 83.2959 354 70.2432 236.715 70.2432 179.103 c 256
 70.2432 101.944 94.6426 40 156.687 40 c 256
 247.853 40 254.444 148.886 257.687 224.5 c 257
 291.687 224.5 l 257
 294.929 148.886 301.521 40 392.687 40 c 256
 485.42 40 492.243 164 492.243 293 c 256
 492.243 582 364.783 651 245.943 651 c 256
 176.004 651 134.457 621.477 95.9434 591 c 257
 71.9434 620 l 257
 120.502 663.099 189.784 688 245.943 688 c 256
 382.636 688 529.243 611.869 529.243 293 c 256
 529.243 145.132 519.884 3 392.687 3 c 256
 297.521 3 278.521 85 274.687 115 c 257
 270.853 85 251.853 3 156.687 3 c 256
 68.0869 3 33.2432 81.4209 33.2432 179.103 c 256
86.0068 420 m 256
 86.0068 488 137.351 524 196.007 524 c 256
 260.563 524 320.451 481.099 320.451 387 c 256
 320.451 375.04 319.565 364.262 318.007 354 c 257
 286.627 379 l 257
 286.534 381.638 286.451 384.229 286.451 387 c 256
 286.451 457.746 244.369 490 196.007 490 c 256
 154.05 490 119.482 467 119.482 420 c 256
 119.482 395.6 129.007 376 142.007 364 c 256
 117.825 344 l 256
 102.007 358 86.0068 388.023 86.0068 420 c 256
EndSplineSet
EndChar

StartChar: si_DdI
Encoding: 88 -1 88
GlifName: si_D_dI_
Width: 562
VWidth: 0
GlyphClass: 2
Flags: W
LayerCount: 2
Back
Fore
SplineSet
68.5107 720.999 m 256
 68.5107 785.999 117.021 863.999 277.511 863.999 c 256
 415.511 863.999 493.511 802.685 493.511 715.999 c 256
 493.511 649.999 454.511 605.999 389.511 593.999 c 257
 359.511 602.999 l 257
 381.511 627.999 l 257
 428.386 636.654 456.511 668.393 456.511 715.999 c 256
 456.511 781.013 391.872 826.999 277.511 826.999 c 256
 146.129 826.999 105.511 772.999 105.511 720.999 c 256
 105.511 679.742 129.345 644.999 182.345 644.999 c 256
 213.933 644.999 252.088 646.999 265.345 646.999 c 257
 281.345 629.999 l 257
 265.345 609.999 l 257
 225.603 609.999 217.275 607.999 182.345 607.999 c 256
 128.345 607.999 68.5107 644.62 68.5107 720.999 c 256
33.2432 179.103 m 256
 33.2432 248 53.2217 327 87.2217 354 c 257
 33 354 l 257
 33 389 l 257
 310.283 389 l 257
 318.007 354 l 257
 181.071 354 l 258
 83.2959 354 70.2432 236.715 70.2432 179.103 c 256
 70.2432 101.944 94.6426 40 156.687 40 c 256
 247.853 40 254.444 148.886 257.687 224.5 c 257
 291.687 224.5 l 257
 294.929 148.886 301.521 40 392.687 40 c 256
 485.42 40 492.243 164 492.243 293 c 256
 492.243 507.777 441.216 609.999 265.345 609.999 c 257
 265.345 646.999 l 257
 469.895 646.999 529.243 532.846 529.243 293 c 256
 529.243 145.135 519.884 3 392.687 3 c 256
 297.521 3 278.521 85 274.687 115 c 257
 270.853 85 251.853 3 156.687 3 c 256
 68.0869 3 33.2432 81.4209 33.2432 179.103 c 256
86.0068 420 m 256
 86.0068 488 137.351 524 196.007 524 c 256
 260.563 524 320.451 481.099 320.451 387 c 256
 320.451 375.04 319.565 364.262 318.007 354 c 257
 286.627 379 l 257
 286.534 381.638 286.451 384.229 286.451 387 c 256
 286.451 457.746 244.369 490 196.007 490 c 256
 154.05 490 119.482 467 119.482 420 c 256
 119.482 395.6 129.007 376 142.007 364 c 256
 117.825 344 l 256
 102.007 358 86.0068 388.023 86.0068 420 c 256
EndSplineSet
EndChar

StartChar: si_DdIi
Encoding: 89 -1 89
GlifName: si_D_dI_i
Width: 562
VWidth: 0
GlyphClass: 2
Flags: W
LayerCount: 2
Back
Fore
SplineSet
334.13 700.978 m 256
 334.13 668.417 360.129 641.487 393.029 641.487 c 256
 425.907 641.487 451.929 668.411 451.929 700.978 c 256
 451.929 733.537 425.931 760.469 393.029 760.469 c 256
 360.15 760.469 334.13 733.543 334.13 700.978 c 256
295.671 700.999 m 256
 295.671 754.755 338.837 797.92 392.592 797.92 c 256
 451.511 797.92 489.511 744.999 489.511 700.999 c 256
 489.511 647.244 446.344 604.078 392.592 604.078 c 256
 338.837 604.078 295.671 647.244 295.671 700.999 c 256
68.5107 720.999 m 256
 68.5107 785.999 117.021 863.999 277.511 863.999 c 256
 415.511 863.999 493.511 802.685 493.511 715.999 c 256
 493.511 682.019 481.921 650.03 460.511 630.999 c 256
 442.511 614.999 416.926 604.078 392.592 604.078 c 257
 362.592 613.078 l 257
 384.592 638.078 l 257
 437.511 638.078 456.511 673.845 456.511 715.999 c 256
 456.511 796.999 391.872 826.999 277.511 826.999 c 256
 146.129 826.999 105.511 772.999 105.511 720.999 c 256
 105.511 679.742 129.345 644.999 182.345 644.999 c 256
 213.933 644.999 252.088 646.999 265.345 646.999 c 257
 281.345 629.999 l 257
 265.345 609.999 l 257
 225.603 609.999 217.275 607.999 182.345 607.999 c 256
 128.345 607.999 68.5107 644.62 68.5107 720.999 c 256
33.2432 179.103 m 256
 33.2432 248 53.2217 327 87.2217 354 c 257
 33 354 l 257
 33 389 l 257
 310.283 389 l 257
 318.007 354 l 257
 181.071 354 l 258
 83.2959 354 70.2432 236.715 70.2432 179.103 c 256
 70.2432 101.944 94.6426 40 156.687 40 c 256
 247.853 40 254.444 148.886 257.687 224.5 c 257
 291.687 224.5 l 257
 294.929 148.886 301.521 40 392.687 40 c 256
 485.42 40 492.243 164 492.243 293 c 256
 492.243 507.777 441.216 609.999 265.345 609.999 c 257
 265.345 646.999 l 257
 469.895 646.999 529.243 532.846 529.243 293 c 256
 529.243 145.135 519.884 3 392.687 3 c 256
 297.521 3 278.521 85 274.687 115 c 257
 270.853 85 251.853 3 156.687 3 c 256
 68.0869 3 33.2432 81.4209 33.2432 179.103 c 256
86.0068 420 m 256
 86.0068 488 137.351 524 196.007 524 c 256
 260.563 524 320.451 481.099 320.451 387 c 256
 320.451 375.04 319.565 364.262 318.007 354 c 257
 286.627 379 l 257
 286.534 381.638 286.451 384.229 286.451 387 c 256
 286.451 457.746 244.369 490 196.007 490 c 256
 154.05 490 119.482 467 119.482 420 c 256
 119.482 395.6 129.007 376 142.007 364 c 256
 117.825 344 l 256
 102.007 358 86.0068 388.023 86.0068 420 c 256
EndSplineSet
EndChar

StartChar: si_DdR.halant
Encoding: 90 -1 90
GlifName: si_D_dR_.halant
Width: 562
VWidth: 0
GlyphClass: 2
Flags: W
LayerCount: 2
Back
Fore
SplineSet
44.2441 -104 m 256
 81.2441 -104 l 256
 81.2441 -187.151 160.744 -244 278.743 -244 c 256
 396.743 -244 476.243 -187.151 476.243 -104 c 256
 476.243 -39.4941 456.202 -4.05957 423.799 19 c 257
 420.243 42 l 257
 449.264 41 l 257
 488.721 12.6338 513.243 -33.1064 513.243 -104 c 256
 513.243 -213.491 411.363 -281 278.743 -281 c 256
 146.124 -281 44.2441 -213.491 44.2441 -104 c 256
EndSplineSet
Refer: 87 -1 N 1 0 0 1 0 0 2
EndChar

StartChar: si_DdRI
Encoding: 91 -1 91
GlifName: si_D_dR_I_
Width: 562
VWidth: 0
GlyphClass: 2
Flags: W
LayerCount: 2
Back
Fore
SplineSet
44.2441 -104 m 256
 81.2441 -104 l 256
 81.2441 -187.151 160.744 -244 278.743 -244 c 256
 396.743 -244 476.243 -187.151 476.243 -104 c 256
 476.243 -39.4941 456.202 -4.05957 423.799 19 c 257
 420.243 42 l 257
 449.264 41 l 257
 488.721 12.6338 513.243 -33.1064 513.243 -104 c 256
 513.243 -213.491 411.363 -281 278.743 -281 c 256
 146.124 -281 44.2441 -213.491 44.2441 -104 c 256
EndSplineSet
Refer: 88 -1 N 1 0 0 1 0 0 2
EndChar

StartChar: si_DdRIi
Encoding: 92 -1 92
GlifName: si_D_dR_I_i
Width: 562
VWidth: 0
GlyphClass: 2
Flags: W
LayerCount: 2
Back
Fore
SplineSet
44.2441 -104 m 256
 81.2441 -104 l 256
 81.2441 -187.151 160.744 -244 278.743 -244 c 256
 396.743 -244 476.243 -187.151 476.243 -104 c 256
 476.243 -39.4941 456.202 -4.05957 423.799 19 c 257
 420.243 42 l 257
 449.264 41 l 257
 488.721 12.6338 513.243 -33.1064 513.243 -104 c 256
 513.243 -213.491 411.363 -281 278.743 -281 c 256
 146.124 -281 44.2441 -213.491 44.2441 -104 c 256
EndSplineSet
Refer: 89 -1 N 1 0 0 1 0 0 2
EndChar

StartChar: si_DdRa
Encoding: 93 -1 93
GlifName: si_D_dR_a
Width: 562
VWidth: 0
GlyphClass: 2
Flags: W
LayerCount: 2
Back
Fore
SplineSet
44.2441 -104 m 256
 81.2441 -104 l 256
 81.2441 -187.151 160.744 -244 278.743 -244 c 256
 396.743 -244 476.243 -187.151 476.243 -104 c 256
 476.243 -39.4941 456.202 -4.05957 423.799 19 c 257
 420.243 42 l 257
 449.264 41 l 257
 488.721 12.6338 513.243 -33.1064 513.243 -104 c 256
 513.243 -213.491 411.363 -281 278.743 -281 c 256
 146.124 -281 44.2441 -213.491 44.2441 -104 c 256
33.2432 179.103 m 256
 33.2432 248 53.2217 327 87.2217 354 c 257
 33 354 l 257
 33 389 l 257
 310.283 389 l 257
 318.007 354 l 257
 181.071 354 l 258
 83.2959 354 70.2432 236.715 70.2432 179.103 c 256
 70.2432 101.944 94.6426 40 156.687 40 c 256
 247.853 40 254.444 148.886 257.687 224.5 c 257
 291.687 224.5 l 257
 294.929 148.886 301.521 40 392.687 40 c 256
 485.42 40 492.243 164 492.243 293 c 256
 492.243 576.887 417.792 712 264.687 712 c 256
 193.814 712 125.338 665.927 102.014 605 c 257
 68.0137 618 l 257
 96.2129 692.593 179.001 749 264.687 749 c 256
 442.687 749 529.243 601.955 529.243 293 c 256
 529.243 145.135 519.884 3 392.687 3 c 256
 297.521 3 278.521 85 274.687 115 c 257
 270.853 85 251.853 3 156.687 3 c 256
 68.0869 3 33.2432 81.4209 33.2432 179.103 c 256
86.0068 420 m 256
 86.0068 488 137.351 524 196.007 524 c 256
 260.563 524 320.451 481.099 320.451 387 c 256
 320.451 375.04 319.565 364.262 318.007 354 c 257
 286.627 379 l 257
 286.534 381.638 286.451 384.229 286.451 387 c 256
 286.451 457.746 244.369 490 196.007 490 c 256
 154.05 490 119.482 467 119.482 420 c 256
 119.482 395.6 129.007 376 142.007 364 c 256
 117.825 344 l 256
 102.007 358 86.0068 388.023 86.0068 420 c 256
EndSplineSet
EndChar

StartChar: si_DdU
Encoding: 94 -1 94
GlifName: si_D_dU_
Width: 562
VWidth: 0
GlyphClass: 2
Flags: W
LayerCount: 2
Back
Fore
SplineSet
63.4941 -123.687 m 256
 63.4941 -104.944 66.4342 -84.6566 70.2256 -65 c 257
 106.212 -69 l 257
 102.978 -84.7644 100.284 -101.793 100.284 -117.069 c 256
 100.284 -143.697 108.469 -165 136.243 -165 c 258
 459.243 -165 l 257
 459.243 -202 l 257
 136.243 -202 l 258
 79.171 -202 63.4941 -166.963 63.4941 -123.687 c 256
451.243 20 m 257
 456.243 61 l 257
 488.243 84 l 257
 488.243 -202 l 257
 451.243 -202 l 257
 451.243 20 l 257
33.2432 179.103 m 256
 33.2432 248 53.2217 327 87.2217 354 c 257
 33 354 l 257
 33 389 l 257
 310.283 389 l 257
 318.007 354 l 257
 181.071 354 l 258
 83.2959 354 70.2432 236.715 70.2432 179.103 c 256
 70.2432 101.944 94.6426 40 156.687 40 c 256
 247.853 40 254.444 148.886 257.687 224.5 c 257
 291.687 224.5 l 257
 294.929 148.886 301.521 40 392.687 40 c 256
 485.42 40 492.243 164 492.243 293 c 256
 492.243 576.887 417.792 712 264.687 712 c 256
 193.814 712 125.338 665.927 102.014 605 c 257
 68.0137 618 l 257
 96.2129 692.593 179.001 749 264.687 749 c 256
 442.687 749 529.243 601.955 529.243 293 c 256
 529.243 145.135 519.884 3 392.687 3 c 256
 297.521 3 278.521 85 274.687 115 c 257
 270.853 85 251.853 3 156.687 3 c 256
 68.0869 3 33.2432 81.4209 33.2432 179.103 c 256
86.0068 420 m 256
 86.0068 488 137.351 524 196.007 524 c 256
 260.563 524 320.451 481.099 320.451 387 c 256
 320.451 375.04 319.565 364.262 318.007 354 c 257
 286.627 379 l 257
 286.534 381.638 286.451 384.229 286.451 387 c 256
 286.451 457.746 244.369 490 196.007 490 c 256
 154.05 490 119.482 467 119.482 420 c 256
 119.482 395.6 129.007 376 142.007 364 c 256
 117.825 344 l 256
 102.007 358 86.0068 388.023 86.0068 420 c 256
EndSplineSet
EndChar

StartChar: si_DdUu
Encoding: 95 -1 95
GlifName: si_D_dU_u
Width: 562
VWidth: 0
GlyphClass: 2
Flags: W
LayerCount: 2
Back
Fore
SplineSet
63.4941 -123.687 m 256
 63.4941 -104.944 66.4346 -84.6562 70.2256 -65 c 257
 106.212 -69 l 257
 102.978 -84.7646 100.284 -101.793 100.284 -117.069 c 256
 100.284 -143.697 116.953 -165 147.243 -165 c 256
 214.212 -165 280.339 -94 346.466 -94 c 256
 391.011 -94 435.556 -115.25 480.243 -179 c 257
 451.243 -202 l 257
 416.094 -148.75 381.28 -131 346.466 -131 c 256
 280.898 -131 215.332 -202 147.243 -202 c 256
 99.1533 -202 63.4941 -166.963 63.4941 -123.687 c 256
451.243 20 m 257
 456.243 61 l 257
 488.243 84 l 257
 488.243 -202 l 257
 451.243 -202 l 257
 451.243 20 l 257
33.2432 179.103 m 256
 33.2432 248 53.2217 327 87.2217 354 c 257
 33 354 l 257
 33 389 l 257
 310.283 389 l 257
 318.007 354 l 257
 181.071 354 l 258
 83.2959 354 70.2432 236.715 70.2432 179.103 c 256
 70.2432 101.944 94.6426 40 156.687 40 c 256
 247.853 40 254.444 148.886 257.687 224.5 c 257
 291.687 224.5 l 257
 294.929 148.886 301.521 40 392.687 40 c 256
 485.42 40 492.243 164 492.243 293 c 256
 492.243 576.887 417.792 712 264.687 712 c 256
 193.814 712 125.338 665.927 102.014 605 c 257
 68.0137 618 l 257
 96.2129 692.593 179.001 749 264.687 749 c 256
 442.687 749 529.243 601.955 529.243 293 c 256
 529.243 145.135 519.884 3 392.687 3 c 256
 297.521 3 278.521 85 274.687 115 c 257
 270.853 85 251.853 3 156.687 3 c 256
 68.0869 3 33.2432 81.4209 33.2432 179.103 c 256
86.0068 420 m 256
 86.0068 488 137.351 524 196.007 524 c 256
 260.563 524 320.451 481.099 320.451 387 c 256
 320.451 375.04 319.565 364.262 318.007 354 c 257
 286.627 379 l 257
 286.534 381.638 286.451 384.229 286.451 387 c 256
 286.451 457.746 244.369 490 196.007 490 c 256
 154.05 490 119.482 467 119.482 420 c 256
 119.482 395.6 129.007 376 142.007 364 c 256
 117.825 344 l 256
 102.007 358 86.0068 388.023 86.0068 420 c 256
EndSplineSet
EndChar

StartChar: si_Dda
Encoding: 96 3497 96
GlifName: si_D_da
Width: 562
VWidth: 0
GlyphClass: 2
Flags: W
LayerCount: 2
Back
Fore
SplineSet
33.2432 179.103 m 256
 33.2432 248 53.2217 327 87.2217 354 c 257
 33 354 l 257
 33 389 l 257
 310.283 389 l 257
 318.007 354 l 257
 181.071 354 l 258
 83.2959 354 70.2432 236.715 70.2432 179.103 c 256
 70.2432 101.944 94.6426 40 156.687 40 c 256
 247.853 40 254.444 148.886 257.687 224.5 c 257
 291.687 224.5 l 257
 294.929 148.886 301.521 40 392.687 40 c 256
 485.42 40 492.243 164 492.243 293 c 256
 492.243 576.887 417.792 712 264.687 712 c 256
 193.814 712 125.338 665.927 102.014 605 c 257
 68.0137 618 l 257
 96.2129 692.593 179.001 749 264.687 749 c 256
 442.687 749 529.243 601.955 529.243 293 c 256
 529.243 145.135 519.884 3 392.687 3 c 256
 297.521 3 278.521 85 274.687 115 c 257
 270.853 85 251.853 3 156.687 3 c 256
 68.0869 3 33.2432 81.4209 33.2432 179.103 c 256
86.0068 420 m 256
 86.0068 488 137.351 524 196.007 524 c 256
 260.563 524 320.451 481.099 320.451 387 c 256
 320.451 375.04 319.565 364.262 318.007 354 c 257
 286.627 379 l 257
 286.534 381.638 286.451 384.229 286.451 387 c 256
 286.451 457.746 244.369 490 196.007 490 c 256
 154.05 490 119.482 467 119.482 420 c 256
 119.482 395.6 129.007 376 142.007 364 c 256
 117.825 344 l 256
 102.007 358 86.0068 388.023 86.0068 420 c 256
EndSplineSet
EndChar

StartChar: si_Dda.reph
Encoding: 97 -1 97
GlifName: si_D_da.reph
Width: 562
VWidth: 0
GlyphClass: 2
Flags: W
LayerCount: 2
Back
Fore
SplineSet
128 706.571 m 256
 128 788.241 182.28 845.829 267 845.829 c 256
 355.638 845.829 422.932 786.9 422.932 690 c 256
 422.932 657.433 412.778 611.149 383.625 575 c 257
 355.322 597 l 257
 379.578 626.813 385.966 663.645 385.966 690 c 256
 385.966 760.589 342.136 808.829 267 808.829 c 256
 202.393 808.829 161 766.541 161 706.571 c 256
 161 686.869 178.596 638.414 189 628 c 257
 220 611 l 257
 188 599 l 257
 150 615 128 653.94 128 706.571 c 256
169.364 681.764 m 256
 169.364 651.068 194.305 626.128 225 626.128 c 256
 255.695 626.128 280.636 651.068 280.636 681.764 c 256
 280.636 712.459 255.695 737.399 225 737.399 c 256
 194.305 737.399 169.364 712.459 169.364 681.764 c 256
142 682 m 256
 142 730.551 179.207 770 225 770 c 256
 275.076 770 315.764 730.445 315.764 681.764 c 256
 315.764 631.688 275.076 591 225 591 c 256
 179.207 591 142 631.793 142 682 c 256
68.0137 618 m 257
 82.0065 655.014 109.44 687.55 144 710.938 c 257
 157 675.356 l 256
 132.13 656.803 112.505 632.404 102.014 605 c 257
 68.0137 618 l 257
33.2432 179.103 m 256
 33.2432 248 53.2217 327 87.2217 354 c 257
 33 354 l 257
 33 389 l 257
 310.283 389 l 257
 318.007 354 l 257
 181.071 354 l 258
 83.2959 354 70.2432 236.715 70.2432 179.103 c 256
 70.2432 101.944 94.6426 40 156.687 40 c 256
 247.853 40 254.444 148.886 257.687 224.5 c 257
 291.687 224.5 l 257
 294.929 148.886 301.521 40 392.687 40 c 256
 485.42 40 492.243 164 492.243 293 c 256
 492.243 481.788 459.318 604.782 392.231 666 c 257
 416.335 696 l 257
 492.066 628.42 529.243 495.482 529.243 293 c 256
 529.243 145.135 519.884 3 392.687 3 c 256
 297.521 3 278.521 85 274.687 115 c 257
 270.853 85 251.853 3 156.687 3 c 256
 68.0869 3 33.2432 81.4209 33.2432 179.103 c 256
86.0068 420 m 256
 86.0068 488 137.351 524 196.007 524 c 256
 260.563 524 320.451 481.099 320.451 387 c 256
 320.451 375.04 319.565 364.262 318.007 354 c 257
 286.627 379 l 257
 286.534 381.638 286.451 384.229 286.451 387 c 256
 286.451 457.746 244.369 490 196.007 490 c 256
 154.05 490 119.482 467 119.482 420 c 256
 119.482 395.6 129.007 376 142.007 364 c 256
 117.825 344 l 256
 102.007 358 86.0068 388.023 86.0068 420 c 256
EndSplineSet
EndChar

StartChar: si_Ddh.halant
Encoding: 99 -1 99
GlifName: si_D_dh.halant
Width: 602
VWidth: 0
GlyphClass: 2
Flags: W
LayerCount: 2
Back
Fore
SplineSet
486 638 m 257
 493 672 l 257
 500.02 670.738 512.299 667.194 530 667.194 c 256
 565.928 667.194 597 688 597 749 c 256
 597 828.298 537.5 829 512 829 c 256
 508.98 829 503 829 503 829 c 257
 485 848 l 257
 512 863 l 257
 548 863 632 862 632 749 c 256
 632 664 584.695 632.194 530 632.194 c 256
 515.592 632.194 500.755 634.109 486 638 c 257
477 863 m 257
 512 863 l 257
 512 855 l 257
 508 839 l 257
 508 662 l 257
 512 642 l 257
 512 479 l 257
 477 479 l 257
 477 863 l 257
298.826 603 m 256
 298.826 667.298 341.31 706.649 341.31 740.685 c 256
 341.31 754.219 334.592 766.912 315.814 780 c 257
 379.424 761 l 257
 377.079 749.59 373.523 726.29 373.523 726.29 c 257
 373.523 693.053 334.814 661.163 334.814 603 c 256
 334.814 561.562 376.561 524.959 439.783 524.959 c 256
 448.24 524.959 457.081 525.614 466.258 527 c 257
 489.424 522 l 257
 474.258 494 l 257
 462.01 492.013 450.211 491.073 438.924 491.073 c 256
 354.543 491.073 298.826 543.567 298.826 603 c 256
32.8145 179.103 m 256
 32.8145 248 52.793 327 86.793 354 c 257
 32.5713 354 l 257
 32.5713 389 l 257
 309.854 389 l 257
 317.578 354 l 257
 180.643 354 l 258
 82.8672 354 69.8145 236.715 69.8145 179.103 c 256
 69.8145 101.944 94.2148 40 156.258 40 c 256
 247.424 40 254.016 148.886 257.258 224.5 c 257
 291.258 224.5 l 257
 294.5 148.886 301.092 40 392.258 40 c 256
 484.991 40 491.814 164 491.814 293 c 256
 491.814 382.184 482.542 458.763 466.283 524 c 257
 445.105 608.981 412.073 674.718 372.244 724 c 257
 354.619 745.808 335.663 764.394 315.814 780 c 257
 338.814 807 l 257
 396.014 763.032 446.344 696.65 480.81 603 c 257
 484.033 594.24 487.119 585.241 490.058 576 c 256
 514.486 499.187 528.814 405.613 528.814 293 c 256
 528.814 145.135 519.455 3 392.258 3 c 256
 297.092 3 278.092 85 274.258 115 c 257
 270.424 85 251.424 3 156.258 3 c 256
 67.6582 3 32.8145 81.4209 32.8145 179.103 c 256
85.5781 420 m 256
 85.5781 488 136.922 524 195.578 524 c 256
 260.135 524 320.022 481.099 320.022 387 c 256
 320.022 375.04 319.137 364.262 317.578 354 c 257
 286.198 379 l 257
 286.105 381.638 286.022 384.229 286.022 387 c 256
 286.022 457.746 243.94 490 195.578 490 c 256
 153.621 490 119.054 467 119.054 420 c 256
 119.054 395.6 128.578 376 141.578 364 c 257
 117.396 344 l 257
 101.578 358 85.5781 388.023 85.5781 420 c 256
EndSplineSet
EndChar

StartChar: si_DdhI
Encoding: 100 -1 100
GlifName: si_D_dhI_
Width: 601
VWidth: 0
GlyphClass: 2
Flags: W
LayerCount: 2
Back
Fore
SplineSet
162.001 698 m 256
 162.001 800.068 263.881 863 396.5 863 c 256
 529.12 863 631 795.491 631 686 c 256
 631 614 581.5 551 490.5 551 c 257
 473.5 564 l 257
 490.5 586 l 257
 557.535 586 594 632.667 594 686 c 256
 594 769.151 514.5 826 396.5 826 c 256
 278.501 826 199.001 774.024 199.001 698 c 256
 199.001 644.353 227.458 602 310.5 602 c 257
 319.5 587 l 257
 310.5 567 l 257
 214.663 568.057 162.001 615.629 162.001 698 c 256
301.512 598 m 256
 301.512 650.623 354.565 682.829 354.565 710.685 c 256
 354.565 718.366 352.177 725.571 345.5 733 c 257
 392.68 731 l 257
 390.335 719.59 386.779 696.29 386.779 696.29 c 257
 386.779 669.792 337.5 644.369 337.5 598 c 256
 337.5 559.217 380.852 524.959 446.506 524.959 c 256
 454.963 524.959 463.804 525.614 472.98 527 c 257
 496.146 522 l 257
 480.98 494 l 257
 468.732 492.013 456.934 491.073 445.646 491.073 c 256
 358.834 491.073 301.512 541.223 301.512 598 c 256
39.5371 179.103 m 256
 39.5371 248 59.5156 327 93.5156 354 c 257
 39.2939 354 l 257
 39.2939 389 l 257
 316.577 389 l 257
 324.301 354 l 257
 187.365 354 l 258
 89.5898 354 76.5371 236.715 76.5371 179.103 c 256
 76.5371 101.944 100.938 40 162.98 40 c 256
 254.146 40 260.738 148.886 263.98 224.5 c 257
 297.98 224.5 l 257
 301.223 148.886 307.814 40 398.98 40 c 256
 491.714 40 498.537 164 498.537 293 c 256
 498.537 382.184 489.265 458.763 473.006 524 c 257
 453.3 596.234 422.562 652.11 385.5 694 c 257
 373.007 709.188 359.569 722.131 345.5 733 c 257
 368.5 760 l 257
 486.396 671.438 535.537 505.786 535.537 293 c 256
 535.537 145.135 526.178 3 398.98 3 c 256
 303.814 3 284.814 85 280.98 115 c 257
 277.146 85 258.146 3 162.98 3 c 256
 74.3809 3 39.5371 81.4209 39.5371 179.103 c 256
92.3008 420 m 256
 92.3008 488 143.645 524 202.301 524 c 256
 266.857 524 326.745 481.099 326.745 387 c 256
 326.745 375.04 325.859 364.262 324.301 354 c 257
 292.921 379 l 257
 292.828 381.638 292.745 384.229 292.745 387 c 256
 292.745 457.746 250.663 490 202.301 490 c 256
 160.344 490 125.776 467 125.776 420 c 256
 125.776 395.6 135.301 376 148.301 364 c 257
 124.119 344 l 257
 108.301 358 92.3008 388.023 92.3008 420 c 256
EndSplineSet
EndChar

StartChar: si_DdhIi
Encoding: 101 -1 101
GlifName: si_D_dhI_i
Width: 615
VWidth: 0
GlyphClass: 2
Flags: W
LayerCount: 2
Back
Fore
SplineSet
483.867 623 m 256
 483.867 590.439 509.866 563.51 542.767 563.51 c 256
 575.645 563.51 601.666 590.434 601.666 623 c 256
 601.666 655.56 575.668 682.491 542.767 682.491 c 256
 509.888 682.491 483.867 655.565 483.867 623 c 256
445.408 623.021 m 256
 445.408 676.777 488.574 719.942 542.329 719.942 c 256
 583.885 719.942 615.74 687.521 619.666 657.101 c 257
 632.331 646.371 639.248 634.269 639.248 623.021 c 256
 639.248 569.267 596.081 526.101 542.329 526.101 c 256
 488.574 526.101 445.408 569.267 445.408 623.021 c 256
161.368 698 m 256
 161.368 800.068 262.248 863 395.867 863 c 256
 536.763 863 645 783.324 645 654.101 c 256
 645 604.259 628.666 537.101 555.666 527.101 c 257
 527.001 533.021 l 257
 544.001 555.021 l 257
 599.756 561.309 612.666 595.478 612.666 654.101 c 256
 612.666 756.198 525.397 826 395.867 826 c 256
 276.868 826 198.368 774.024 198.368 698 c 256
 198.368 644.353 226.825 602 309.867 602 c 257
 318.867 587 l 257
 309.867 567 l 257
 214.03 568.057 161.368 615.629 161.368 698 c 256
300.879 598 m 256
 300.879 650.623 353.933 682.829 353.933 710.685 c 256
 353.933 718.366 351.544 725.571 344.867 733 c 257
 392.047 731 l 257
 389.702 719.59 386.146 696.29 386.146 696.29 c 257
 386.146 669.792 336.867 644.369 336.867 598 c 256
 336.867 559.217 380.219 524.959 445.873 524.959 c 256
 454.33 524.959 463.171 525.614 472.348 527 c 257
 495.514 522 l 257
 480.348 494 l 257
 468.1 492.013 456.301 491.073 445.014 491.073 c 256
 358.201 491.073 300.879 541.223 300.879 598 c 256
38.9043 179.103 m 256
 38.9043 248 58.8828 327 92.8828 354 c 257
 38.6611 354 l 257
 38.6611 389 l 257
 315.944 389 l 257
 323.668 354 l 257
 186.732 354 l 258
 88.957 354 75.9043 236.715 75.9043 179.103 c 256
 75.9043 101.944 100.305 40 162.348 40 c 256
 253.514 40 260.105 148.886 263.348 224.5 c 257
 297.348 224.5 l 257
 300.59 148.886 307.182 40 398.348 40 c 256
 491.081 40 497.904 164 497.904 293 c 256
 497.904 382.184 488.632 458.763 472.373 524 c 257
 452.667 596.234 421.93 652.11 384.867 694 c 257
 372.374 709.188 358.937 722.131 344.867 733 c 257
 367.867 760 l 257
 410.71 729.072 450.048 684.595 478.11 623 c 257
 478.11 612.987 479.303 602.976 481.994 594 c 256
 485.217 583.254 490.589 573.994 498.637 568 c 257
 521.547 492.716 534.904 401.733 534.904 293 c 256
 534.904 145.135 525.545 3 398.348 3 c 256
 303.182 3 284.182 85 280.348 115 c 257
 276.514 85 257.514 3 162.348 3 c 256
 73.748 3 38.9043 81.4209 38.9043 179.103 c 256
91.668 420 m 256
 91.668 488 143.012 524 201.668 524 c 256
 266.225 524 326.112 481.099 326.112 387 c 256
 326.112 375.04 325.227 364.262 323.668 354 c 257
 292.288 379 l 257
 292.195 381.638 292.112 384.229 292.112 387 c 256
 292.112 457.746 250.03 490 201.668 490 c 256
 159.711 490 125.144 467 125.144 420 c 256
 125.144 395.6 134.668 376 147.668 364 c 257
 123.486 344 l 257
 107.668 358 91.668 388.023 91.668 420 c 256
EndSplineSet
EndChar

StartChar: si_DdhU
Encoding: 102 -1 102
GlifName: si_D_dhU_
Width: 562
VWidth: 0
GlyphClass: 2
Flags: W
LayerCount: 2
Back
Fore
SplineSet
63.251 -123.687 m 256
 63.251 -104.944 66.1914 -84.6562 69.9824 -65 c 257
 105.969 -69 l 257
 102.734 -84.7646 100.041 -101.793 100.041 -117.069 c 256
 100.041 -143.697 108.226 -165 136 -165 c 258
 459 -165 l 257
 459 -202 l 257
 136 -202 l 258
 78.9277 -202 63.251 -166.963 63.251 -123.687 c 256
451 20 m 257
 456 61 l 257
 488 84 l 257
 488 -202 l 257
 451 -202 l 257
 451 20 l 257
299.012 603 m 256
 299.012 667.298 341.495 706.649 341.495 740.685 c 256
 341.495 754.219 334.777 766.912 316 780 c 257
 379.609 761 l 257
 377.265 749.59 373.709 726.29 373.709 726.29 c 257
 373.709 693.053 335 661.163 335 603 c 256
 335 561.562 376.746 524.959 439.969 524.959 c 256
 448.426 524.959 457.267 525.614 466.443 527 c 257
 489.609 522 l 257
 474.443 494 l 257
 462.195 492.013 450.396 491.073 439.109 491.073 c 256
 354.729 491.073 299.012 543.567 299.012 603 c 256
33 179.103 m 256
 33 248 52.9785 327 86.9785 354 c 257
 32.7568 354 l 257
 32.7568 389 l 257
 310.04 389 l 257
 317.764 354 l 257
 180.828 354 l 258
 83.0527 354 70 236.715 70 179.103 c 256
 70 101.944 94.4004 40 156.443 40 c 256
 247.609 40 254.201 148.886 257.443 224.5 c 257
 291.443 224.5 l 257
 294.686 148.886 301.277 40 392.443 40 c 256
 485.177 40 492 164 492 293 c 256
 492 382.184 482.728 458.763 466.469 524 c 257
 445.291 608.981 412.259 674.718 372.43 724 c 257
 354.805 745.808 335.849 764.394 316 780 c 257
 339 807 l 257
 401.55 758.919 455.885 684.035 490.243 576 c 256
 514.672 499.187 529 405.613 529 293 c 256
 529 145.135 519.641 3 392.443 3 c 256
 297.277 3 278.277 85 274.443 115 c 257
 270.609 85 251.609 3 156.443 3 c 256
 67.8438 3 33 81.4209 33 179.103 c 256
85.7637 420 m 256
 85.7637 488 137.107 524 195.764 524 c 256
 260.32 524 320.208 481.099 320.208 387 c 256
 320.208 375.04 319.322 364.262 317.764 354 c 257
 286.384 379 l 257
 286.291 381.638 286.208 384.229 286.208 387 c 256
 286.208 457.746 244.126 490 195.764 490 c 256
 153.807 490 119.239 467 119.239 420 c 256
 119.239 395.6 128.764 376 141.764 364 c 257
 117.582 344 l 257
 101.764 358 85.7637 388.023 85.7637 420 c 256
EndSplineSet
EndChar

StartChar: si_DdhUu
Encoding: 103 -1 103
GlifName: si_D_dhU_u
Width: 562
VWidth: 0
GlyphClass: 2
Flags: W
LayerCount: 2
Back
Fore
SplineSet
63.251 -123.687 m 256
 63.251 -104.944 66.1914 -84.6562 69.9824 -65 c 257
 105.969 -69 l 257
 102.734 -84.7646 100.041 -101.793 100.041 -117.069 c 256
 100.041 -143.697 116.71 -165 147 -165 c 256
 213.969 -165 280.096 -94 346.223 -94 c 256
 390.768 -94 435.312 -115.25 480 -179 c 257
 451 -202 l 257
 415.851 -148.75 381.037 -131 346.223 -131 c 256
 280.655 -131 215.089 -202 147 -202 c 256
 98.9102 -202 63.251 -166.963 63.251 -123.687 c 256
451 20 m 257
 456 61 l 257
 488 84 l 257
 488 -202 l 257
 451 -202 l 257
 451 20 l 257
299.012 603 m 256
 299.012 667.298 341.495 706.649 341.495 740.685 c 256
 341.495 754.219 334.777 766.912 316 780 c 257
 379.609 761 l 257
 377.265 749.59 373.709 726.29 373.709 726.29 c 257
 373.709 693.053 335 661.163 335 603 c 256
 335 561.562 376.746 524.959 439.969 524.959 c 256
 448.426 524.959 457.267 525.614 466.443 527 c 257
 489.609 522 l 257
 474.443 494 l 257
 462.195 492.013 450.396 491.073 439.109 491.073 c 256
 354.729 491.073 299.012 543.567 299.012 603 c 256
33 179.103 m 256
 33 248 52.9785 327 86.9785 354 c 257
 32.7568 354 l 257
 32.7568 389 l 257
 310.04 389 l 257
 317.764 354 l 257
 180.828 354 l 258
 83.0527 354 70 236.715 70 179.103 c 256
 70 101.944 94.4004 40 156.443 40 c 256
 247.609 40 254.201 148.886 257.443 224.5 c 257
 291.443 224.5 l 257
 294.686 148.886 301.277 40 392.443 40 c 256
 485.177 40 492 164 492 293 c 256
 492 382.184 482.728 458.763 466.469 524 c 257
 445.291 608.981 412.259 674.718 372.43 724 c 257
 354.805 745.808 335.849 764.394 316 780 c 257
 339 807 l 257
 401.55 758.919 455.885 684.035 490.243 576 c 256
 514.672 499.187 529 405.613 529 293 c 256
 529 145.135 519.641 3 392.443 3 c 256
 297.277 3 278.277 85 274.443 115 c 257
 270.609 85 251.609 3 156.443 3 c 256
 67.8438 3 33 81.4209 33 179.103 c 256
85.7637 420 m 256
 85.7637 488 137.107 524 195.764 524 c 256
 260.32 524 320.208 481.099 320.208 387 c 256
 320.208 375.04 319.322 364.262 317.764 354 c 257
 286.384 379 l 257
 286.291 381.638 286.208 384.229 286.208 387 c 256
 286.208 457.746 244.126 490 195.764 490 c 256
 153.807 490 119.239 467 119.239 420 c 256
 119.239 395.6 128.764 376 141.764 364 c 257
 117.582 344 l 257
 101.764 358 85.7637 388.023 85.7637 420 c 256
EndSplineSet
EndChar

StartChar: si_Ddha
Encoding: 104 3498 104
GlifName: si_D_dha
Width: 562
VWidth: 0
GlyphClass: 2
Flags: W
LayerCount: 2
Back
Fore
SplineSet
299.255 603 m 256
 299.255 667.298 341.738 706.649 341.738 740.685 c 256
 341.738 754.219 335.021 766.912 316.243 780 c 257
 316.243 780 379.853 761 379.853 761 c 257
 377.508 749.59 373.952 726.29 373.952 726.29 c 257
 373.952 693.053 335.243 661.163 335.243 603 c 256
 335.243 561.562 376.989 524.959 440.212 524.959 c 256
 448.669 524.959 457.51 525.614 466.687 527 c 257
 489.853 522 l 257
 474.687 494 l 257
 462.438 492.013 450.64 491.073 439.353 491.073 c 256
 354.972 491.073 299.255 543.567 299.255 603 c 256
33.2432 179.103 m 256
 33.2432 248 53.2217 327 87.2217 354 c 257
 33 354 l 257
 33 389 l 257
 310.283 389 l 257
 318.007 354 l 257
 181.071 354 l 258
 83.2959 354 70.2432 236.715 70.2432 179.103 c 256
 70.2432 101.944 94.6436 40 156.687 40 c 256
 247.853 40 254.444 148.886 257.687 224.5 c 257
 291.687 224.5 l 257
 294.929 148.886 301.521 40 392.687 40 c 256
 485.42 40 492.243 164 492.243 293 c 256
 492.243 382.184 482.971 458.763 466.712 524 c 257
 445.534 608.981 412.502 674.718 372.673 724 c 257
 355.048 745.808 336.092 764.394 316.243 780 c 257
 339.243 807 l 257
 401.793 758.919 456.129 684.035 490.486 576 c 256
 514.915 499.187 529.243 405.613 529.243 293 c 256
 529.243 145.135 519.884 3 392.687 3 c 256
 297.521 3 278.521 85 274.687 115 c 257
 270.853 85 251.853 3 156.687 3 c 256
 68.0869 3 33.2432 81.4209 33.2432 179.103 c 256
86.0068 420 m 256
 86.0068 488 137.351 524 196.007 524 c 256
 260.563 524 320.451 481.099 320.451 387 c 256
 320.451 375.04 319.565 364.262 318.007 354 c 257
 286.627 379 l 257
 286.534 381.638 286.451 384.229 286.451 387 c 256
 286.451 457.746 244.369 490 196.007 490 c 256
 154.05 490 119.482 467 119.482 420 c 256
 119.482 395.6 129.007 376 142.007 364 c 257
 117.825 344 l 257
 102.007 358 86.0068 388.023 86.0068 420 c 256
EndSplineSet
EndChar

StartChar: si_Dh.halant
Encoding: 106 -1 106
GlifName: si_D_h.halant
Width: 565
VWidth: 0
GlyphClass: 2
Flags: W
LayerCount: 2
Back
Fore
SplineSet
72.0908 746 m 256
 72.0908 795.266 115.601 864 276.091 864 c 256
 401.652 864 504 801.028 504 712 c 256
 504 659 469.753 621 421 602 c 257
 391 611 l 257
 413 636 l 257
 444.719 649.127 467 675.382 467 712 c 256
 467 779.357 381.268 827 276.091 827 c 256
 144.709 827 109.091 779.817 109.091 746 c 256
 109.091 712.768 136.274 683.519 162.091 668 c 257
 163.091 637 l 257
 135.091 646 l 257
 104.404 665.896 72.0908 703.395 72.0908 746 c 256
33 214 m 256
 33 266.264 43.9707 312.662 62.1074 350 c 256
 91.2275 409.948 138.82 446.538 189.138 446.538 c 256
 208.042 446.538 226.386 441.8 246.138 432 c 257
 230.138 400 l 257
 215.93 407.104 202.735 410.538 189.138 410.538 c 256
 150.367 410.538 115.245 379.613 93.3428 331 c 256
 78.7285 298.563 70 258.253 70 214 c 256
 70 130.796 92.3926 40 159.834 40 c 256
 251 40 257.592 148.886 260.834 224.5 c 257
 294.834 224.5 l 257
 298.076 148.886 304.668 40 395.834 40 c 256
 488.567 40 495.391 164 495.391 293 c 256
 495.391 582 367.931 651 249.091 651 c 256
 179.151 651 137.604 621.477 99.0908 591 c 257
 75.0908 620 l 257
 123.649 663.099 192.932 688 249.091 688 c 256
 385.783 688 532.391 611.869 532.391 293 c 256
 532.391 145.135 523.031 3 395.834 3 c 256
 300.668 3 281.668 85 277.834 115 c 257
 274 85 255 3 159.834 3 c 256
 61.8389 3 33 115.606 33 214 c 256
EndSplineSet
EndChar

StartChar: si_DhI
Encoding: 107 -1 107
GlifName: si_D_hI_
Width: 565
VWidth: 0
GlyphClass: 2
Flags: W
LayerCount: 2
Back
Fore
SplineSet
71.6582 720.999 m 256
 71.6582 785.999 120.168 863.999 280.658 863.999 c 256
 418.658 863.999 496.658 802.685 496.658 715.999 c 256
 496.658 649.999 457.658 605.999 392.658 593.999 c 257
 362.658 602.999 l 257
 384.658 627.999 l 257
 431.533 636.654 459.658 668.393 459.658 715.999 c 256
 459.658 781.013 395.02 826.999 280.658 826.999 c 256
 149.276 826.999 108.658 772.999 108.658 720.999 c 256
 108.658 679.742 132.492 644.999 185.492 644.999 c 256
 217.08 644.999 255.235 646.999 268.492 646.999 c 257
 284.492 629.999 l 257
 268.492 609.999 l 257
 228.75 609.999 220.423 607.999 185.492 607.999 c 256
 131.492 607.999 71.6582 644.62 71.6582 720.999 c 256
33 214 m 256
 33 266.264 43.9707 312.662 62.1074 350 c 256
 91.2275 409.948 138.82 446.538 189.138 446.538 c 256
 208.042 446.538 226.386 441.8 246.138 432 c 257
 230.138 400 l 257
 215.93 407.104 202.735 410.538 189.138 410.538 c 256
 150.367 410.538 115.245 379.613 93.3428 331 c 256
 78.7285 298.563 70 258.253 70 214 c 256
 70 130.796 92.3926 40 159.834 40 c 256
 251 40 257.592 148.886 260.834 224.5 c 257
 294.834 224.5 l 257
 298.076 148.886 304.668 40 395.834 40 c 256
 488.567 40 495.391 164 495.391 293 c 256
 495.391 507.777 444.363 609.999 268.492 609.999 c 257
 268.492 646.999 l 257
 473.042 646.999 532.391 532.846 532.391 293 c 256
 532.391 145.135 523.031 3 395.834 3 c 256
 300.668 3 281.668 85 277.834 115 c 257
 274 85 255 3 159.834 3 c 256
 61.8389 3 33 115.606 33 214 c 256
EndSplineSet
EndChar

StartChar: si_DhIi
Encoding: 108 -1 108
GlifName: si_D_hI_i
Width: 565
VWidth: 0
GlyphClass: 2
Flags: W
LayerCount: 2
Back
Fore
SplineSet
337.277 700.978 m 256
 337.277 668.417 363.276 641.487 396.177 641.487 c 256
 429.055 641.487 455.076 668.411 455.076 700.978 c 256
 455.076 733.537 429.078 760.469 396.177 760.469 c 256
 363.298 760.469 337.277 733.543 337.277 700.978 c 256
298.818 700.999 m 256
 298.818 754.755 341.984 797.92 395.739 797.92 c 256
 454.658 797.92 492.658 744.999 492.658 700.999 c 256
 492.658 647.244 449.491 604.078 395.739 604.078 c 256
 341.984 604.078 298.818 647.244 298.818 700.999 c 256
71.6582 720.999 m 256
 71.6582 785.999 120.168 863.999 280.658 863.999 c 256
 418.658 863.999 496.658 802.685 496.658 715.999 c 256
 496.658 682.019 485.068 650.03 463.658 630.999 c 256
 445.658 614.999 420.073 604.078 395.739 604.078 c 257
 365.739 613.078 l 257
 387.739 638.078 l 257
 440.658 638.078 459.658 673.845 459.658 715.999 c 256
 459.658 796.999 395.02 826.999 280.658 826.999 c 256
 149.276 826.999 108.658 772.999 108.658 720.999 c 256
 108.658 679.742 132.492 644.999 185.492 644.999 c 256
 217.08 644.999 255.235 646.999 268.492 646.999 c 257
 284.492 629.999 l 257
 268.492 609.999 l 257
 228.75 609.999 220.423 607.999 185.492 607.999 c 256
 131.492 607.999 71.6582 644.62 71.6582 720.999 c 256
33 214 m 256
 33 266.264 43.9707 312.662 62.1074 350 c 256
 91.2275 409.948 138.82 446.538 189.138 446.538 c 256
 208.042 446.538 226.386 441.8 246.138 432 c 257
 230.138 400 l 257
 215.93 407.104 202.735 410.538 189.138 410.538 c 256
 150.367 410.538 115.245 379.613 93.3428 331 c 256
 78.7285 298.563 70 258.253 70 214 c 256
 70 130.796 92.3926 40 159.834 40 c 256
 251 40 257.592 148.886 260.834 224.5 c 257
 294.834 224.5 l 257
 298.076 148.886 304.668 40 395.834 40 c 256
 488.567 40 495.391 164 495.391 293 c 256
 495.391 507.777 444.363 609.999 268.492 609.999 c 257
 268.492 646.999 l 257
 473.042 646.999 532.391 532.846 532.391 293 c 256
 532.391 145.135 523.031 3 395.834 3 c 256
 300.668 3 281.668 85 277.834 115 c 257
 274 85 255 3 159.834 3 c 256
 61.8389 3 33 115.606 33 214 c 256
EndSplineSet
EndChar

StartChar: si_DhR.halant
Encoding: 109 -1 109
GlifName: si_D_hR_.halant
Width: 565
VWidth: 0
GlyphClass: 2
Flags: W
LayerCount: 2
Back
Fore
SplineSet
47.3916 -104 m 256
 84.3916 -104 l 256
 84.3916 -187.151 163.892 -244 281.891 -244 c 256
 399.891 -244 479.391 -187.151 479.391 -104 c 256
 479.391 -39.4941 459.35 -4.05957 426.946 19 c 257
 423.391 42 l 257
 452.411 41 l 257
 491.868 12.6338 516.391 -33.1064 516.391 -104 c 256
 516.391 -213.491 414.511 -281 281.891 -281 c 256
 149.271 -281 47.3916 -213.491 47.3916 -104 c 256
EndSplineSet
Refer: 106 -1 N 1 0 0 1 0 0 2
EndChar

StartChar: si_DhRI
Encoding: 110 -1 110
GlifName: si_D_hR_I_
Width: 565
VWidth: 0
GlyphClass: 2
Flags: W
LayerCount: 2
Back
Fore
SplineSet
47.3916 -104 m 256
 84.3916 -104 l 256
 84.3916 -187.151 163.892 -244 281.891 -244 c 256
 399.891 -244 479.391 -187.151 479.391 -104 c 256
 479.391 -39.4941 459.35 -4.05957 426.946 19 c 257
 423.391 42 l 257
 452.411 41 l 257
 491.868 12.6338 516.391 -33.1064 516.391 -104 c 256
 516.391 -213.491 414.511 -281 281.891 -281 c 256
 149.271 -281 47.3916 -213.491 47.3916 -104 c 256
EndSplineSet
Refer: 107 -1 N 1 0 0 1 0 0 2
EndChar

StartChar: si_DhRIi
Encoding: 111 -1 111
GlifName: si_D_hR_I_i
Width: 565
VWidth: 0
GlyphClass: 2
Flags: W
LayerCount: 2
Back
Fore
SplineSet
47.3916 -104 m 256
 84.3916 -104 l 256
 84.3916 -187.151 163.892 -244 281.891 -244 c 256
 399.891 -244 479.391 -187.151 479.391 -104 c 256
 479.391 -39.4941 459.35 -4.05957 426.946 19 c 257
 423.391 42 l 257
 452.411 41 l 257
 491.868 12.6338 516.391 -33.1064 516.391 -104 c 256
 516.391 -213.491 414.511 -281 281.891 -281 c 256
 149.271 -281 47.3916 -213.491 47.3916 -104 c 256
EndSplineSet
Refer: 108 -1 N 1 0 0 1 0 0 2
EndChar

StartChar: si_DhRa
Encoding: 112 -1 112
GlifName: si_D_hR_a
Width: 565
VWidth: 0
GlyphClass: 2
Flags: W
LayerCount: 2
Back
Fore
SplineSet
47.3916 -104 m 256
 84.3916 -104 l 256
 84.3916 -187.151 163.892 -244 281.891 -244 c 256
 399.891 -244 479.391 -187.151 479.391 -104 c 256
 479.391 -39.4941 459.35 -4.05957 426.946 19 c 257
 423.391 42 l 257
 452.411 41 l 257
 491.868 12.6338 516.391 -33.1064 516.391 -104 c 256
 516.391 -213.491 414.511 -281 281.891 -281 c 256
 149.271 -281 47.3916 -213.491 47.3916 -104 c 256
33 214 m 256
 33 266.264 43.9704 312.662 62.1074 350 c 256
 91.2275 409.948 138.82 446.538 189.138 446.538 c 256
 208.042 446.538 226.386 441.8 246.138 432 c 257
 230.138 400 l 257
 215.93 407.104 202.735 410.538 189.138 410.538 c 256
 150.367 410.538 115.245 379.613 93.3428 331 c 256
 78.7285 298.563 70 258.253 70 214 c 256
 70 130.796 92.3926 40 159.834 40 c 256
 251 40 257.592 148.886 260.834 224.5 c 257
 294.834 224.5 l 257
 298.076 148.886 304.668 40 395.834 40 c 256
 488.567 40 495.391 164 495.391 293 c 256
 495.391 576.887 420.939 712 267.834 712 c 256
 196.962 712 128.485 665.927 105.161 605 c 257
 71.1611 618 l 257
 99.3604 692.593 182.148 749 267.834 749 c 256
 445.834 749 532.391 601.955 532.391 293 c 256
 532.391 145.135 523.031 3 395.834 3 c 256
 300.668 3 281.668 85 277.834 115 c 257
 274 85 255 3 159.834 3 c 256
 61.8389 3 33 115.606 33 214 c 256
EndSplineSet
EndChar

StartChar: si_DhU
Encoding: 113 -1 113
GlifName: si_D_hU_
Width: 565
VWidth: 0
GlyphClass: 2
Flags: W
LayerCount: 2
Back
Fore
SplineSet
66.6416 -123.687 m 256
 66.6416 -104.944 69.5817 -84.6566 73.373 -65 c 257
 109.359 -69 l 257
 106.125 -84.7644 103.432 -101.793 103.432 -117.069 c 256
 103.432 -143.697 111.616 -165 139.391 -165 c 258
 462.391 -165 l 257
 462.391 -202 l 257
 139.391 -202 l 258
 82.3185 -202 66.6416 -166.963 66.6416 -123.687 c 256
454.391 20 m 257
 459.391 61 l 257
 491.391 84 l 257
 491.391 -202 l 257
 454.391 -202 l 257
 454.391 20 l 257
33 214 m 256
 33 266.264 43.9704 312.662 62.1074 350 c 256
 91.2275 409.948 138.82 446.538 189.138 446.538 c 256
 208.042 446.538 226.386 441.8 246.138 432 c 257
 230.138 400 l 257
 215.93 407.104 202.735 410.538 189.138 410.538 c 256
 150.367 410.538 115.245 379.613 93.3428 331 c 256
 78.7285 298.563 70 258.253 70 214 c 256
 70 130.796 92.3926 40 159.834 40 c 256
 251 40 257.592 148.886 260.834 224.5 c 257
 294.834 224.5 l 257
 298.076 148.886 304.668 40 395.834 40 c 256
 488.567 40 495.391 164 495.391 293 c 256
 495.391 576.887 420.939 712 267.834 712 c 256
 196.962 712 128.485 665.927 105.161 605 c 257
 71.1611 618 l 257
 99.3604 692.593 182.148 749 267.834 749 c 256
 445.834 749 532.391 601.955 532.391 293 c 256
 532.391 145.135 523.031 3 395.834 3 c 256
 300.668 3 281.668 85 277.834 115 c 257
 274 85 255 3 159.834 3 c 256
 61.8389 3 33 115.606 33 214 c 256
EndSplineSet
EndChar

StartChar: si_DhUu
Encoding: 114 -1 114
GlifName: si_D_hU_u
Width: 565
VWidth: 0
GlyphClass: 2
Flags: W
LayerCount: 2
Back
Fore
SplineSet
66.6416 -123.687 m 256
 66.6416 -104.944 69.582 -84.6562 73.373 -65 c 257
 109.359 -69 l 257
 106.125 -84.7646 103.432 -101.793 103.432 -117.069 c 256
 103.432 -143.697 120.101 -165 150.391 -165 c 256
 217.359 -165 283.486 -94 349.613 -94 c 256
 394.158 -94 438.703 -115.25 483.391 -179 c 257
 454.391 -202 l 257
 419.241 -148.75 384.428 -131 349.613 -131 c 256
 284.046 -131 218.479 -202 150.391 -202 c 256
 102.301 -202 66.6416 -166.963 66.6416 -123.687 c 256
454.391 20 m 257
 459.391 61 l 257
 491.391 84 l 257
 491.391 -202 l 257
 454.391 -202 l 257
 454.391 20 l 257
33 214 m 256
 33 266.264 43.9704 312.662 62.1074 350 c 256
 91.2275 409.948 138.82 446.538 189.138 446.538 c 256
 208.042 446.538 226.386 441.8 246.138 432 c 257
 230.138 400 l 257
 215.93 407.104 202.735 410.538 189.138 410.538 c 256
 150.367 410.538 115.245 379.613 93.3428 331 c 256
 78.7285 298.563 70 258.253 70 214 c 256
 70 130.796 92.3926 40 159.834 40 c 256
 251 40 257.592 148.886 260.834 224.5 c 257
 294.834 224.5 l 257
 298.076 148.886 304.668 40 395.834 40 c 256
 488.567 40 495.391 164 495.391 293 c 256
 495.391 576.887 420.939 712 267.834 712 c 256
 196.962 712 128.485 665.927 105.161 605 c 257
 71.1611 618 l 257
 99.3604 692.593 182.148 749 267.834 749 c 256
 445.834 749 532.391 601.955 532.391 293 c 256
 532.391 145.135 523.031 3 395.834 3 c 256
 300.668 3 281.668 85 277.834 115 c 257
 274 85 255 3 159.834 3 c 256
 61.8389 3 33 115.606 33 214 c 256
EndSplineSet
EndChar

StartChar: si_Dha
Encoding: 115 3504 115
GlifName: si_D_ha
Width: 564
VWidth: 0
GlyphClass: 2
Flags: W
LayerCount: 2
Back
Fore
SplineSet
32.6094 214 m 256
 32.6094 266.264 43.5801 312.662 61.7168 350 c 256
 90.8369 409.948 138.43 446.538 188.747 446.538 c 256
 207.651 446.538 225.995 441.8 245.747 432 c 257
 229.747 400 l 257
 215.539 407.104 202.345 410.538 188.747 410.538 c 256
 149.977 410.538 114.854 379.613 92.9521 331 c 256
 78.3379 298.563 69.6094 258.253 69.6094 214 c 256
 69.6094 130.796 92.002 40 159.443 40 c 256
 250.609 40 257.201 148.886 260.443 224.5 c 257
 294.443 224.5 l 257
 297.686 148.886 304.277 40 395.443 40 c 256
 488.177 40 495 164 495 293 c 256
 495 576.887 420.549 712 267.443 712 c 256
 196.571 712 128.095 665.927 104.771 605 c 257
 70.7705 618 l 257
 98.9697 692.593 181.758 749 267.443 749 c 256
 445.443 749 532 601.955 532 293 c 256
 532 145.135 522.641 3 395.443 3 c 256
 300.277 3 281.277 85 277.443 115 c 257
 273.609 85 254.609 3 159.443 3 c 256
 61.4482 3 32.6094 115.606 32.6094 214 c 256
EndSplineSet
EndChar

StartChar: si_Dha.reph
Encoding: 116 -1 116
GlifName: si_D_ha.reph
Width: 565
VWidth: 0
GlyphClass: 2
Flags: W
LayerCount: 2
Back
Fore
SplineSet
131.147 706.571 m 256
 131.147 788.24 185.428 845.829 270.147 845.829 c 256
 358.785 845.829 426.079 786.899 426.079 690 c 256
 426.079 657.434 415.926 611.149 386.772 575 c 257
 358.47 597 l 257
 382.726 626.813 389.113 663.645 389.113 690 c 256
 389.113 760.589 345.283 808.829 270.147 808.829 c 256
 205.541 808.829 164.147 766.541 164.147 706.571 c 256
 164.147 686.869 181.744 638.414 192.147 628 c 257
 223.147 611 l 257
 191.147 599 l 257
 153.147 615 131.147 653.939 131.147 706.571 c 256
172.512 681.764 m 256
 172.512 651.068 197.452 626.128 228.147 626.128 c 256
 258.843 626.128 283.783 651.068 283.783 681.764 c 256
 283.783 712.459 258.843 737.399 228.147 737.399 c 256
 197.452 737.399 172.512 712.459 172.512 681.764 c 256
145.147 682 m 256
 145.147 730.552 182.354 770 228.147 770 c 256
 278.224 770 318.911 730.445 318.911 681.764 c 256
 318.911 631.688 278.224 591 228.147 591 c 256
 182.354 591 145.147 631.793 145.147 682 c 256
71.1611 618 m 257
 85.1543 655.014 112.588 687.55 147.147 710.938 c 257
 160.147 675.356 l 256
 135.277 656.803 115.652 632.404 105.161 605 c 257
 71.1611 618 l 257
33 214 m 256
 33 266.264 43.9704 312.662 62.1074 350 c 256
 91.2275 409.948 138.82 446.538 189.138 446.538 c 256
 208.042 446.538 226.386 441.8 246.138 432 c 257
 230.138 400 l 257
 215.93 407.104 202.735 410.538 189.138 410.538 c 256
 150.367 410.538 115.245 379.613 93.3428 331 c 256
 78.7285 298.563 70 258.253 70 214 c 256
 70 130.796 92.3926 40 159.834 40 c 256
 251 40 257.592 148.886 260.834 224.5 c 257
 294.834 224.5 l 257
 298.076 148.886 304.668 40 395.834 40 c 256
 488.567 40 495.391 164 495.391 293 c 256
 495.391 481.787 462.466 604.782 395.379 666 c 257
 419.482 696 l 257
 495.213 628.42 532.391 495.481 532.391 293 c 256
 532.391 145.135 523.031 3 395.834 3 c 256
 300.668 3 281.668 85 277.834 115 c 257
 274 85 255 3 159.834 3 c 256
 61.8389 3 33 115.606 33 214 c 256
EndSplineSet
EndChar

StartChar: si_DvocR
Encoding: 118 -1 118
GlifName: si_D_vocR_
Width: 712
VWidth: 0
GlyphClass: 2
Flags: W
LayerCount: 2
Back
Fore
SplineSet
435 144 m 256
 435 221.254 475.66 283.912 539.996 283.912 c 256
 574.48 283.912 604.903 271.368 621 250 c 257
 614 214 l 257
 590.396 241.635 565.188 248.33 546.398 248.33 c 256
 496.921 248.33 472 198.199 472 144 c 256
 472 81.1426 491 44 535 44 c 256
 553.885 44 587.631 58.8604 610.901 58.8604 c 256
 617.204 58.8604 622.737 57.7705 627 55 c 257
 649 6 l 257
 638.333 21 627.777 26 616.296 26 c 256
 593.333 26 566.667 6 528 6 c 256
 453 6 435 92.9023 435 144 c 256
443 371 m 257
 441.666 385.076 440.903 394.645 440.903 408 c 256
 440.903 484.782 466.113 550 553 550 c 256
 622.701 550 662.628 505.243 662.628 402 c 256
 662.628 290.009 647.31 209.969 647.31 144.819 c 256
 647.31 100.021 654.553 62.2637 679 26 c 257
 649 6 l 257
 616.903 50.7354 607.566 94.2129 607.566 143.508 c 256
 607.566 212.071 625.628 291.889 625.628 402 c 256
 625.628 479.433 599.177 513 553 513 c 256
 495.339 513 478.608 464.774 478.608 408 c 256
 478.608 397.405 479.115 382.166 480 371 c 257
 443 371 l 257
33.3096 212 m 256
 33.3096 312.682 106.31 411 230.255 411 c 256
 254.535 411 302.31 411 326.111 411 c 257
 328.111 422 331.31 438.288 331.31 454 c 256
 331.31 524.746 289.228 557 240.865 557 c 256
 200.48 557 158.032 530.043 158.032 474 c 256
 158.032 431.347 179.776 406.53 188.939 398 c 257
 165.032 376 l 257
 153.032 387 124.557 419 124.557 474 c 256
 124.557 553 184.159 591 240.865 591 c 256
 305.422 591 365.31 548.099 365.31 454 c 256
 365.31 424.453 360.31 399.965 351.31 374 c 257
 351.31 374 273.31 374 230.255 374 c 256
 130.453 374 70.3096 295.036 70.3096 212 c 256
 70.3096 101.981 151.646 41.8418 234.152 41.8418 c 256
 285.433 41.8418 337.166 65.0742 370.104 114 c 257
 399.382 91.6963 l 257
 359.163 31.5459 295.997 2.99805 233.382 2.99805 c 256
 132.632 2.99805 33.3096 76.9082 33.3096 212 c 256
173.434 -57 m 256
 173.434 -24.1729 181.178 1.5957 206.104 34 c 257
 235.104 36 l 257
 237.104 17 l 257
 214.956 -8.83984 210.434 -30.4658 210.434 -57 c 256
 210.434 -111.588 250.9 -156.696 306.104 -156.696 c 256
 359.543 -156.696 393.522 -132.977 421.475 -83 c 257
 450.752 -105.304 l 257
 415.706 -164.568 373.104 -192.696 306.104 -192.696 c 256
 226.689 -192.696 173.434 -129.529 173.434 -57 c 256
EndSplineSet
EndChar

StartChar: si_DvocRr
Encoding: 119 -1 119
GlifName: si_D_vocR_r
Width: 982
VWidth: 0
GlyphClass: 2
Flags: W
LayerCount: 2
Back
Fore
SplineSet
705 144 m 256
 705 221.254 745.66 283.912 809.996 283.912 c 256
 844.48 283.912 874.903 271.368 891 250 c 257
 884 214 l 257
 860.396 241.635 835.188 248.33 816.398 248.33 c 256
 766.921 248.33 742 198.199 742 144 c 256
 742 81.1426 761 44 805 44 c 256
 823.885 44 857.631 58.8604 880.901 58.8604 c 256
 887.204 58.8604 892.737 57.7705 897 55 c 257
 919 6 l 257
 908.333 21 897.777 26 886.296 26 c 256
 863.333 26 836.667 6 798 6 c 256
 723 6 705 92.9023 705 144 c 256
713 371 m 257
 711.666 385.076 710.903 394.645 710.903 408 c 256
 710.903 484.782 736.113 550 823 550 c 256
 892.701 550 932.628 505.243 932.628 402 c 256
 932.628 290.009 917.31 209.969 917.31 144.819 c 256
 917.31 100.021 924.553 62.2637 949 26 c 257
 919 6 l 257
 886.903 50.7354 877.566 94.2129 877.566 143.508 c 256
 877.566 212.071 895.628 291.889 895.628 402 c 256
 895.628 479.433 869.177 513 823 513 c 256
 765.339 513 748.608 464.774 748.608 408 c 256
 748.608 397.405 749.115 382.166 750 371 c 257
 713 371 l 257
435 144 m 256
 435 221.254 475.66 283.912 539.996 283.912 c 256
 574.48 283.912 604.903 271.368 621 250 c 257
 614 214 l 257
 590.396 241.635 565.188 248.33 546.398 248.33 c 256
 496.921 248.33 472 198.199 472 144 c 256
 472 81.1426 491 44 535 44 c 256
 553.885 44 587.631 58.8604 610.901 58.8604 c 256
 617.204 58.8604 622.737 57.7705 627 55 c 257
 649 6 l 257
 638.333 21 627.777 26 616.296 26 c 256
 593.333 26 566.667 6 528 6 c 256
 453 6 435 92.9023 435 144 c 256
443 371 m 257
 441.666 385.076 440.903 394.645 440.903 408 c 256
 440.903 484.782 466.113 550 553 550 c 256
 622.701 550 662.628 505.243 662.628 402 c 256
 662.628 290.009 647.31 209.969 647.31 144.819 c 256
 647.31 100.021 654.553 62.2637 679 26 c 257
 649 6 l 257
 616.903 50.7354 607.566 94.2129 607.566 143.508 c 256
 607.566 212.071 625.628 291.889 625.628 402 c 256
 625.628 479.433 599.177 513 553 513 c 256
 495.339 513 478.608 464.774 478.608 408 c 256
 478.608 397.405 479.115 382.166 480 371 c 257
 443 371 l 257
33.3096 212 m 256
 33.3096 312.682 106.31 411 230.255 411 c 256
 254.535 411 302.31 411 326.111 411 c 257
 328.111 422 331.31 438.288 331.31 454 c 256
 331.31 524.746 289.228 557 240.865 557 c 256
 200.48 557 158.032 530.043 158.032 474 c 256
 158.032 431.347 179.776 406.53 188.939 398 c 257
 165.032 376 l 257
 153.032 387 124.557 419 124.557 474 c 256
 124.557 553 184.159 591 240.865 591 c 256
 305.422 591 365.31 548.099 365.31 454 c 256
 365.31 424.453 360.31 399.965 351.31 374 c 257
 351.31 374 273.31 374 230.255 374 c 256
 130.453 374 70.3096 295.036 70.3096 212 c 256
 70.3096 101.981 151.646 41.8418 234.152 41.8418 c 256
 285.433 41.8418 337.166 65.0742 370.104 114 c 257
 399.382 91.6963 l 257
 359.163 31.5459 295.997 2.99805 233.382 2.99805 c 256
 132.632 2.99805 33.3096 76.9082 33.3096 212 c 256
173.434 -57 m 256
 173.434 -24.1729 181.178 1.5957 206.104 34 c 257
 235.104 36 l 257
 237.104 17 l 257
 214.956 -8.83984 210.434 -30.4658 210.434 -57 c 256
 210.434 -111.588 250.9 -156.696 306.104 -156.696 c 256
 359.543 -156.696 393.522 -132.977 421.475 -83 c 257
 450.752 -105.304 l 257
 415.706 -164.568 373.104 -192.696 306.104 -192.696 c 256
 226.689 -192.696 173.434 -129.529 173.434 -57 c 256
EndSplineSet
EndChar

